<svg xmlns="http://www.w3.org/2000/svg" viewBox="0 0 800 800"><defs><style>.cls-1{fill:#fff;}</style></defs><title>Plan de travail 1_1</title><g id="Calque_3" data-name="Calque 3"><path class="cls-1" d="M152.56,618.94H126.62c7.06,6.58,14.71,3.67,22.42,5.91-16.51,9.95-30,4.76-44.57-4.75,11.35-8.64,22.72-10.63,35.43-7.32,2.68.7,5.07,4.68,8.4,1.24.67-.92,1.42-1,2.24-.18l-.3-.18c.71,1.21,2.24,1.55,2.95,2.76.05.46.09.92.14,1.37Z"/><path class="cls-1" d="M152.57,614.28c-4.86-15.57-5.76-30.56,6.36-43.74,10.87,12.12,11.84,25.6,3.22,43-5.77-4.84-5.78-4.89-2.88-16.37C154.44,602,161.88,611.44,152.57,614.28Z"/><path class="cls-1" d="M571.2,677.17c-.42-6,3.73-11.54,1.31-18.32-5.3,4.71-4.84,11.65-7.71,17-5.81-15.07-1.07-28.59,14.43-39.79,6.26,15.26,4.74,28.91-6.29,41.24l-.91.67Z"/><path class="cls-1" d="M650.27,609.19c.48-5.68-.67-11.09-3.34-18.22-2.42,7.95-1.92,14.55-1.56,22-10.68-13.19-10.4-26.19.65-42.89,9.82,10.73,12.27,22.84,9.36,36.44a7.63,7.63,0,0,0-1,4.21,3,3,0,0,1-2.3,1.62C650.43,611.91,649.55,611,650.27,609.19Z"/><path class="cls-1" d="M69.83,424.49c3.47-16.64,13.88-26.32,30.83-30.86-.82,16.41-6.88,28.61-21,36.15-3.89-4.56-3.89-4.56,3.12-13.86A27.29,27.29,0,0,1,85,413.2c-.53.07-1,.49-1.56,1.33-3.52,4.6-6.65,9.44-11.24,13C70.12,427.52,69.1,426.67,69.83,424.49Z"/><path class="cls-1" d="M203.61,657.83c-9.73-13-9.3-26.56-2.41-40.68,13.31,9,17.44,22.25,12.28,38.38-.92,1.08-1.71,1-2.33-.29a38.17,38.17,0,0,0-4.49-15.68c-3.42,6.87.17,12.69-1.2,18.17A1,1,0,0,1,203.61,657.83Z"/><path class="cls-1" d="M84.45,492.57C85,474,91.35,464.14,108.13,457c2.29,16.4-1.07,30.05-17.87,41,3.39-8.2,7.27-13.84,7.91-20.64C92,482.16,92,482.16,86.85,492.48,86.09,493.54,85.29,493.52,84.45,492.57Z"/><path class="cls-1" d="M626.93,635.87c-.36-5.93-.72-11.86-1.13-18.46-4.21,6.7-4.21,6.7-4.93,18.28-9.59-11.57-8.32-24.08,4.76-41.36,10.41,12.2,9.26,25.54,5.61,39.29-.1.42-.21.84-.32,1.27a5.52,5.52,0,0,1-1.86,1.8A1.68,1.68,0,0,1,626.93,635.87Z"/><path class="cls-1" d="M743.27,426.93c4.27-16,17.41-24.76,35.47-23.4-4.35,15-12.88,25.45-30.81,29.17,3.61-7.07,10.81-9.13,12.07-15.48l.09.1c-7.24.28-11.09,6.63-16.92,9.44Z"/><path class="cls-1" d="M679.78,587.35c22.94-8,27-8,41.92.08-11.64,12.94-23.87,16.23-39.74,10.15,5.62-4.17,13.35-1.37,17.91-6.72-7.28-3.9-15.18,2.19-22.46-1.3,0,0,.45-1.06.44-1.06l.84-.8Z"/><path class="cls-1" d="M106.3,521.63c.48-4.29,3.27-8.24,1.94-13.29-7.2,4.23-5.59,13.74-11.71,18.16l.22.27c-1.71-16.94,3.25-30.6,19.88-40.38,3.76,16.35,2.69,29.84-10.24,40.43A3.85,3.85,0,0,1,106.3,521.63Z"/><path class="cls-1" d="M62.68,427c-5.44-2.89-9.4-8.49-16.92-9.8,1.49,7.1,8.17,8.42,10.81,13.08-13.2,1.34-23-7.39-29.83-27.46,14.8-.65,25.52,5.41,33.86,16.65C63.51,421.38,65,423.67,62.68,427Z"/><path class="cls-1" d="M227.76,686.67c-5.28,1.32-10.53,2.72-15.58,6.59,6.76,2.65,12.36-.79,18.14-1.41.74.52,1,1.07.81,1.66s-.41.9-.64.9c-11.64,10.65-24.92,11.18-40.39,6,7.79-12.51,19.06-17.27,32.68-18,1.67,1.1,4,.24,5.5,1.82A1.82,1.82,0,0,1,227.76,686.67Z"/><path class="cls-1" d="M696.6,524.36c-10.86-10.48-10.65-23.06-7.8-38.23,15.44,9.66,21.65,21.8,20.11,38.06-.72.94-1.41.91-2-.09-3.28-4.9-4-11.27-9.12-16-2,6.14,1.77,10.84,2.41,16A2.42,2.42,0,0,1,696.6,524.36Z"/><path class="cls-1" d="M719.38,492.51c-3.73-4.75-4.71-11.42-10.32-14.87-1.83.84-.68,2.12-.49,3.26.52,5.37,3.76,9.66,5.74,14.46C700,489.21,695,477.46,698.2,456c14.35,8.53,24.15,18.95,22.72,36.62Z"/><path class="cls-1" d="M728.58,495.27c8.93-14,20.59-18.84,37.78-15.55-3.79,14.74-15.9,23-34.11,22.41,4.17-5.28,11.72-5.43,14.41-11.42-7.09-2.49-11.68,5.05-18.22,4.37Z"/><path class="cls-1" d="M65.16,502.9c-12.41-3-21.21-10.37-27.93-23.29,15.29-3.27,27.16.75,37.6,10.52,1.8,1.38,4,2.58,2.28,5.46a6.85,6.85,0,0,1-3.25.94,13.74,13.74,0,0,1-7.31-3.42c3.31,3.45,8,3.95,8.59,8.44C72,504.71,68.51,503.36,65.16,502.9Z"/><path class="cls-1" d="M69.81,385.52c5.32-13.9,16.46-20.1,30.19-23,1.3,16-9.07,29.45-24.72,32.06,2.65-5.07,7.89-8.19,9.53-13.76-.86-1.89-2-.62-3-.2l-9.29,7.77C70.09,388.9,69.36,387.77,69.81,385.52Z"/><path class="cls-1" d="M67.56,461.43c-5.88-2.17-10.47-7.47-18.69-7.63,4.73,6.47,10.82,9.3,16.43,13.05-16.42,1.72-28.89-7.49-33.92-25.29,15.66-1.58,27.72,3.67,36.1,17a1.87,1.87,0,0,1,.64,1.88C67.94,461.11,67.75,461.43,67.56,461.43Z"/><path class="cls-1" d="M663,624.1c4.83-1,10.32.54,15-4.36-7.06-1.51-13.5-1.1-19.93-.83-1.4-2.68.25-3.57,2.43-4.16,14-6.07,27-3.86,40.77,4.61-12.23,9.38-24.07,14-38.24,8.79C661.5,626.82,661.41,625.47,663,624.1Z"/><path class="cls-1" d="M172,640.66c-4,7.21-12.05,2.39-17.36,6.47,4.31,5.34,11.18,1.33,16.28,3.85-12.19,9.15-23.08,8.76-40.16-1.75,12.2-11.82,26.18-13.1,41.44-8.38Z"/><path class="cls-1" d="M742.7,354c3.19-16.69,14.52-24.77,31-29.72-1.22,16.38-7.13,28.14-20.92,35.26-3.94-4.79-3.87-5.08,3.17-13.83a1.53,1.53,0,0,1,1.93-1.1c-1.87-.71-1.9,1.08-2.69,1.78-2.73,2.91-5,6.27-8,8.88C745.44,356.77,743,358.49,742.7,354Z"/><path class="cls-1" d="M718.52,461.13c-13.68-7.94-15.25-21.29-16.36-36.78,13.87,6.45,24.67,13.52,26.53,29,1,2.44-.32,2.85-2.33,2.64-3.06-3.07-4.67-7.59-9.58-9.49-1,6,3.72,9.61,5.28,14.31l-1.68,1.22Z"/><path class="cls-1" d="M733.32,354.21c-6.05-.76-9-7.94-16.34-7.79,2.79,6.08,7.88,9.36,12.41,13.46-14,1.22-25.1-9.52-29.25-28.68,14.74,1.38,26.7,6.36,33.64,20.09A2.37,2.37,0,0,1,733.32,354.21Z"/><path class="cls-1" d="M704.3,565.8c5.3-1.54,10.62-3,17-7.17H707.18c-2.78.91-3.39-.44-3-2.86,11.31-8.85,23.37-8.1,36.08-3.28C731.65,566.68,719.15,572,704,568.21c-.78-.64-1-1.21-.65-1.71S704,565.8,704.3,565.8Z"/><path class="cls-1" d="M52.8,359.18c-14-6.48-19.17-18.5-20.91-32.87,16,.56,26.81,10.65,29.17,29.28q-4-4.47-8-8.93c-2.94-1.06-3.81-.05-2.8,2.82l5,7.06C55.91,358.8,55.3,359.88,52.8,359.18Z"/><path class="cls-1" d="M123.39,589.87H104.85c5.29,6.17,12.89,3.79,19.53,7.85-17,7.07-29.21.57-40.93-8.93,12-9.62,24.85-9.87,39.83-1a1.26,1.26,0,0,1,.6,1.38C123.73,589.63,123.56,589.87,123.39,589.87Z"/><path class="cls-1" d="M193.83,667.25c-3.68,1.15-7.69,1.56-11,4.66,5.93,3,11.56-.33,17,.91-9.81,10.83-21.61,12-41.32,3.29C168.67,666,179.55,660.28,193.83,663,195.3,664.4,195.3,665.82,193.83,667.25Z"/><path class="cls-1" d="M626.93,635.87a4.23,4.23,0,0,1,1.5.17,14.89,14.89,0,0,0,2.91-2.64l-.1.22c5.58-1.41,7.38-7.65,12.43-9.72l1,.35.76.75.33,1L633.63,640.9l.21-.19c-10.17,5.79-18.49,13.84-26.72,22l-.17-.16,4.94.42a2.74,2.74,0,0,1,0,4.3H599.2l-18.83,12.61A8,8,0,0,1,573,684.7l-6.85,2.59c-2.72,1.14-3.1-.29-2.77-2.52,3.11-2,6.07-4.21,7.86-7.6a4.63,4.63,0,0,1,1.74.1c11.18-4.37,20.56-11.42,29.24-19.53l-.13.12C611.7,652.07,621.83,646.81,626.93,635.87Z"/><path class="cls-1" d="M89.43,315.2c-4,.15-6.58,3.11-9.69,5-2.34.56-3.28-.26-2.62-2.65,8.28-12.77,20.43-17.08,35.32-16.87-6,17.83-15.37,25.67-31.59,26.39,3.14-5,9.64-6.26,11.5-11.79C91.41,313.42,90.42,314.35,89.43,315.2Z"/><path class="cls-1" d="M71.85,351.27c6.87-13.69,18.84-18.58,33.4-20.09-3.56,18.15-12.44,27.38-29.61,30.18l9-9.6c1.07-2.92.05-3.76-2.78-2.79l-9.45,5.24a2.33,2.33,0,0,1-.84-1.87C71.6,351.62,71.69,351.27,71.85,351.27Z"/><path class="cls-1" d="M84.1,527l-4.3-.51c-5.28-1.65-5.28-1.65-4.91,2.46l13.8,6.7c-18.55,3.74-30-4.31-40.18-18.26,14.77-4.71,27.35-3.5,38.35,6.94C87.35,526.65,86.75,527.87,84.1,527Z"/><path class="cls-1" d="M720.64,380.81c1.82,5.52,7,8.66,9.8,13.68-15-2.15-23.73-12.76-25.78-32.17,15.22,3.42,27.19,9.61,31.46,25.66q-1.32,1.86-2.92.24l-9.37-7.59C722.73,380,721.61,379.06,720.64,380.81Z"/><path class="cls-1" d="M611.89,667.26V663c14-2.48,24.91,2.71,35.06,13.2-15,7.38-28.35,8.36-42.82-2.75,7-2,12.94,1.52,18.72-1.49C619.58,668.8,615.57,668.39,611.89,667.26Z"/><path class="cls-1" d="M120.54,555.77c.29-5.82,3.29-11.36,2-17.85-4.67,3.47-5.16,8.47-6.8,12.86q-2.09,2.31-4.15,0c-2.3-14.78,5-25.3,16-36,5.56,15.31,6.53,28.69-4.22,41A1.8,1.8,0,0,1,120.54,555.77Z"/><path class="cls-1" d="M725.83,526.42l-4.28.43c-2.67,1-3.19-.25-2.71-2.57,11-10.61,23.61-11.44,38.23-7-9.73,14.16-21.52,21.48-40.25,18.76l13.93-7.24C731.59,522.86,728.17,525.77,725.83,526.42Z"/><path class="cls-1" d="M232.27,662.93l.74,8.94a3,3,0,0,1,.11,3.15c-3.05,1.45-3.91-1-5.07-2.87-6.12-11.66-7-23.55-1.92-35.95,14.69,9.64,19.25,21.15,15.48,40.81l-6.49-16.69C232.31,659.16,231.67,660.37,232.27,662.93Z"/><path class="cls-1" d="M101.72,568.21c-15.29,3.7-27.6-1.5-36.31-15.71,12.74-4.94,24.78-5.47,36.08,3.32.33,2.39-.23,3.84-3.06,2.89H85.65c5,4.56,10.61,5.34,15.76,7.1.92.42,1.28.92,1.06,1.49S102,568.21,101.72,568.21Z"/><path class="cls-1" d="M726.07,429.71c-14.4-7.19-20-19.6-21.18-35.79,13.74,3.45,23.51,10.39,28.59,23.23,1.51,2.37,1.26,4.3-1.4,5.62-4.62-.19-6.33-4.1-7.82-5.5C729.23,424.32,729.23,424.32,726.07,429.71Z"/><path class="cls-1" d="M582.92,682.32c13.6.42,24.26,6.13,32.89,17.74-14,5.22-26.36,5.28-38-3.36-.35-4.59,2.56-3.5,5.16-3l12.11.89c-6.37-5.39-11.92-6.33-17.13-8a1.86,1.86,0,0,1-.92-1.59c0-.65.11-1,.27-1C578.9,682.65,581.21,683.44,582.92,682.32Z"/><path class="cls-1" d="M718.8,327.63c-13.15-4.25-21.6-13-26.06-26.82,15.37-.46,27.53,3.93,35.73,16.81.74,2.18-.55,3.05-2.33,3.61a8.19,8.19,0,0,1-5.87-2.22c2.15,2.82,5.78,3.89,6.1,7.47C724,329.43,721.44,328.69,718.8,327.63Z"/><path class="cls-1" d="M184.5,628.56c-.72-3.47-.07-7.32-3.46-10.91-3.87,5.9-.65,12.38-2.21,18.08-4.23,1-2.84-3-4.06-4.64-5.91-13-3.17-24.82,5-37.58,9,12,14.1,23.41,9,37.45C186.12,632.41,185.51,630.12,184.5,628.56Z"/><path class="cls-1" d="M665.24,585.32c-10-13-10.55-25.6-1.49-41.47a41.71,41.71,0,0,1,13.42,31c-2.16,2.91.69,6.36-1,9.31a2.87,2.87,0,0,1-2.76,1.24c-3.24-1.73-3.8-5.13-5-8.07a9.09,9.09,0,0,1-.45-2.17c-.48,2.51.44,5.12-.6,7.58A6,6,0,0,1,665.24,585.32Z"/><path class="cls-1" d="M47.45,393.35c-12.55-5.51-17.4-16.12-20.34-30.23,16.3,3.17,28.36,9.08,33.23,24.82a2.26,2.26,0,0,1,.13,2.83c-7.11,1.17-9.06-6-13.86-8.57a4.56,4.56,0,0,1-1.8-1.89c.24,1.62,1.69,2.11,2.77,3,2.62,2.22,4.7,4.67,3.93,8.45C50.63,393.46,49.41,394.33,47.45,393.35Z"/><path class="cls-1" d="M637.9,643.59l-.93.16-.87-.35c-.7-.56-.93-1.12-.67-1.66s.5-.8.74-.8c14.38-6.28,26.54-1.42,38.33,7.18-13.34,11.44-27.06,12.35-40.27,2.81,5.65-1.92,12.13.76,17.73-3.65l-3.69-1.87C645.07,643.34,641.16,645.32,637.9,643.59Z"/><path class="cls-1" d="M83.39,460.85l6.1-12c1.22-3-.09-3.33-2.57-2.52l-7.26,9.77c-4.25.14-3.8-2.32-2.79-5.08C80,438.28,89,431,100.3,425.64c5,12.14.3,24.61-13.18,35.46l-1.93.91Z"/><path class="cls-1" d="M738,458.43c8.46-13,20.48-18.36,37.75-16.67-5.67,12-12,21.28-24.82,24.49-2.34.45-5.3,2.22-5.21-2.47,3.16-2.81,7.4-4.52,9.36-9.22-7.08-.86-11.19,5-16.92,6.63a1.85,1.85,0,0,1-.67-1.81C737.65,458.75,737.82,458.43,738,458.43Z"/><path class="cls-1" d="M690,550.79c-1-2.36-2-4.72-3-7.09-6.67.57-3,4.43-2.32,7.3.12,1.59.24,3.18.35,4.77a1.71,1.71,0,0,1-2.82.09c-10.28-12.1-10.4-25.33-4.05-41.44,9.52,10.54,17.61,19.81,15.88,34.06C693.27,550.27,692.21,551.55,690,550.79Z"/><path class="cls-1" d="M65.06,317.63,57.72,308c-2.69-1.06-3.54-.22-2.59,2.5q2.64,4.73,5.29,9.46c.48,2.27-.12,3.42-2.66,2.58-12.52-8-16.44-20-16.64-36.07,14.15,6,24.13,13.65,26.89,28.54C68.38,317.35,67.35,318.18,65.06,317.63Z"/><path class="cls-1" d="M87,283.69c8.76-12,21-13.88,34.64-12.13-5.73,15.67-15.09,22.09-33.51,22.69,4.22-5.51,12-5.92,15.09-12.24-6.11-1-10.5,3.76-16,4.43l-1.32-1.27C86.28,284.67,86.65,284.18,87,283.69Z"/><path class="cls-1" d="M747.88,307.82l-7.33,9.65c-4.23.19-3.75-2.14-2.59-4.84,3.64-13.19,12.75-20.75,26.54-25.91-.42,16.49-4.32,29.43-19.14,36.88a2.93,2.93,0,0,1,0-3.72l5.15-9.49C751.68,307.44,750.43,307,747.88,307.82Z"/><path class="cls-1" d="M67.1,286.28c-11.89-8.4-13.73-20.5-13.15-35.18,13.64,4.31,20.17,13.36,23.8,25.22.48,3.3,2.71,6.81-1.13,9.64-4.41,0-4.24-4.59-6.85-6.79,1.25,2.56,1.53,4.83.47,7.16A2.63,2.63,0,0,1,67.1,286.28Z"/><path class="cls-1" d="M128.63,577.21c-.81-13.16,3.75-24.11,13.88-34.39,6.38,14.08,8.85,26.77.23,39.64a2.25,2.25,0,0,1-3.11-.09c-2.86-4.17-1.53-8.72-1.18-13.15.06-.91,1.08-1.51.94-2.54-.77-.52-1-.21-.65,1-1,2.51-.7,5.23-1.57,7.7-1.39,3.27-1.2,7.25-4.26,9.81a3,3,0,0,1-2.92-.39C127.94,582.53,129.8,579.6,128.63,577.21Z"/><path class="cls-1" d="M747.71,382.91c5.68-12.8,16.81-16.9,30.86-19.86-3,14.07-7.75,24.78-20.42,30.23-2,1.1-3.11.07-4-1.62-.67-2.53.53-4.57,1.86-6.67-2.15,1-4.13,2.37-6.61,1.78C747.7,386,746.54,385,747.71,382.91Z"/><path class="cls-1" d="M597.63,639.53l-3.24,15.68c-.55,1.24-1.25,1.33-2.08.26h0c-1.26-1.43-.89-3.54-2.08-5-2.1-13.85,2.65-25,13.51-34.59,6.25,12.84,8.75,24.84.86,37.12-7.82-2.8-1.06-10.29-4.66-14.43a1.88,1.88,0,0,0-1.08-.44C598.25,638,597.84,638.56,597.63,639.53Z"/><path class="cls-1" d="M718.76,286.16l-17.31-5.35c3.8,5.89,8.36,7.71,12.48,10.05.41,4.63-2.56,3.48-5.14,3-12.47-2.34-20-10.4-26.23-21.87,15.09-2.71,27,.31,36.43,11.49A1.83,1.83,0,0,1,718.76,286.16Z"/><path class="cls-1" d="M728.13,276.21c3-12,10.51-20,23.32-26.12.46,14.94-.61,27.39-12.94,36.12a2.48,2.48,0,0,1-3,.17c-1.86-4.58.81-8.15,2.59-11.85-.05.08-.14-.82-.14-.82s-.18.89-.21,1c-2.64,3.37-2.86,8.85-8.55,9.31C726.16,281.76,727.17,279,728.13,276.21Z"/><path class="cls-1" d="M725.74,253.9c-.34-4.34,4-8.05,1.75-12.81-4.87,4.16-6.11,10.32-9.18,15.39-.33,1-.86,1.13-1.58.35-1.39-15.18,4.92-26.29,17.59-34.43,6.57,12.27,3.73,23.91-8.13,35.08A2.5,2.5,0,0,1,725.74,253.9Z"/><path class="cls-1" d="M87.32,256.51c-3.21-4.91-4.2-11.17-9.13-15.16C75.91,246,80.3,249.68,79.92,254a2.38,2.38,0,0,1-.4,3.52c-11.73-9-13.13-20.87-10.42-35.8,15.12,8.26,20.82,19.84,20,35.14C88.37,257.65,87.76,257.54,87.32,256.51Z"/><path class="cls-1" d="M694.47,233.05c-4.46-1.15-8.66-4.23-13.85-1.89,4,4.73,10,5,14.92,7.39-13.07,5.1-23.34,1.2-35.3-13.91,12.25-5.43,23.24-3.43,33.89,3.26C698.4,231.15,698.4,231.2,694.47,233.05Z"/><path class="cls-1" d="M111.51,227.84c10.41-6.66,21.41-8.05,33.2-4-7.33,13.76-18.33,19-33.46,16-.83-.55-1.08-1.05-.74-1.5a1.27,1.27,0,0,1,.94-.62c4.94-1.23,9.82-2.57,13.53-6.73-5.94-2.38-10.83,2.38-16.29,1.64C107.41,229.72,109.74,229,111.51,227.84Z"/><path class="cls-1" d="M91.79,230.14C82.28,219.69,80,207.9,85.15,194.67c13.44,6.32,18,16.41,16.07,35.43-.75.78-1.33.71-1.71-.35-1.25-5.32-2.59-10.59-6.71-15.38-2.68,6,1.23,10.75,1.73,15.8A1.65,1.65,0,0,1,91.79,230.14Z"/><path class="cls-1" d="M96.4,256.65c9.59-10.6,21.39-12.85,35-9.74-7,15-16.33,20.21-34.85,19l12.18-6.75a4.14,4.14,0,0,0,1-2c-.9-1.69-2.2-1.28-3.55-.66l-9.5,3a2,2,0,0,1-.73-1.88C96.05,257,96.22,256.65,96.4,256.65Z"/><path class="cls-1" d="M710.88,230.23c.82-5.07,4.2-9.7,2.41-16-4.78,4.05-5.2,9.75-7.36,14.49-5.27-12.62-1.09-23.55,13.17-34.46,6.61,14.28,5.51,21.82-5.23,35.83A2,2,0,0,1,710.88,230.23Z"/><path class="cls-1" d="M696.94,259.24l10.83,5.9c-15.34,2.57-23.14-1.39-34.64-17.78,12.84-3.32,23.93-2.29,33.51,7,.68,2.55-.21,3.5-2.79,2.75l-4.32-.56a2.62,2.62,0,0,0-3.34.2C695.53,257.56,696.48,258.36,696.94,259.24Z"/><path class="cls-1" d="M193.83,667.25V663l4.45-1.11L174.22,641l.82-1.07a5.24,5.24,0,0,1,2.6-.58c.82.35,1.63.75,2.43,1.18,7.65,6,14.23,13.54,23.54,17.33a6.75,6.75,0,0,1,1.85-.1c4.95,9,14.14,12.62,22.41,17.37,1.78.42,3.65.65,5,2.14l11.75,9.89a2.76,2.76,0,0,1-2,1.74l-9.87-4.16a10,10,0,0,1-7.45-4.82l-19-12.64Z"/><path class="cls-1" d="M106.5,203.18c-6.83-10.33-6.79-21.07-1.86-32.88,9.59,7.29,13.89,16.5,13.65,28-1.24,2.15-.24,6.52-5.07,5.16-3.16-3-.81-7.78-3.58-11.08-.43-1.4-2.23.77-.79,0,.51-.27.75,0,1.06.57a10.59,10.59,0,0,1,.64,8.11C109.67,202.7,108.64,204,106.5,203.18Z"/><path class="cls-1" d="M687.39,200.92c-1-11.95,3.24-21.78,12-30,7.7,12.14,7,21.77-2.33,32.86a6.33,6.33,0,0,1-2.09-2.78c-1-3.11.57-6.17.25-9.8.1-1.08-2,.16-.41,0,.43,0,.69.34.47,1.07-1.09,3.65.09,8-3.09,10.87C689.54,204.2,688.33,202.83,687.39,200.92Z"/><path class="cls-1" d="M682.33,207.75l-15.27-1.49a9.79,9.79,0,0,0,6.63,4.64c2.29.61,4.47,1.62,7.06,2.59-13,4.46-19.52,2.47-32-10,12.09-6.62,23-5.7,33.47,2.56.63.34.86.7.68,1.09S682.53,207.75,682.33,207.75Z"/><path class="cls-1" d="M126.05,203.58c9.82-5.38,19.72-6,30.72-.52-8.5,10.84-18.72,14.63-32.13,10.54l8.33-3.08c1.09-6.11-2.75-2.87-5-2.64l-4.6.51C122,205.5,124.26,204.68,126.05,203.58Z"/><path class="cls-1" d="M140.46,181.66c9.63-2.53,19.21-4.45,28.85,2.42-8.51,10.15-19.06,11-30.37,9.32.71-2.89,1.92-4.21,5.43-5.78-1.92.22-3.6.75-5.21-.12a4.73,4.73,0,0,1-1.86-2.59,4.13,4.13,0,0,1,1.57-2.77Z"/><path class="cls-1" d="M666.57,193.31c-11.16,2-21.32.48-30.11-8.59,9.12-7.92,19-5.47,28.83-3l1.65.58a3.82,3.82,0,0,1,1.4,3l-.82,1.47c-2,1.76-4.21,1.4-5.93,1,1.33,1.6,5.43.59,6.23,4.19a1.16,1.16,0,0,1-.22.89A3.93,3.93,0,0,1,666.57,193.31Z"/><path class="cls-1" d="M672.79,181.55c-4-11.89-.69-21.87,8.08-31.49,7.29,10.7,6,20.74,1.3,30.93-6,1.67-1.75-5.56-5.26-6a8.11,8.11,0,0,1-1.26,1.91l-1,4.45C674.15,182.4,673.53,182.43,672.79,181.55Z"/><path class="cls-1" d="M125.8,181.12c-8.06-9.84-8.36-17.38-1-30.28,9.12,8.64,11.29,18.94,8.27,30.69-.78.82-1.44.69-2-.26-.85-4.54-1-9.33-5-13.84v11.48c.55.56.7,1.08.43,1.54S126,181.12,125.8,181.12Z"/><path class="cls-1" d="M655.69,162.2c-3.77-10.71-2.9-20.47,6-29.41,6.1,9.46,8.61,18.31,1.23,28-3.49-2.4-.35-6.53-3.27-8.63-3.28,2.45.82,8.13-4.19,9.81Z"/><path class="cls-1" d="M150.31,162c-5-1.76-.87-7.58-4.39-10.07-4.66,1.71-.46,5.72-2.18,8.13-7.56-8.67-7.63-12-.53-26.16,9.2,8,10.1,11.74,6.83,28.3Z"/><path class="cls-1" d="M60.16,390.11a3,3,0,0,1,.18-2.17c5.6-6.46-.79-15.4,4.54-21.91a4.64,4.64,0,0,1,2.29,2.37c1.75,5.57-2.32,12,2.64,17.12l2.73,2.85c-7.33,5.91-4.16,14.41-5.39,21.82a3.49,3.49,0,0,1-2.35,1.12,2.92,2.92,0,0,1-2-1.55q-.3-7-.59-14.08C60.27,394.27,58.53,392.8,60.16,390.11Z"/><path class="cls-1" d="M111.63,550.77h4.15c.64,3.64-.65,6.82-2.33,9.91-.65,1-.84,2.41-2.35,2.65-1.59-.84-3.89-.49-4.61-2.77l.18-1,.94-.18-1-.23-.16-1c-4-8.56-8-17.13-11.74-25.25L84.1,527l2.76-2.67a3.09,3.09,0,0,0,2.85-2.64c.74-1,.89-2.44,2.34-2.82l4.7,7.93-.22-.27a143,143,0,0,0,12.11,25.41C111,555.87,110.9,551.91,111.63,550.77Z"/><path class="cls-1" d="M162.71,135.56c-.26,2.33-.52,4.67-.92,8.2-6.85-9.84-3.54-17.56,1.47-26.06,7.93,6.63,6.6,14.62,5.89,22.45-.71,2.14-1.62,3.92-4.32,2.27l-.27-7c-1.17-1.17-1-2.63-.89-4.09C163.39,132.76,163.56,134.28,162.71,135.56Z"/><path class="cls-1" d="M160,162.38c7.63-1.22,15.13-1.76,22.35,4.37-7.91,7.49-16.09,9.59-26.23,5.41,2.63-4,6.64-1.51,9.12-3.57a1.16,1.16,0,0,0,.32-1c-.12-.34-.54-.58-.83-.86C163.61,164.79,158.68,167,160,162.38Z"/><path class="cls-1" d="M641,166.78c.48,5.32,6.66.91,8.28,5.43-9.54,4.57-17.55,1.62-26.14-5,6.95-6.7,14.72-5.94,22.57-4.85C647,167,642,164.78,641,166.78Z"/><path class="cls-1" d="M733.2,388.22l2.92-.24c4.32-5.16.81-11.49,2.53-17,.74-1,1.41-1,2,.13,5,4.6-1.24,12.32,4.62,16.69a4.17,4.17,0,0,1,1.54,2.73c-.08,2.47-1.55,3.94-3.61,5-.56,4.08-.07,8.38-2.55,12.05-.6,1.05-1.3,1.06-2.07.19C738.22,400.81,739,393.61,733.2,388.22Z"/><path class="cls-1" d="M179.15,150.23c-2.94-1.74-7,.22-9.53-2.87l-.2.21c9.37-3.47,18.42-4.51,27.27,3.2-7.9,5.73-15.34,8.29-23.91,3.32,1.51-2.72,4.26-1.46,6.29-2.27,1.31-.73,2.82-.56,4.21-.93A4.84,4.84,0,0,1,179.15,150.23Z"/><path class="cls-1" d="M626.62,151.81l7.57,1.34c-10.1,6.1-17.33,3.1-25.22-2.43,7.68-5.81,14.84-8.12,24.79-2.63l-7.22,2.1a4.11,4.11,0,0,1-4,.58C623.83,151.28,625.34,151.09,626.62,151.81Z"/><path class="cls-1" d="M636.32,140.15c-.8-7.64-1.29-15.22,5.22-22,7,7.51,7.44,15.57,4.27,24.35A2.09,2.09,0,0,1,643,143c-1.63-1.81-1.2-3.9-.81-6-.07-1.15.38-2.37-.45-3.45a3.57,3.57,0,0,1,.39,2,6.92,6.92,0,0,1-.71,2.83C640.09,140.14,638.56,141.24,636.32,140.15Z"/><path class="cls-1" d="M180.07,640.5l-3.51.17-.55-.83-.86.49-.93.64a4.85,4.85,0,0,1-2.23-.31l.2.19q-9.83-11-19.63-21.91l-.14.12a4,4,0,0,1,5.25-.62c5.12,5,8.13,12.86,17.1,12.65l4.06,4.64Z"/><path class="cls-1" d="M70.07,286c-1.29-4.94-5.21-9.06-4.67-15.25,6.24,2.66,7.1,9.12,10.78,13.3,2.35-2.25.78-5.23,1.57-7.73l3.74,4.74q2.39.85.57,2.62l.11-.16a4.74,4.74,0,0,0-1.34,3.71A5.33,5.33,0,0,1,79.58,291l.16-.18a1.38,1.38,0,0,1-2.34.35c-1.75-3.58-5.84,1.62-7.56-2A9.41,9.41,0,0,0,70.07,286Z"/><path class="cls-1" d="M65.16,502.9l7.74-.75c-3.62-5.53-11.41-5.29-14.11-11.51,6.46-1.95,10.82,2.64,15.93,4.51,2.59,1.66,6.72.6,8,4.53a2.11,2.11,0,0,1-1,2.66C76.23,503,70.85,507.51,65.16,502.9Z"/><path class="cls-1" d="M743.2,395.46c.75-1.75,1.51-3.49,2.27-5.24,1.46-1.72,2.78-3.61,5-4.49,3.78-1.83,6.29-5.94,11.24-6.35,0,5.21-4.73,7.28-6.54,11.05-1.36,1.81-.6,3.57.12,5.33C751.16,399.85,747.18,397.35,743.2,395.46Z"/><path class="cls-1" d="M742.7,354c6.34-.47,7-8,12.19-9.86a2.42,2.42,0,0,1,3.58.3c.07,5.78-9,8.11-5.71,15.1-4.11,4.79-7.76-1-11.68-.5-1.89-1.62-1.66-3.31-.18-5C741.5,354,742.1,354,742.7,354Z"/><path class="cls-1" d="M718.8,327.63l5.66-.53c-3.66-5.28-10.21-7-13-13.49,6.21.12,10.24,3.7,14.57,6.52,1.76,1,3.62,2,2.48,4.57.29,1.45.58,2.91.89,4.5C725.27,329.94,721.73,330.78,718.8,327.63Z"/><path class="cls-1" d="M157.67,618.44c-1.78-.07-3.82-2.26-5.25.62.27-.74.54-1.49.82-2.23-1.43-.69-1.63-1.63-.62-2.84l-.05.29c5.18-6,.38-15.07,6.36-20.92,3.92,6.38-1.3,14,3.22,20.19Z"/><path class="cls-1" d="M726.07,429.71c2.54-7.67-7.64-10.23-6.33-18.85A39.72,39.72,0,0,1,731,422c2.35,1.74,4.94,3.38,2.46,6.85C731.43,432.72,728.94,432.77,726.07,429.71Z"/><path class="cls-1" d="M60.16,390.11c.67,1.86,1.35,3.71,2,5.57-3.91,1.79-7.81,4.08-11.76.09.73-1.77,1.48-3.54.13-5.35q-2.52-3.5-5-7l-.93-1.87,1.16-1.74C51.64,381.71,54.67,387.64,60.16,390.11Z"/><path class="cls-1" d="M72,426.21c2.74-5.92,7.19-10.29,12.56-13.82a2.47,2.47,0,0,1,.84,2c-.08.76-.2,1.13-.37,1.13,0,5.41-8.33,7.7-5.36,14.23-2.56,2.84-5,3-7.26-.34C71,428.51,70.9,427.43,72,426.21Z"/><path class="cls-1" d="M139.76,565.71c1.59,5.55.35,11.16.32,16.75.07,1.59-1.29,3.28.29,4.78l-5,5.3c-2.42.14-3.32-1.28-3.53-3.42,3-4.31,1.88-9.66,3.5-14.33-.23-3.49,1.24-6.38,3.22-9.09Z"/><path class="cls-1" d="M740.86,271.41q-2.65,7.29-5.3,14.59a10.22,10.22,0,0,0,.31,3.06c-2.69,3.31-4.9.2-7.29-.55-1.35-2.62.41-3.94,2.2-5.25,1.14-4.81,4.35-8.38,7.25-12.13A1.82,1.82,0,0,1,740.86,271.41Z"/><path class="cls-1" d="M687.39,200.92c8.64,1.13,2.44-10,9-10.53,1.54,3.23.1,6.81.38,10.29-1.14,1.76-1.53,3.49.15,5.16l-5,5.14a1.38,1.38,0,0,1-2.36-.33l.16.14a8.49,8.49,0,0,1-1.44-2.62,28.64,28.64,0,0,1-3.57-4.82l.09.15c-1.24-1.07-1.11-1.94.37-2.61C685.88,200.88,686.63,200.89,687.39,200.92Z"/><path class="cls-1" d="M641,166.78l4.71-4.4,3-2.85a1.45,1.45,0,0,1,2.34.08l4.72,2.59-.26-.21,7,10a1.29,1.29,0,0,1-2.14-.13C654.9,166.15,647.7,167.33,641,166.78Z"/><path class="cls-1" d="M184.63,128.26c-3.37-4-5.3-2.73-7.39-1.72-1-5.3-.66-10.12,4.2-14.2C185.87,116.41,184.21,121.3,184.63,128.26Z"/><path class="cls-1" d="M665.76,582.11c-.06-5-1.33-10.06.36-15.61,3.76,2.91,4.28,6.66,4.39,10.6,1.57,3-.11,7,2.69,9.65a4.07,4.07,0,0,1-.14,3.33,2.29,2.29,0,0,1-3-.32c-.78,0-1.57,0-2.36,0a4.55,4.55,0,0,1-1.06-2.4A12.6,12.6,0,0,0,665.76,582.11Z"/><path class="cls-1" d="M186.5,133c5.74,0,12-2.16,16.44,3.82-4,5.23-9.14,3.36-14,3.32-.49-3.2,2.16-2.32,2.94-3.53-1.6-1.42-4.66-.92-5.23-3.79Z"/><path class="cls-1" d="M619.08,132.77c-.79,2.8-3.46,2.82-5.63,3.47.86,1.53,3.45.69,3.31,3.63-5,.72-10,1.79-14.19-2.92,4.63-6.15,10.9-4,16.69-4Z"/><path class="cls-1" d="M730.78,283.26l-2.2,5.25-.18,4.9c-.94,1.1-1.84,1-2.69-.11l-2-2.49h0l-2.55-2.62c-.82-.75-1.66-1.48-2.51-2.19l.13.15c.08-.9.15-1.79.23-2.68.73,0,1.47,0,2.2.11.84-.9,1.15-2.36,2.66-2.55l4.28-4.83C729.16,278.51,727.2,281.92,730.78,283.26Z"/><path class="cls-1" d="M726.36,456l2.33-2.64,3.19,1.68c2.58-4.32.91-9.66,4-13.51.62-1.08,1.24-1.08,1.87,0l-2.07,17a4,4,0,0,1-2.46,3.31,1.93,1.93,0,0,1-2.42-.85C728.83,459.78,726.59,458.78,726.36,456Z"/><path class="cls-1" d="M160,162.38l4.73,4.35H152.59l-9.78,7.49,0,0c-.22-5.73,5.31-8,7.46-12.26l-.27.2,2.39-.28c1.65.13,3.31.21,5,.29Z"/><path class="cls-1" d="M672.18,589.64a3.31,3.31,0,0,0,.61-2.24c.05-1.51,1.32-1.93,2.34-2.57l-.21.16c1.26-1.4,2-3.36,4.27-3.61a2.69,2.69,0,0,1,2.51,1l-1.92,4.92.22-.09a26.41,26.41,0,0,0-2.66,2.63l.07-.33-10.1,12.24c-2,.33-3.36.15-2-2.36l5-7.15A28.22,28.22,0,0,0,672.18,589.64Z"/><path class="cls-1" d="M690,550.79l4.06-2.31c.64,1.77-.21,4.41,2.82,4.75a2.71,2.71,0,0,1,.32,3.55c-.39,4.38-3.61,7.33-5.53,10.94-2.09.36-3.48.11-2.22-2.5q1.29-3.51,2.59-7l.16.14C689.64,556.36,689.91,553.54,690,550.79Z"/><path class="cls-1" d="M624.3,125.78c-6.8-3.61-1.29-8-1.31-12.18,5.86,2.92,6.77,7.33,5,12.66-.06.19-.67.37-.91.28s-.59-.53-.88-.81c-1.13-1.2-1-2.67-.89-4.14C625.11,123,625.31,124.55,624.3,125.78Z"/><path class="cls-1" d="M611.89,122.79l-2.54.34-.89-.18-.87-.18.5.75a1.74,1.74,0,0,1-.94,1.51c-4.36-1.88-6.56-5.21-7-10.9,5.06.63,9.38,1.29,11.82,6.14A1.83,1.83,0,0,1,611.89,122.79Z"/><path class="cls-1" d="M198.55,121.94l-4.18-.87-.68-.54c1.84-4.89,6.35-5.35,11.26-6.69.92,5.76-2.11,8.76-6.33,11.15A3.07,3.07,0,0,1,198.55,121.94Z"/><path class="cls-1" d="M138.11,183.9c3,5.06,8.4.23,12.27,3.21-2.84,3.81-9.36,1.31-11.44,6.29-3.12,0-3.44-3.58-5.79-4.58a2.07,2.07,0,0,1-.94-1.79c.06-.71.17-1.07.34-1.07C134,184.08,135.52,182.62,138.11,183.9Z"/><path class="cls-1" d="M697.51,551.16c3-5.8,4.73-12.25,9-17.36a3.73,3.73,0,0,1,2.05,2.31c-2.42,6.13-4.57,12.42-9.14,17.42A3.49,3.49,0,0,1,697.51,551.16Z"/><path class="cls-1" d="M666.57,193.31c-2.34-4.6-8-2.91-11.36-5.83,3.44-4,9.58,1.84,12.42-3.6,2.74-1.3,3.83.74,5,2.51l-.07-.09,1.06,1.53-1.52,1.06C670.1,190.13,669.76,193.53,666.57,193.31Z"/><path class="cls-1" d="M109.47,201c-.35-3.43-.7-6.86-1.21-11.92,5.16,4.31,5.62,8.69,5.87,13.17.88,1.94,3.32,3,3.14,5.53a5,5,0,0,1-1.19,3l.12-.08c-.81,1.09-1.63,1.16-2.48,0l-2.54-2.59C109.11,206.15,110,203.42,109.47,201Z"/><path class="cls-1" d="M733.46,428.81,731,422c2.55-.71,2-3,2.48-4.81l4.45,7.19c1.55.22,1.88,1.73,2.79,2.63l2.55,0-.1-.17-4.59,7.75c-1.54-.07-1.68-1.59-2.49-2.42Z"/><path class="cls-1" d="M76.87,451.06c.66,1.84.09,4.36,2.79,5.08-.64,3.06-2.59,5.28-4.75,7.36-1.69,0-1.5,2.06-2.76,2.53-1.53-1.54-4.2-1.93-4.59-4.6,0-.95-.06-1.9-.08-2.85l2.56,0c.8-.94,1.06-2.43,2.62-2.63Z"/><path class="cls-1" d="M728.5,324.7,726,320.13l2.45-2.51H731l1.29-1.34,1.3,1.32,4.41-5c.59,1.76.06,4.12,2.59,4.84a6.38,6.38,0,0,1-4.3,5l-1.57,1.3-1.56-1.32Z"/><path class="cls-1" d="M718.84,524.28l2.71,2.57c-3.11,4.18-10,1.85-12.42,7.17a3.08,3.08,0,0,1-1.81-2.33q-.23-3.8-.46-7.59c.69,0,1.37,0,2,.09l2.44-.27c1.43.34,1.61,1.67,2.16,2.71Z"/><path class="cls-1" d="M133.12,589.77l2.24,2.77q2.31,3.54,4.63,7.08a3.29,3.29,0,0,1-2,2.31c-4.68-4.23-7.69-10.49-14.58-12.06a7.84,7.84,0,0,1-.11-2.11l2.66-.36,1.12,0a15.28,15.28,0,0,1,2.24.31,8.37,8.37,0,0,1,2.21.52A2.9,2.9,0,0,1,133.12,589.77Z"/><path class="cls-1" d="M675.65,176.86c.06-3.1.42-6.07,3.06-8.25,3.38,3.73-2,9.51,3.46,12.38-.51,1.85-1.14,3.59-3.49,3.82C676.22,182.71,678.55,178.77,675.65,176.86Z"/><path class="cls-1" d="M71.85,351.27c.19,1,.37,2,.55,2.94l.11-.14c-.68.51-.93,1-.74,1.59s.39.85.61.85c-.73,2.13-2.63,2.31-4.43,2.66-3.43-2.5-.16-6.83-2.61-9.59-.47-2.88-.66-5.68,1.9-7.81A4.72,4.72,0,0,1,69.68,344C70.39,346.45,69.15,349.45,71.85,351.27Z"/><path class="cls-1" d="M116.1,208.24l-2-6,4.16-4,2.4,2.48,1,.05.28.91-.73.55.93,0s.94.16.94.16l.28.9,2.7.19-2.69,4.81c-1.47,3.15-2.74.57-4.08-.15A2.37,2.37,0,0,1,116.1,208.24Z"/><path class="cls-1" d="M665.28,599.44l2,2.36-7.08,9.63c-1,1.88-2.07,3.78-4.55,4.07a5.39,5.39,0,0,1-2.95-1.12,2.27,2.27,0,0,1,.45-2.84l-.14.15c.89-.78,1.17-2.19,2.55-2.47Z"/><path class="cls-1" d="M723,502c-1.78,5.22-3,10.65-6.39,15.22a4.07,4.07,0,0,1-2.11-2.61c1.94-5.12,3-10.63,6.49-15.09A3.65,3.65,0,0,1,723,502Z"/><path class="cls-1" d="M733.32,354.21l.46-2.92c2-1.09,1.85-3.24,2.46-5a3.8,3.8,0,0,1,2.16-2.06c2.76,2.14,2.38,5,1.85,7.9-1.92,2,.54,5.5-2.49,7.08-1.84-.3-3.73-.51-4.44-2.67.63-.57.82-1.13.58-1.67s-.47-.79-.69-.79Z"/><path class="cls-1" d="M719.38,492.51a5.71,5.71,0,0,1,1.54.15c3.87-1,1.7-6.11,5.13-7.38.6-1.14,1.22-1.15,1.87,0,.62,3.31-4.8,7,.66,10l-.14-.19c-.83,2.27-3.13,1.62-4.72,2.38-.82,1.17-1.63,1.16-2.42,0Z"/><path class="cls-1" d="M77,482.92c-3.26-4.38-3.59-9.6-4.29-14.72.79-1.08,1.57-1.12,2.33,0C78.2,472.6,78,478,79.44,482.91,78.61,484,77.78,484,77,482.92Z"/><path class="cls-1" d="M597.63,639.53l2-3.06c5.78,4.57-.54,12.36,5,16.53,0,1.27-.32,2.31-1.77,2.59a2,2,0,0,1-2.82-.14C598.63,650.23,603.23,644.12,597.63,639.53Z"/><path class="cls-1" d="M65.06,317.63c1-.89,2-1.78,3-2.66l4,2.62q1.26-1.79,2.5,0l2.58-.07c.87.88,1.74,1.77,2.62,2.65-.92,1.18-1.83,2.35-2.55,3.29-2.93.11-2.92-2.65-4.56-3.46-1.11.9-1.52,2.61-3.24,2.81C67.43,321.52,65.43,320.26,65.06,317.63Z"/><path class="cls-1" d="M636.32,140.15l4.56-2.6c1.87,1.19.87,3.83,2.59,5.09a3.32,3.32,0,0,0,2.34-.18L641,147.57a1.61,1.61,0,0,1-2.52-.12l.18.16c-.82-.91-1.69-1.78-2.6-2.61l.17.18a26.69,26.69,0,0,0-2.6-2.61l.16.18c-.77-.46-1.06-1-.89-1.55s.39-.88.62-.88Z"/><path class="cls-1" d="M111.1,563.34c.78-.88,1.56-1.77,2.35-2.65q3.52,6.1,7.06,12.22a3.2,3.2,0,0,1-2,2.3C114.86,572,113.13,567.57,111.1,563.34Z"/><path class="cls-1" d="M138,601.93l2-2.31,9.68,12.12a2.19,2.19,0,0,1-3,.11A33.62,33.62,0,0,1,138,601.93Z"/><path class="cls-1" d="M740.72,427l-2.79-2.63.65-16.64,2.07-.19Q740.68,417.25,740.72,427Z"/><path class="cls-1" d="M62.77,409.76A8.27,8.27,0,0,0,65,410c2.49,5.3.89,10.86,1,16.32l-1.51,1.45-2-.76.12.06c-.69-2.51-1.39-5-2.08-7.53C63.89,416.82,62.07,413,62.77,409.76Z"/><path class="cls-1" d="M64.86,426.78q.06-8.41.13-16.83,1.08.07,2.16.24.39,7.1.77,14.18a5.17,5.17,0,0,1,.2,5,2.2,2.2,0,0,1-3,0h0a1.7,1.7,0,0,1-.7-1.7C64.52,427.08,64.68,426.78,64.86,426.78Z"/><path class="cls-1" d="M689.43,565.22l2.22,2.5a25,25,0,0,1-6.8,10.07,3.7,3.7,0,0,1-2.11-2.41Z"/><path class="cls-1" d="M65.34,349.58c3.28,2.54,1.32,6.51,2.61,9.59l-.78,9.23L64.88,366Q65.12,357.8,65.34,349.58Z"/><path class="cls-1" d="M631.45,142.19a24.41,24.41,0,0,1-10-8.83c-.71-.63-.94-1.26-.69-1.88s.49-.92.74-.92c4.05,2.29,7.59,5.12,9.78,9.36.64.47.87,1,.7,1.48S631.65,142.19,631.45,142.19Z"/><path class="cls-1" d="M726.7,480.45c1.76-4.77,1.39-10.18,4.32-14.61.64-1.07,1.29-1.12,1.93,0-1.11,5-.67,10.43-4.48,14.58Q727.62,482.12,726.7,480.45Z"/><path class="cls-1" d="M737.76,359.2c1-2.28,0-5.31,2.49-7.08a4.55,4.55,0,0,0,.65,1.86l.18,5q-.21,6-.43,12c-.66-.06-1.33-.11-2-.13Q738.22,365.07,737.76,359.2Z"/><path class="cls-1" d="M92.05,518.84l-2.34,2.82-4.62-12.28a4,4,0,0,1,2-2.52C90,510.34,91.05,514.58,92.05,518.84Z"/><path class="cls-1" d="M684.68,551c-3-4.14-2.61-8.73-1.91-13.52,3.65.77,4.08,3.4,4.23,6.22C684.09,545.46,685.24,548.5,684.68,551Z"/><path class="cls-1" d="M708.79,293.86c1.89-.7,4.43-.29,5.14-3,2.6-.11,4.49.9,6,3.81C715.73,296.24,712.2,296.67,708.79,293.86Z"/><path class="cls-1" d="M672.68,186.39l-5-2.51.17.24a11.75,11.75,0,0,0-2.63-2.59l.12.15v-5l.07-.09,7.43,4.91c.61-.11,1.23-.19,1.84-.24Z"/><path class="cls-1" d="M81.77,500.08l-7-4.93A7,7,0,0,1,77,495a6.66,6.66,0,0,1,1.71-1.76,7.56,7.56,0,0,1,3.61-.82,5.89,5.89,0,0,0,2.13.17,5.26,5.26,0,0,0,2.4-.09l-2.36,5C83.56,498.3,83.35,499.9,81.77,500.08Z"/><path class="cls-1" d="M138.11,183.9l-4.88,2.49c-.59.91-1.28,1-2.07.23,0-1.78-.07-3.57-.1-5.35a19,19,0,0,1,2,.26l4.74-2.45a1.4,1.4,0,0,1,2.19-.2l.48,2.78.08-.15a11.39,11.39,0,0,0-2.62,2.61Z"/><path class="cls-1" d="M128,207.88c3.32-2.76,7-2.36,10.91-1.44-.62,3.47-3.06,4.06-5.9,4.08C132,208.23,129.76,208.5,128,207.88Z"/><path class="cls-1" d="M113.72,210.75l2.48,0c-.73,5-2.76,9.35-7.19,12.24l-.31-.28C108.56,217.93,112.43,214.89,113.72,210.75Z"/><path class="cls-1" d="M174.41,140.15c1.92-4.55,5.82-7.09,9.76-9.6a1.71,1.71,0,0,1,.65,1.79c-.19.62-.39.92-.59.92-2.46,3.43-4.89,6.88-9.74,7Z"/><path class="cls-1" d="M696.79,227.71l-4.94-11.94.6-.48a16.75,16.75,0,0,1,6.95,12.37A1.89,1.89,0,0,1,696.79,227.71Z"/><path class="cls-1" d="M583,693.73c-1.87.74-4.47.19-5.16,3-2.86-.82-4.59-2.85-6.94-7.36C575.86,691.09,579.72,691.06,583,693.73Z"/><path class="cls-1" d="M125.94,587.4l-4.43-7.54a3.32,3.32,0,0,1,2-2.41l2.67,2.37c2.07,1.24,3.14,3.38,4.64,5.13l-.11-.14a2,2,0,0,1,.9,1.66c0,.66-.13,1-.29,1a4.39,4.39,0,0,1-2.84,1,4.67,4.67,0,0,1-2.75-1.26Z"/><path class="cls-1" d="M77.4,291.19a7.42,7.42,0,0,1,2.34-.35A19.68,19.68,0,0,1,77.06,303c-.66,1.06-1.33,1.11-2,0Z"/><path class="cls-1" d="M745.72,463.78c1.15,2.07,3.34,1.92,5.21,2.47-3.4,2.6-7,2.82-11.09,1.26C741.1,464.8,743.64,464.66,745.72,463.78Z"/><path class="cls-1" d="M81.77,500.08l2.72-2.62q1.32,4.69,2.63,9.4l-2,2.52c-1.12-2.34-2.23-4.69-3.35-7A4.8,4.8,0,0,0,81.77,500.08Z"/><path class="cls-1" d="M735.86,329.75c2.72,1.91,2.5,4.66,2.14,7.45-.84,1.06-1.61,1-2.32-.15-2.67-1.92-2.48-4.66-2.11-7.45C734.4,328.6,735.17,328.6,735.86,329.75Z"/><path class="cls-1" d="M69.59,451.31c-2.63-2-2.2-4.74-1.8-7.47.81-1.07,1.57-1,2.28.12,2.38,2,2.27,4.72,1.88,7.46C71.11,452.44,70.33,452.35,69.59,451.31Z"/><path class="cls-1" d="M74.89,528.92c-2.22-.6-4.46-1.17-5.7-4.11,4-1.47,7.43-1,10.61,1.65C78,527,75.83,526.71,74.89,528.92Z"/><path class="cls-1" d="M725.83,526.42c2.84-2.54,6.18-2.57,10.44-1.89-1,2.86-3,3.88-5.52,4.26C729.73,526.72,727.62,526.9,725.83,526.42Z"/><path class="cls-1" d="M716.73,256.83a3.44,3.44,0,0,1,1.58-.35,2.43,2.43,0,0,1-1.68,2.81c-1,.78-1.41,2.25-2.85,2.56-1.72-.37-3.73,0-4.84-1.9a2.13,2.13,0,0,1,.41-3.46l1.89.35,1.37-1.32,1.35,1.33Z"/><path class="cls-1" d="M714.49,514.65l2.11,2.61-3.09,9.37-2.16-2.71Q712.91,519.29,714.49,514.65Z"/><path class="cls-1" d="M696.79,227.71l2.61-.05-.09-.08c1.37,1.41,1,3.72,2.54,5l-.09-.15,1,1.53-1.43,1.14c-2.49,0-5.15.53-6.86-2.07,3.68-2-.25-3.43-.34-5.15Z"/><path class="cls-1" d="M653.18,611.54c0,.85,0,1.7,0,2.55.3.48.61,1,.92,1.43-.22.52-.45,1-.67,1.57a11.86,11.86,0,0,0-2.72,2l.15-.1-1.6,1-1.13-1.48c.39-3.17-.74-6.69,2.13-9.29Z"/><path class="cls-1" d="M184.5,628.56l4.31,2.4c.14,2.54-.61,4.61-3.63,6.16C183.46,634.34,184.11,631.43,184.5,628.56Z"/><path class="cls-1" d="M728.38,300.75c4.13,3,3,8,4.65,12-.65,1.13-1.3,1.07-1.94,0a17,17,0,0,1-2.53-12.15Z"/><path class="cls-1" d="M96.4,256.65l.24,2.89c-.84,2.2-2.9,2-4.66,2.35-1.47-.32-1.88-1.84-3-2.59a2.35,2.35,0,0,1-1.7-2.79,4.7,4.7,0,0,1,1.82.33,7.28,7.28,0,0,1,2.33,0l1.58-1.3,1.59,1.29A8.67,8.67,0,0,1,96.4,256.65Z"/><path class="cls-1" d="M81.85,349c1.38-2.7,4.05-2.81,6.5-4.09.94,4.17-1.59,5.4-3.72,6.88Z"/><path class="cls-1" d="M75.06,303.05c.67,0,1.33,0,2,0,.74,3.63-1.11,6.61-2.45,9.71-.65,1.09-1.31,1.09-2,0Q73.86,307.9,75.06,303.05Z"/><path class="cls-1" d="M679.17,582.29l-4.25,2.7c0-3.54-.42-7.16,2.25-10.1q1.08,2.48,2.18,5C681,580.78,681,581.59,679.17,582.29Z"/><path class="cls-1" d="M655.73,614.1l4.5-2.67.27,3.32-2.43,4.16-4.84.07a1.59,1.59,0,0,1-.59-1.71c.19-.57.38-.85.58-.85l-.13.17A13.27,13.27,0,0,1,655.73,614.1Z"/><path class="cls-1" d="M684.66,203.35c2.79.54,3.59,2.79,4.35,5.06l-1,.69-.83-.85c-1.65.06-3.55,2.51-4.89-.5a3.87,3.87,0,0,1-.1-1.69Z"/><path class="cls-1" d="M225.32,679.89c2.86,1,5.79,1.93,7.45,4.82l.1-.15c-1.66,1.27-3.34,1.5-5.05.08l-5-2.3Z"/><path class="cls-1" d="M582.92,682.32l-5,2.29c-1.69,1.46-3.36,1.22-5-.06l.11.15c1.61-2.93,4.53-3.85,7.41-4.83Z"/><path class="cls-1" d="M106.14,256.56c2-2.26,4.5-2.6,8.16-1.55a7.06,7.06,0,0,1-5.57,4.18Z"/><path class="cls-1" d="M696.94,259.24a7,7,0,0,1-5.4-3.77c3.08-2.08,5.62-1.1,8,1.12Z"/><path class="cls-1" d="M672.15,188.89c.15-.86.31-1.73.46-2.59,3.9,1.06,5.43,4.27,6.89,7.55a1.31,1.31,0,0,1-2.16-.17C674.65,193.13,673.85,190.52,672.15,188.89Z"/><path class="cls-1" d="M50.27,349.48c-2.68-1.45-2.94-4.15-4.36-6.7,4.3-.78,5.7,1.6,7.16,3.88Z"/><path class="cls-1" d="M164.83,142.42l4.32-2.27,3,.15a1.81,1.81,0,0,1-.2,2.46l.15-.18a22.8,22.8,0,0,0-2.6,2.6l.16-.17a33.44,33.44,0,0,1-2.59,2.6l.18-.14a1.63,1.63,0,0,1-2.51.11C164.78,145.86,164.8,144.14,164.83,142.42Z"/><path class="cls-1" d="M72.05,329.44c.4,2.08.18,3.94-1.82,5.18-.76,1.11-1.6,1.17-2.51.18-.41-2.82-.45-5.55,2-7.59A4.6,4.6,0,0,1,72.05,329.44Z"/><path class="cls-1" d="M65.08,429.39a19.6,19.6,0,0,1,2.3,0,1.57,1.57,0,0,1,2.64,0l-.54,5.25a4,4,0,0,1-2.22,2.23C64.84,434.87,65,432.11,65.08,429.39Z"/><path class="cls-1" d="M50.55,390.42c1.41,1.15,2.81,2.31,5.11,4.21l-5.24,1.14-3-2.42Z"/><path class="cls-1" d="M55.13,310.46c-1.94-1.59-3.18-3.34-1.37-5.82,2.27,0,3.4,1.34,4,3.32Z"/><path class="cls-1" d="M86.92,446.37a3.9,3.9,0,0,1,4-3.29c1.76,2.47.54,4.22-1.38,5.81Z"/><path class="cls-1" d="M755.29,395.76l-5.19-1.18,5.07-4.15,3,2.85Z"/><path class="cls-1" d="M125.31,195.55c.8-3.05,2-5.79,5.42-6.72l-.07-.07c.61,3.74-1.66,5.86-4.34,7.76Z"/><path class="cls-1" d="M67.26,436.87l2.22-2.23q.28,4.65.59,9.32a17.24,17.24,0,0,1-2.28-.12C67.61,441.52,67.44,439.19,67.26,436.87Z"/><path class="cls-1" d="M747.88,307.82c.54-2.09,2-3,3.89-3.59,1.86,2.79.7,4.57-1.3,6.16Z"/><path class="cls-1" d="M67.72,334.8l2.51-.18c-.18,3.14-.37,6.28-.55,9.41l-2.44-2.26Z"/><path class="cls-1" d="M736.09,432.09l2.49,2.42-.85,7h-1.87Z"/><path class="cls-1" d="M52.8,359.18l2.47-2.64c1.84.7,3.39,1.63,3.35,4C56.16,362.3,54.38,361.19,52.8,359.18Z"/><path class="cls-1" d="M704.2,555.77l3,2.86a5.8,5.8,0,0,1-6.57,1.6C699.77,557.15,702.25,556.66,704.2,555.77Z"/><path class="cls-1" d="M679.17,582.29l.18-2.45,3.39-4.46,2.11,2.41-3.15,4.64Z"/><path class="cls-1" d="M735.68,337.05a7.51,7.51,0,0,1,2.32.15l.4,7-2.16,2.06C736.06,343.2,735.87,340.13,735.68,337.05Z"/><path class="cls-1" d="M77,482.92h2.49c.69,2.43,1.39,4.86,2.08,7.29a1.67,1.67,0,0,1-1.92,1.18A2.19,2.19,0,0,1,77.82,490Z"/><path class="cls-1" d="M123.35,203.39l-2.49,0,.14.13c-.1-.9-.2-1.8-.31-2.7l4.62-5.24a7.75,7.75,0,0,0,1,1Z"/><path class="cls-1" d="M685.12,200.89c-.12.87-.24,1.74-.37,2.61-3.73-1.05-5-3.72-4.89-7.35l.07-.07C682.87,196.38,683.4,199.28,685.12,200.89Z"/><path class="cls-1" d="M109.47,201c2.33,2,1.79,4.6,1.71,7.13a6.61,6.61,0,0,1-4.68-5Z"/><path class="cls-1" d="M750.47,385.73c-1.1,2.13-2.34,4.11-5,4.49-.07-.82-.13-1.64-.2-2.46.14-1.95.62-3.74,2.44-4.85Z"/><path class="cls-1" d="M98.43,558.71l3.06-2.89,5,2.42-.22-.17a1.8,1.8,0,0,1,.54,1.78c-.18.58-.37.88-.55.88l.22-.16C103.55,561,100.75,560.91,98.43,558.71Z"/><path class="cls-1" d="M123.49,577.45l-2,2.41-3-4.65,2-2.3Q122,575.17,123.49,577.45Z"/><path class="cls-1" d="M72.05,329.44l-2.29-2.23c-.12-1.46-.25-2.92-.37-4.38L72.63,320Z"/><path class="cls-1" d="M130.8,585c-2.84-.53-3.91-2.68-4.64-5.13l2.47-2.61C130.9,579.36,130.91,582.14,130.8,585Z"/><path class="cls-1" d="M57.76,322.5l2.66-2.58A5.49,5.49,0,0,1,63.83,324C60.94,326,59.3,324.43,57.76,322.5Z"/><path class="cls-1" d="M663,624.1c0,1.35,0,2.7.07,4L657,625.72C658.8,622.46,661,624.08,663,624.1Z"/><path class="cls-1" d="M232.27,662.93c-1.91-1.89-2.39-4-.88-6.33a3.72,3.72,0,0,1,3.73,3.72Z"/><path class="cls-1" d="M88.7,268.86c-1.35,2.5-.59,6.18-4.14,7.46l-.07-.06c-.26-2.78-.91-5.7,2.46-7.25C87.45,267.94,88,267.89,88.7,268.86Z"/><path class="cls-1" d="M637.9,643.59c3.62-.34,7.39-1.49,10.37,1.82C644.69,645.53,641.1,645.69,637.9,643.59Z"/><path class="cls-1" d="M719.1,271.35c-2.85-1.71-3.16-4.35-2.67-7.28l-.2.17c3.57,1.12,3,4.74,4.36,7.2Z"/><path class="cls-1" d="M563.34,684.77l2.77,2.52a5.24,5.24,0,0,1-6.07,2C558.92,686,561.58,685.71,563.34,684.77Z"/><path class="cls-1" d="M157.4,162.21c-1.84,3-3.45,2-5-.29l0,.2a11.54,11.54,0,0,0,2.61-2.61l-.18.14a1.66,1.66,0,0,1,2.53-.06Z"/><path class="cls-1" d="M120.54,555.77l2.89,0-3.35,4.2C118.29,557.75,118.89,556.62,120.54,555.77Z"/><path class="cls-1" d="M735.86,329.75h-1.15l-1.14-.16-.45-7.12,3.13,0Z"/><path class="cls-1" d="M69.59,451.31c.78.07,1.57.11,2.36.11.24,1.5.48,3,.71,4.49L70,458.54Z"/><path class="cls-1" d="M709.35,256.49c-.13,1.15-.27,2.31-.41,3.46l-5.09-2.8,2.79-2.75Z"/><path class="cls-1" d="M745.32,319.88c0,1.24,0,2.48,0,3.72-1.06,1.58-2.17,1.55-3.34.11C742.31,321.72,743.7,320.7,745.32,319.88Z"/><path class="cls-1" d="M140.37,587.24c-3.13-1.41-1.84-3.09-.29-4.78h2.66Z"/><path class="cls-1" d="M732.9,461l2.76-2.48c.78-.06,1.56-.1,2.34-.13l.16,2.76.17-.19a16.51,16.51,0,0,0-2.28,2.14c-.77.17-1.54.33-2.32.47-.86-.35-1.28-.85-1.23-1.49S732.68,461,732.9,461Z"/><path class="cls-1" d="M710.88,230.23l3-.15c-.63,1.74-1.5,3.24-3.66,3.37C708.81,232,709.14,231,710.88,230.23Z"/><path class="cls-1" d="M723.85,281l-2.66,2.55.09-7.35-.19.17C723.26,277.21,723.52,279.14,723.85,281Z"/><path class="cls-1" d="M643.67,623.9l2.66-2.39,1.52-1.07,1.36,1.26L645.78,626l-.32-.73-1.08-1.08Z"/><path class="cls-1" d="M70,429.39H67.38l.54-5c.64.06,1.27.1,1.91.12L72,426.21l.41,3.23C71.58,429.43,70.8,429.42,70,429.39Z"/><path class="cls-1" d="M106.3,521.63l.09,5.19c-.55,1.09-1.68,1.72-2.2.52C103.19,525,104.56,523.16,106.3,521.63Z"/><path class="cls-1" d="M91.79,230.14l2.74,0c1.61.69,2.32,1.65,1,3.26C93.31,233.38,92.4,231.93,91.79,230.14Z"/><path class="cls-1" d="M82.06,283.68l-.57-2.62c.64-1.82.62-4.06,3-4.8l.07.06q-.06,3.68-.13,7.33l.17-.15Z"/><path class="cls-1" d="M111.51,227.84l-2.82,4.79.23-.08a2,2,0,0,1-2.67,0l.1.12a2.62,2.62,0,0,1-1.12-2.46,5.39,5.39,0,0,1,1.21-2.59l-.15.14c.68-1.13,1.41-1.16,2.2-.1Z"/><path class="cls-1" d="M725.71,293.3l2.69.11q0,3.66,0,7.34l.18-.15C725.63,298.94,726.28,295.88,725.71,293.3Z"/><path class="cls-1" d="M77.82,490a10.76,10.76,0,0,1,2.12.09,3.66,3.66,0,0,1-.41,4.94L77,495c-.72-1.61-1.45-3.23-2.17-4.85Z"/><path class="cls-1" d="M106.23,230l.12,2.66-1,.11-1-.18q-1.34,2.08-2.66,0a2.59,2.59,0,0,1-2.11-2.8,11,11,0,0,1,1.71.35l2.7,0A1.46,1.46,0,0,1,106.23,230Z"/><path class="cls-1" d="M696.6,524.36l3.55-.27c1.49,1.08,2.09,2.3.63,3.91A5.22,5.22,0,0,1,696.6,524.36Z"/><path class="cls-1" d="M232.84,677.24c-2,0-4,.06-5-2.14l.18-3L232.7,675c.63.51.84,1,.64,1.57s-.4.8-.6.8Z"/><path class="cls-1" d="M75,468.23H73.82l-1.16,0a8.07,8.07,0,0,1-.51-2.17l.81-3.24,2,.71Z"/><path class="cls-1" d="M682.21,555.86l2.82-.09c1.6.8,2.31,1.86,1,3.55C683.9,559.12,682.85,557.73,682.21,555.86Z"/><path class="cls-1" d="M230.49,694.41c-.06-.86-.11-1.71-.17-2.56.8-1.43,1.71-2.56,3.57-1.32C233.76,692.71,232.32,693.73,230.49,694.41Z"/><path class="cls-1" d="M79.52,257.5c.14-1.17.27-2.34.4-3.52a4.82,4.82,0,0,1,2.09,5.3l.07-.07A1.93,1.93,0,0,1,79.52,257.5Z"/><path class="cls-1" d="M101.72,568.21c-.14-.8-.25-1.6-.31-2.4l4.06.26c0,.36.09.72.13,1.07Z"/><path class="cls-1" d="M714,256.85h-2.72c.1-1.64.2-3.28.29-4.93l-.19.18C713.52,253,713.81,254.87,714,256.85Z"/><path class="cls-1" d="M94.64,256.81H91.47c.33-2,.34-4.1,2.86-4.73l-.19-.16C94.31,253.56,94.48,255.18,94.64,256.81Z"/><path class="cls-1" d="M711.53,251.91c-3-.48-2.43-2.8-2.41-4.83l-.18.15c3,.53,2.53,2.78,2.4,4.86Z"/><path class="cls-1" d="M704.3,565.8a21.45,21.45,0,0,1-.31,2.41l-3.91-1.07.12-1.07Z"/><path class="cls-1" d="M735.87,289.06l-1.75-1.44,1.44-1.62,3,.21Z"/><path class="cls-1" d="M624.3,125.78c.09-1.08.17-2.15.27-3.34,2.27.49,1.58,2.07,1.66,3.29l-1-.07Z"/><path class="cls-1" d="M94.33,252.09c0-2-.76-4.4,2.43-4.79l-.19-.17c.06,2,.51,4.28-2.43,4.8Z"/><path class="cls-1" d="M708.57,480.9c-1.47-1.22-2.38-2.55-1-4.4l1.46,1.14C708.9,478.72,708.74,479.81,708.57,480.9Z"/><path class="cls-1" d="M162.71,135.56c.06-1.09.13-2.19.2-3.42,2.24.5,1.65,2,1.65,3.3A8.19,8.19,0,0,0,162.71,135.56Z"/><path class="cls-1" d="M706.58,242.31c3.18.49,2.52,2.83,2.36,4.92l.18-.15c-2.54-.73-2.66-2.69-2.48-4.82Z"/><path class="cls-1" d="M726.7,480.45c.59,0,1.18,0,1.77,0-.18,1.61-.36,3.22-.55,4.83-.62,0-1.25,0-1.87,0C726.26,483.67,726.48,482.06,726.7,480.45Z"/><path class="cls-1" d="M731.09,312.75H733c.17,1.62.34,3.23.52,4.84l-2.59,0C731,316,731,314.37,731.09,312.75Z"/><path class="cls-1" d="M665.76,582.11a5.59,5.59,0,0,1,1.86,5.08,1.37,1.37,0,0,1-2.3.13,2.62,2.62,0,0,1-.08-2C665.42,584.25,665.59,583.18,665.76,582.11Z"/><path class="cls-1" d="M96.76,247.3c.19-2-.88-4.53,2.47-4.89l-.19-.14c.06,2.07-.43,3.85-2.47,4.86Z"/><path class="cls-1" d="M706.64,242.26c-2.51-.78-2.64-2.74-2.42-4.87l-.07.06c3.06.49,2.59,2.75,2.43,4.86Z"/><path class="cls-1" d="M111.45,237.72a13.7,13.7,0,0,0-.2,2.12l-3.17-.57C108.65,236.92,110.15,237.59,111.45,237.72Z"/><path class="cls-1" d="M79.58,291l.42-4.85c.56-.86,1.14-.92,1.75,0C82.26,288.31,81.89,290.09,79.58,291Z"/><path class="cls-1" d="M70.07,286l1.46,1.65-1.69,1.52c-.91-1-1.83-1.93-2.74-2.89Z"/><path class="cls-1" d="M101.48,237.41c.06,2.05-.5,3.8-2.44,4.86l.19.14c.07-2-.89-4.49,2.43-4.86Z"/><path class="cls-1" d="M701.33,235.12c.14-.89.29-1.78.43-2.67,3,.62,2.52,2.89,2.39,5l.07-.06Z"/><path class="cls-1" d="M655.59,609.22a2.4,2.4,0,0,1-2.55,2.47c0-2.1.46-3.94,2.34-5.16Z"/><path class="cls-1" d="M101.62,232.55h2.66c-.27,2-.85,3.82-2.8,4.85l.18.14C101.65,235.89,101.63,234.22,101.62,232.55Z"/><path class="cls-1" d="M79.53,495c.13-1.65.27-3.29.4-4.94a8.52,8.52,0,0,0,1.59.12,5.62,5.62,0,0,1,.8,2.2Z"/><path class="cls-1" d="M179.15,150.23l3.23.26c-.69,2.18-2.1,1.47-3.31,1.33C179.08,151.29,179.11,150.76,179.15,150.23Z"/><path class="cls-1" d="M649.21,621.7l-2.88-.19,1.81-3,2.73.51A2.14,2.14,0,0,1,649.21,621.7Z"/><path class="cls-1" d="M592.31,655.47a11.27,11.27,0,0,1,2.08-.26v3.33C591.93,658.38,592.4,656.76,592.31,655.47Z"/><path class="cls-1" d="M721.3,497.44l2.42,0c-.25,1.53-.49,3.05-.73,4.58l-2-2.48A3.94,3.94,0,0,1,721.3,497.44Z"/><path class="cls-1" d="M697.51,551.16l2,2.37c-.76,1.09-1.53,2.17-2.29,3.25-.11-1.18-.21-2.36-.32-3.55A2.7,2.7,0,0,1,697.51,551.16Z"/><path class="cls-1" d="M89.43,315.2A3.51,3.51,0,0,1,93,313.32c1.25,1.07.43,1.54-.6,1.95Z"/><path class="cls-1" d="M701.85,232.6c-2.49-.84-2.45-3-2.54-5C702.06,228.3,702,230.44,701.85,232.6Z"/><path class="cls-1" d="M72.65,312.75h2c0,1.62,0,3.24-.07,4.86l-2.5,0C72.24,316,72.45,314.36,72.65,312.75Z"/><path class="cls-1" d="M719.1,271.35a12.41,12.41,0,0,0,1.49.09c.16,1.65.33,3.31.5,5l.19-.17C718.28,275.62,718.8,273.43,719.1,271.35Z"/><path class="cls-1" d="M125.8,181.12a2.41,2.41,0,0,1,.27-2.21c1.08.92,2,1.93,1.38,3.55C126,183.18,126,182,125.8,181.12Z"/><path class="cls-1" d="M696.9,205.84c-3.47-1.62-1.41-3.4-.15-5.16l.27,3.11A3.77,3.77,0,0,1,696.9,205.84Z"/><path class="cls-1" d="M590.24,650.47a4.8,4.8,0,0,1,2.08,5C590.23,654.38,589.91,652.56,590.24,650.47Z"/><path class="cls-1" d="M211.15,655.24c.77.13,1.55.23,2.33.29-.26,1-.53,2-.81,3.12C210.4,658.05,211,656.55,211.15,655.24Z"/><path class="cls-1" d="M720.64,380.81c-1.1-.68-1.54-1.66-.11-2.14s2.68.49,3.3,2Z"/><path class="cls-1" d="M626.62,151.81h-3.41c.6-2.31,2-1.8,3.33-1.62A12.56,12.56,0,0,1,626.62,151.81Z"/><path class="cls-1" d="M81.84,380.6c.69-1.43,1.85-2.53,3.37-1.88s.67,1.55-.4,2.08Z"/><path class="cls-1" d="M88.7,268.86A10.25,10.25,0,0,0,87,269c0-2-.55-4.37,2.54-4.77l-.2-.16C89.1,265.67,88.9,267.27,88.7,268.86Z"/><path class="cls-1" d="M707.32,531.69l1.81,2.33a3.28,3.28,0,0,1-.52,2.09l-2.05-2.31A3.2,3.2,0,0,1,707.32,531.69Z"/><path class="cls-1" d="M232.74,677.38a6.15,6.15,0,0,1,0-2.38c.1-1,.2-2.08.31-3.13C234.32,673.77,236.94,675.74,232.74,677.38Z"/><path class="cls-1" d="M718.52,461.13l3.54-.3a1.93,1.93,0,0,1,1.56,2.58h0A4.64,4.64,0,0,1,718.52,461.13Z"/><path class="cls-1" d="M83.39,460.85l3.73.25a4.89,4.89,0,0,1-5,2.43L82,463.4A1.92,1.92,0,0,1,83.39,460.85Z"/><path class="cls-1" d="M227.82,684.64l5.05-.08c-1,2.33-3,2.53-5.11,2.11A9.85,9.85,0,0,0,227.82,684.64Z"/><path class="cls-1" d="M732.9,461l.83,2.57a5.94,5.94,0,0,1-.78,2.23H731l-.24-4.82Z"/><path class="cls-1" d="M572.85,684.55l5,.06a11.84,11.84,0,0,0,.09,2.06C575.8,687.07,573.86,686.94,572.85,684.55Z"/><path class="cls-1" d="M242.64,688.87l2-1.74,1.1,1.74Z"/><path class="cls-1" d="M713.78,261.85l2.85-2.56-.4,4.95.2-.17C714.88,264.12,714.26,263.07,713.78,261.85Z"/><path class="cls-1" d="M89,259.3l3,2.59-2.69,2.19.2.16C89.33,262.59,89.17,261,89,259.3Z"/><path class="cls-1" d="M108.49,227.62h-1.1l-1.1.11c-.13-2.13-.26-4.26,2.42-5.05l.3.27C108.84,224.5,108.66,226.06,108.49,227.62Z"/><path class="cls-1" d="M689.51,210.65a10.41,10.41,0,0,1,2.36.33c.2,1.44.39,2.88.58,4.31l-.6.48C689.61,214.73,689.22,212.85,689.51,210.65Z"/><path class="cls-1" d="M725.74,253.9l.45,3.58a2,2,0,0,1-2.56,1.78l0,0A5,5,0,0,1,725.74,253.9Z"/><path class="cls-1" d="M643.39,152.41a2.13,2.13,0,0,1,2.41,2.44l.13-.13c-1.76.15-2.56-.66-2.44-2.41Z"/><path class="cls-1" d="M718.63,286l2.51,2.19C719.57,288.31,718.57,287.77,718.63,286Z"/><path class="cls-1" d="M87.24,286.44l-1.44,1.63c-.29-.64-.57-1.28-.85-1.91.59-1,1.26-1.07,2-.18Z"/><path class="cls-1" d="M159.78,154.73c.09,1.72-.67,2.59-2.45,2.42l.16.13a2.07,2.07,0,0,1,2.42-2.42Z"/><path class="cls-1" d="M645.8,154.85a2.16,2.16,0,0,1,2.43,2.43l.17-.15c-1.83.23-2.58-.65-2.47-2.41Z"/><path class="cls-1" d="M651,159.61a23,23,0,0,0-2.35-.07c-.07-.81-.15-1.6-.22-2.41l-.17.15A2.68,2.68,0,0,1,651,159.61Z"/><path class="cls-1" d="M155,159.51l-2.61,2.61A2.84,2.84,0,0,1,155,159.51Z"/><path class="cls-1" d="M665.32,587.32a8.43,8.43,0,0,0,2.3-.13l0,2.54Z"/><path class="cls-1" d="M672.18,589.64a2.52,2.52,0,0,1-1.95,2.65c-.07-.84-.14-1.68-.2-2.53Z"/><path class="cls-1" d="M660.31,171.82c.71.08,1.43.12,2.14.13l.36,2.35.13-.14C661.33,174.21,660.6,173.26,660.31,171.82Z"/><path class="cls-1" d="M142.81,174.22c-.09,1.57-.82,2.48-2.51,2.35l.2.18c-.07-1.64.61-2.56,2.35-2.49Z"/><path class="cls-1" d="M662.81,174.3c1.69-.14,2.4.8,2.55,2.35l-.07.07a2.17,2.17,0,0,1-2.35-2.55Z"/><path class="cls-1" d="M140,178.88a13.51,13.51,0,0,0-2.19.2c.34-1.43,1.05-2.43,2.71-2.33l-.2-.18A2.27,2.27,0,0,1,140,178.88Z"/><path class="cls-1" d="M106.25,232.51l2.67,0-.87,1.58Z"/><path class="cls-1" d="M146.67,611.85l3-.11a2.06,2.06,0,0,1,.87,2.1l-2.24.18C147.75,613.3,147.21,612.58,146.67,611.85Z"/><path class="cls-1" d="M131.16,186.62a14.41,14.41,0,0,0,2.07-.23c0,.81,0,1.62-.08,2.43l-2.49-.06.07.07A2.71,2.71,0,0,1,131.16,186.62Z"/><path class="cls-1" d="M87,286a10.6,10.6,0,0,1-2,.17c-.12-.88-.24-1.76-.35-2.65l-.17.15,2.58,0A11.69,11.69,0,0,1,87,286Z"/><path class="cls-1" d="M81.75,286.13c-.59,0-1.17,0-1.75,0a2.63,2.63,0,0,1,2.17-2.65Z"/><path class="cls-1" d="M152.62,614l.62,2.84-3-3.17Z"/><path class="cls-1" d="M677.34,193.68c.72.09,1.44.14,2.16.17a2.68,2.68,0,0,1,.43,2.23l-.07.07C678.19,196.17,677.57,195.13,677.34,193.68Z"/><path class="cls-1" d="M116.1,208.24h3.18l-3.2,2.55C116.08,209.94,116.09,209.09,116.1,208.24Z"/><path class="cls-1" d="M653.22,616.42c0,.85,0,1.71,0,2.56l-2.51.11C650.6,617.31,651.47,616.46,653.22,616.42Z"/><path class="cls-1" d="M687.22,208.25a12.16,12.16,0,0,0,1.8.16c.21.79.43,1.58.65,2.38C688,210.81,687.24,209.87,687.22,208.25Z"/><path class="cls-1" d="M736.05,463.14l2.28-2.14A2,2,0,0,1,736.05,463.14Z"/><path class="cls-1" d="M82.1,463.53c-.33.48-.65,1,.31-.47-1.39,1-.93.67-.46.34Z"/><path class="cls-1" d="M723.62,463.41c.42.37.84.73.08.08.67.74.3.33-.07-.09Z"/><path class="cls-1" d="M64.86,426.78c.07.87.14,1.74.22,2.61L62.56,427A17.68,17.68,0,0,0,64.86,426.78Z"/><path class="cls-1" d="M592.37,502.09c.44,1.22.13,1.88-1.3,1.77-.56-1.61.65-1.41,1.51-1.55Z"/><path class="cls-1" d="M733.21,354.07l1.69,1.15-1.58,1.31C733.28,355.71,733.24,354.89,733.21,354.07Z"/><path class="cls-1" d="M106.23,230l-1.15.16h-1.16c.21-1.47.79-2.57,2.52-2.54C106.37,228.38,106.31,229.18,106.23,230Z"/><path class="cls-1" d="M72.38,356.51l-1.57-1.34,1.7-1.1Z"/><path class="cls-1" d="M162.22,152.31c.09,1.72-.72,2.52-2.44,2.42l.13.13a2.09,2.09,0,0,1,2.42-2.45Z"/><path class="cls-1" d="M636.17,640.94l-.06,2.46-2.46-.25.16.17,0-2.61-.21.19Z"/><path class="cls-1" d="M633.65,643.15c-.32.36-.64.71-.53.6-.13.07.28-.18.69-.43Z"/><path class="cls-1" d="M194.37,121.07c-.3,1-.62,1.87-2,1.38-.62-1.33.36-1.6,1.27-1.92Z"/><path class="cls-1" d="M611.89,122.79c0-.84.07-1.68.1-2.51l1.55,2Z"/><path class="cls-1" d="M600,655.45l2.82.14a12.21,12.21,0,0,1-.79,2.27l.13-.12C600.2,658.16,599.84,657.06,600,655.45Z"/><path class="cls-1" d="M198.55,121.94c0,1,0,2,.07,3l-2.33-.58Z"/><path class="cls-1" d="M607.15,125l.3-2.71a6.72,6.72,0,0,1,2.08,1l-.18-.21C609.68,125,608.85,125.52,607.15,125Z"/><path class="cls-1" d="M619.2,130.45l-1.78-1c1.65-1.17,1.69-.06,1.67,1.14Z"/><path class="cls-1" d="M184.23,133.26l-.06-2.71c1.82-.19,2.28.94,2.33,2.44l.15-.18Z"/><path class="cls-1" d="M621.54,130.56c0,.93,0,1.86,0,2.8l-2.41-.59.18.18-.06-2.5-.11.13Z"/><path class="cls-1" d="M723.63,259.26c-.39.42-.77.84-.2.21-.66.54-.21.18.23-.18Z"/><path class="cls-1" d="M172,142.76c.07-.82.13-1.64.2-2.46a7.38,7.38,0,0,1,2.25-.14l.08.07C174.49,141.92,173.56,142.68,172,142.76Z"/><path class="cls-1" d="M631.45,142.19a11.54,11.54,0,0,0-.13-2.27c.73.11,1.46.24,2.18.39l.27,2.44Z"/><path class="cls-1" d="M169.51,145.18a3,3,0,0,1,2.6-2.6A2.37,2.37,0,0,1,169.51,145.18Z"/><path class="cls-1" d="M633.61,142.57a2.83,2.83,0,0,1,2.6,2.61A2.33,2.33,0,0,1,633.61,142.57Z"/><path class="cls-1" d="M167.08,147.61a2.91,2.91,0,0,1,2.59-2.6c-.08.85-.16,1.71-.25,2.56l.2-.21Z"/><path class="cls-1" d="M636,145a2.77,2.77,0,0,1,2.6,2.61C636.86,147.65,636.06,146.72,636,145Z"/><path class="cls-1" d="M164.75,147.58l2.51-.11c-.08,1.66-.89,2.52-2.6,2.41l.1.1A5.88,5.88,0,0,1,164.75,147.58Z"/><path class="cls-1" d="M638.46,147.45l2.52.11a7.56,7.56,0,0,1,0,2.42l.11-.11C639.31,150,638.5,149.15,638.46,147.45Z"/><path class="cls-1" d="M82,259.28l.42.34-.35-.41Z"/><path class="cls-1" d="M157.37,159.59l-2.53.06c.23-1.51,1-2.43,2.64-2.37l-.15-.13C157.35,158,157.36,158.78,157.37,159.59Z"/><path class="cls-1" d="M164.66,149.88q.14,2.56-2.43,2.43l.09.1a2.09,2.09,0,0,1,2.44-2.43Z"/><path class="cls-1" d="M641,150a2.13,2.13,0,0,1,2.44,2.43l.1-.1c-1.75.13-2.54-.7-2.43-2.43Z"/><path class="cls-1" d="M85,415.55c-.16-1.05-.32-2.1-.47-3.16l1.58-1.14C87.4,413.13,86.38,414.39,85,415.55Z"/><path class="cls-1" d="M631.34,633.4c-.18,1.76-1.37,2.4-2.91,2.64C629,634.76,629.55,633.38,631.34,633.4Z"/><path class="cls-1" d="M760.09,417.32l1-1.77c1.32,1.68,0,1.58-1.07,1.67Z"/><path class="cls-1" d="M677.34,589.89l2.66-2.63C679.93,589,679.25,590,677.34,589.89Z"/><path class="cls-1" d="M758.47,344.43l-3.58-.3c.78-1.31,1.87-2.41,3.43-2S759.4,343.6,758.47,344.43Z"/><path class="cls-1" d="M644.38,624.21a1.39,1.39,0,0,1,1.08,1.08l-1-.1Z"/><path class="cls-1" d="M607,662.54c-.29.58-.57,1.17-.9,1.84-1.3-1.71.44-1.34,1.07-1.68Z"/><path class="cls-1" d="M675.13,584.83l-2.34,2.57c-3.94-2.73-2.41-6.67-2.28-10.3C673.19,579,671.25,583.65,675.13,584.83Z"/><path class="cls-1" d="M45.73,379.84c-.08,1.2-.16,2.4-.23,3.61-1.3-.81-2.48-1.91-2.06-3.49S44.9,378.84,45.73,379.84Z"/><path class="cls-1" d="M130.38,587.5c.1-.9.21-1.79.31-2.69,4.19-2.11,1.49-7.42,4.64-10,.39,5.16.65,10.3-2.21,15l-1-.13-1,.07c-.91-.22-1.34-.62-1.28-1.2S130.14,587.5,130.38,587.5Z"/><path class="cls-1" d="M139.76,565.71h-1.21l.63-1.64C139.38,564.61,139.57,565.16,139.76,565.71Z"/><path class="cls-1" d="M740.86,271.41l-2.83-.28c.68-1.73,1.68-3.06,3.76-3.09C743.15,269.65,742.12,270.56,740.86,271.41Z"/><path class="cls-1" d="M175.15,640.33c.9-1.67,1.08-.37,1.41.34A4.55,4.55,0,0,1,175.15,640.33Z"/><path class="cls-1" d="M137.92,184.12l2.62-2.61C140.45,183.17,139.25,183.71,137.92,184.12Z"/><path class="cls-1" d="M665.17,181.53c1.57.16,2.25,1.22,2.63,2.59C666.43,183.76,665.14,183.31,665.17,181.53Z"/><path class="cls-1" d="M106.27,560.73c0-.89,0-1.77,0-2.66l1.63,1.37Z"/><path class="cls-1" d="M643.47,142.64c-2.1-1.07-2.24-3.13-2.59-5.09a3.88,3.88,0,0,1,.17-2.16c.78-1.15,1.43-1.14,1.94.2Z"/><path class="cls-1" d="M643,135.59a18,18,0,0,0-1.94-.2l.53-3.28C643.83,132.82,643,134.33,643,135.59Z"/><path class="cls-1" d="M723.69,290.82c.17-1.08.33-2.16.53-3.48,2.48,1.85.74,2.61-.54,3.47Z"/><path class="cls-1" d="M692.18,558.35l.39-.85-.55.71Z"/><path class="cls-1" d="M609.53,123.34a5.13,5.13,0,0,0-2.08-1Z"/><path class="cls-1" d="M125.71,587.21a1.12,1.12,0,0,0,1.55.29c1,.19,1.47.58,1.39,1.19s-.26,1.07-.52,1.07Z"/><path class="cls-1" d="M128.13,589.76a15.07,15.07,0,0,0-.87-2.26h3.12a21.69,21.69,0,0,1,.82,2.21Z"/><path class="cls-1" d="M120.86,203.36l-.52.72.66-.59Z"/><path class="cls-1" d="M655.73,614.1l-2.64,2.49c0-.83.06-1.66.1-2.5Z"/><polygon class="cls-1" points="299.48 695.95 294.98 705.51 300.32 714.64 289.83 713.32 282.8 721.22 280.81 710.83 271.13 706.58 280.39 701.49 281.44 690.97 289.15 698.2 299.48 695.95"/><polygon class="cls-1" points="356.18 709.31 351.69 718.88 357.02 728.01 346.53 726.69 339.5 734.58 337.51 724.2 327.83 719.95 337.09 714.85 338.14 704.33 345.85 711.56 356.18 709.31"/><polygon class="cls-1" points="413 713.16 410.37 723.4 417.31 731.37 406.76 732.03 401.33 741.1 397.44 731.27 387.13 728.9 395.28 722.16 394.35 711.63 403.27 717.3 413 713.16"/><polygon class="cls-1" points="467.95 705 468.38 715.57 477.32 721.2 467.41 724.87 464.82 735.12 458.26 726.83 447.71 727.53 453.57 718.73 449.65 708.92 459.83 711.77 467.95 705"/><polygon class="cls-1" points="523.67 689.62 525.17 700.08 534.64 704.78 525.14 709.44 523.6 719.89 516.24 712.31 505.82 714.07 510.76 704.73 505.86 695.36 516.28 697.17 523.67 689.62"/></g><g id="typo_blanc" data-name="typo blanc"><path class="cls-1" d="M208.81,287.8a10.49,10.49,0,0,1,19.8,4.82v19.9H263V282.67h8.41v70.47H263V320.52H228.61v32.62H220.1V292.62a1.89,1.89,0,0,0-1.95-1.95c-.92,0-1.33.31-2.15,1.95Z"/><path class="cls-1" d="M340,348.52a9.67,9.67,0,0,1-8.82,5.55,10.64,10.64,0,0,1-9.44-6.26c-3.49,4.31-8.82,6.26-14.57,6.26-14.87,0-22.46-12.83-22.46-26.68,0-15.69,9.75-27.28,25.44-27.28a106.1,106.1,0,0,1,12.1.92h6.57v42.88a2.36,2.36,0,0,0,2.26,2.36c1.13,0,1.74-.52,2.46-2.16Zm-19.08-40c-3.28-.21-8.31-.82-11.28-.82-11.08,0-16.82,8.51-16.82,19.49,0,9.95,4.72,19.28,14.46,19.28A13.24,13.24,0,0,0,319.64,339a12.47,12.47,0,0,0,1.23-5.74Z"/><path class="cls-1" d="M389.33,347.09a33.52,33.52,0,0,1-19.9,6.56c-15.59,0-23.7-10.46-23.7-25.44,0-15.59,8.72-28.41,22.88-28.41,10.15,0,19.9,6.77,19.07,17.44h-8.1C380.3,310.47,375.07,307,369,307c-10.67,0-15.29,11.28-15.29,21.33,0,11.29,5.75,17.85,15.7,17.85,5.95,0,10.87-2.36,16.1-5.22Z"/><path class="cls-1" d="M409.66,307.08a19,19,0,0,1,15-7.18c9.64,0,16.52,6.87,16.52,16.42,0,7.58-4.21,11.69-8.72,14.46L441,344.32c.31.51.82.62,1.64.62a1.84,1.84,0,0,0,2.05-2.06,7.83,7.83,0,0,0-.2-1.23l8.1.41c.42,5.44-4.3,11-10.05,11a10.3,10.3,0,0,1-8.51-4.82l-9.24-15.08H409.66V353h-7.79V278.36h7.79Zm10.57,18.47a17.8,17.8,0,0,0,7.39-1.23c3.89-1.65,5.95-4.42,5.95-8.42,0-4.92-3.39-8.61-9.13-8.61-6.26,0-11.29,4.51-13.44,12.2a25.14,25.14,0,0,0-1,6.06Z"/><path class="cls-1" d="M502.22,347.5a34.39,34.39,0,0,1-20.11,6.57c-16,0-23.49-11.19-23.49-25,0-13.13,6.67-28.92,23.09-28.92,10.15,0,18.87,6.46,18.87,16.51,0,10.67-9.44,16.62-23.08,16.62H467.14c1.43,8.62,6.15,13.23,15,13.23,6.26,0,11-2.25,16.31-5.13ZM477.5,325.65c9,0,15.18-2.46,15.18-9,0-6.26-5.13-9.23-10.67-9.23-10.36,0-14.87,10.67-15.28,18.26Z"/><path class="cls-1" d="M517,300.11a14.49,14.49,0,0,1,6,7.49,18,18,0,0,1,5-5,16.89,16.89,0,0,1,9.23-2.46c1.44,0,2.36.2,7,1v7.7a25.2,25.2,0,0,0-6.77-1c-3.59,0-5.74.72-7.7,2.36a21.32,21.32,0,0,0-5.33,6.57v36.41h-7.9V316.73c0-5.54-1.43-9.24-4.51-11.8Z"/><path class="cls-1" d="M551,341.24a25.08,25.08,0,0,0,15.08,5.23c5.64,0,10.56-2.15,10.56-7.79,0-3.8-1.85-5.75-6.26-7.8-8.3-4-20.2-5.33-20.2-17,0-8.72,7.38-13.74,15.79-13.74,4.52,0,10.88,1.43,14.06,3.79l-1.64,7.49a24.46,24.46,0,0,0-12.52-3.69c-5,0-7.59,2.36-7.59,5.64,0,6.77,11.29,7.8,19.08,12.51,4.62,2.88,7.39,7,7.39,12.73,0,11-9.75,15.49-19.19,15.49A28.49,28.49,0,0,1,547,347.4Z"/><path class="cls-1" d="M592.58,536.33l1.25-2.91c1.39,2.75.09,2.82-1.46,2.69Z"/><path class="cls-1" d="M234.82,439.85c12.93,0,20.21,9.85,20.21,22.26,0,15.49-11.18,22.57-23.18,22.57a74.85,74.85,0,0,1-8.72-.61v-7.8c3.69.2,6.56.41,8.3.41,9.24,0,15.39-3.8,15.39-14.46,0-10-5.43-14.16-13.44-14.47H221.49v62.58H213V447.75c-2.36.1-2.56.21-3.38,1.13-1,.92-1.34,1.74-1.13,3.79h-7.9c0-.41-.1-.82-.1-1.33a11.56,11.56,0,0,1,11.38-11.49Z"/><path class="cls-1" d="M315.69,484.37c0,15.7-11,26.88-26.06,26.88-15.29,0-25.85-11.59-25.85-26.77s10.56-27.19,26-27.19C304.92,457.29,315.69,468.88,315.69,484.37Zm-43.81,0c0,11.49,6.87,19.29,17.85,19.29,11.39,0,17.85-8.41,17.85-19.7,0-11.59-7-19.08-17.85-19.08C278.14,464.88,271.88,473.5,271.88,484.37Z"/><path class="cls-1" d="M329.25,456.78c4.11,3.08,9.44,6.87,9.44,13.64v22.36c0,7.49,3.19,10.77,9.95,10.77s10.47-3.07,15.19-9.23V458.11h7.79v43.08a2.45,2.45,0,0,0,2.36,2.36c1,0,1.64-.51,2.36-2.05L383,506a10.31,10.31,0,0,1-18.88-1.95,20.19,20.19,0,0,1-16,7c-10.26,0-16.62-5.13-17.23-15.59v-25c0-3.39-4.72-5.95-5.95-7.08Z"/><path class="cls-1" d="M400.69,501a2.39,2.39,0,0,0,2.36,2.36c1,0,1.64-.51,2.36-2.05l6.56,4.31a10.59,10.59,0,0,1-9.13,5.53A10.27,10.27,0,0,1,392.89,501V435.65h7.8Z"/><path class="cls-1" d="M461.22,504.68a34.34,34.34,0,0,1-20.1,6.57c-16,0-23.49-11.18-23.49-25,0-13.13,6.67-28.93,23.08-28.93,10.15,0,18.87,6.46,18.87,16.51,0,10.68-9.44,16.62-23.07,16.62H426.14c1.44,8.62,6.16,13.24,15,13.24,6.26,0,11-2.26,16.31-5.13Zm-24.71-21.85c9,0,15.18-2.46,15.18-9,0-6.25-5.13-9.22-10.67-9.22-10.36,0-14.88,10.66-15.29,18.25Z"/><path class="cls-1" d="M497.37,458.31v7.91h-15.8v28.62c0,5.74,1.23,8.82,5.84,8.82,3.9,0,7.08-1.85,8.93-6.46l6.15,4.51c-3.07,6-8.1,9.54-15.08,9.54-9.84,0-13.64-7-13.64-16.41v-49h7.8v12.51Z"/><path class="cls-1" d="M536.78,458.31v7.91H521v28.62c0,5.74,1.23,8.82,5.85,8.82,3.9,0,7.07-1.85,8.92-6.46l6.16,4.51c-3.08,6-8.11,9.54-15.08,9.54-9.85,0-13.65-7-13.65-16.41v-49H521v12.51Z"/><path class="cls-1" d="M593,504.68a34.38,34.38,0,0,1-20.1,6.57c-16,0-23.5-11.18-23.5-25,0-13.13,6.67-28.93,23.09-28.93,10.15,0,18.87,6.46,18.87,16.51,0,10.68-9.44,16.62-23.08,16.62H557.93c1.44,8.62,6.16,13.24,15,13.24,6.25,0,11-2.26,16.3-5.13Zm-24.72-21.85c9,0,15.18-2.46,15.18-9,0-6.25-5.13-9.22-10.67-9.22-10.36,0-14.87,10.66-15.28,18.25Z"/><path class="cls-1" d="M345.9,598.83A11.85,11.85,0,0,1,339,601.1c-5.53,0-8.11-3.86-8.11-8.64,0-4.54,2.3-10,8-10,3.5,0,6.51,2.23,6.51,5.7,0,3.69-3.25,5.74-8,5.74h-3.57c.49,3,2.12,4.57,5.17,4.57a11.35,11.35,0,0,0,5.63-1.77Zm-8.54-7.54c3.12,0,5.25-.85,5.25-3.12s-1.77-3.19-3.69-3.19c-3.57,0-5.13,3.69-5.27,6.31Z"/><path class="cls-1" d="M350.77,596.67a8.64,8.64,0,0,0,5.2,1.81c1.95,0,3.65-.74,3.65-2.69,0-1.31-.64-2-2.16-2.7-2.87-1.38-7-1.84-7-5.87,0-3,2.55-4.75,5.46-4.75a9.49,9.49,0,0,1,4.85,1.31l-.57,2.59a8.42,8.42,0,0,0-4.32-1.28c-1.73,0-2.62.81-2.62,1.95,0,2.34,3.9,2.69,6.59,4.32a4.94,4.94,0,0,1,2.55,4.39c0,3.79-3.37,5.35-6.62,5.35a9.84,9.84,0,0,1-6.42-2.3Z"/><path class="cls-1" d="M374.72,582.82v2.73h-5.46v9.88c0,2,.43,3.05,2,3.05a3.15,3.15,0,0,0,3.09-2.23l2.12,1.56a5.62,5.62,0,0,1-5.21,3.29c-3.4,0-4.71-2.41-4.71-5.67V578.5h2.69v4.32Z"/><path class="cls-1" d="M383.76,599.05a2,2,0,0,1-1.91,1.84,1.86,1.86,0,0,1,0-3.72A2,2,0,0,1,383.76,599.05Z"/><path class="cls-1" d="M399,582.79c1.2-3.69,3.79-5.71,7.72-5.71,4.43,0,7,2.56,7,6.45,0,5.21-4.28,7.16-8.15,10.34a9.62,9.62,0,0,0-3.36,4.11h12.65v2.8h-15.8v-.88c0-3.9,2.65-6.66,6.09-9.25,2.62-2,5.84-3.93,5.84-7.15,0-2.31-1.66-3.86-4.32-3.86a5.15,5.15,0,0,0-5.27,4.39Z"/><path class="cls-1" d="M437.3,589.23c0,6.31-3.57,11.87-9.7,11.87-6.31,0-9.74-5.81-9.74-12s3.5-12,9.74-12S437.3,583,437.3,589.23Zm-16.43-.1c0,4.82,2.34,9.28,6.8,9.28s6.69-4.64,6.69-9.32c0-4.92-2.33-9.21-6.73-9.21S420.87,584.31,420.87,589.13Z"/><path class="cls-1" d="M446.74,600.78V581.51a7.74,7.74,0,0,1-5.17,1.77l-.68-2.65c1.95.39,3.79-.89,7.94-3.69h.81v23.84Z"/><path class="cls-1" d="M459.78,600.78H456.7l8.22-20.37H453.51v-2.72l15.16-.18v.74Z"/></g></svg>