<svg id="logo_typo_noir" data-name="logo typo noir" xmlns="http://www.w3.org/2000/svg" viewBox="0 0 800 800"><defs><style>.cls-1{fill:#24c8c0;}.cls-2{fill:#23c8c0;}.cls-3{fill:#21c7c0;}.cls-4{fill:#1ec7bf;}.cls-5{fill:#1cc6be;}.cls-6{fill:#1fc7bf;}.cls-7{fill:#20c7bf;}.cls-8{fill:#1dc6bf;}.cls-9{fill:#1ec6bf;}.cls-10{fill:#1dc6be;}.cls-11{fill:#3ecfc8;}.cls-12{fill:#2acac2;}.cls-13{fill:#1bc6be;}.cls-14{fill:#22c7c0;}.cls-15{fill:#22c8c0;}.cls-16{fill:#3acec7;}.cls-17{fill:#27c9c1;}.cls-18{fill:#28c9c2;}.cls-19{fill:#25c8c1;}.cls-20{fill:#2ccac3;}.cls-21{fill:#36ccc5;}.cls-22{fill:#2ecbc3;}.cls-23{fill:#8fe2df;}.cls-24{fill:#56d4cf;}.cls-25{fill:#35ccc5;}.cls-26{fill:#26c8c1;}.cls-27{fill:#74dcd7;}.cls-28{fill:#31cbc4;}.cls-29{fill:#3fcfc8;}.cls-30{fill:#e3f7f6;}.cls-31{fill:#e8f9f8;}.cls-32{fill:#dff6f6;}.cls-33{fill:#d7f4f3;}.cls-34{fill:#e2f7f6;}.cls-35{fill:#f3fbfb;}.cls-36{fill:#dbf5f4;}.cls-37{fill:#e1f7f6;}.cls-38{fill:#dff6f5;}.cls-39{fill:#6bdad5;}.cls-40{fill:#2bcac3;}.cls-41{fill:#f1fbfa;}.cls-42{fill:#29c9c2;}.cls-43{fill:#b6ecea;}.cls-44{fill:#39cdc7;}.cls-45{fill:#5fd7d1;}.cls-46{fill:#3bcec7;}.cls-47{fill:#34ccc5;}.cls-48{fill:#41cfc9;}.cls-49{fill:#43d0c9;}.cls-50{fill:#ecf9f9;}.cls-51{fill:#59d5d0;}.cls-52{fill:#e9f9f8;}.cls-53{fill:#d6f4f3;}.cls-54{fill:#8ee2de;}.cls-55{fill:#90e3df;}.cls-56{fill:#9be6e2;}.cls-57{fill:#45d1c9;}.cls-58{fill:#4ad1cb;}.cls-59{fill:#b3ebe9;}.cls-60{fill:#b9edea;}.cls-61{fill:#46d1cb;}.cls-62{fill:#a9e9e6;}.cls-63{fill:#2ecac3;}.cls-64{fill:#56d5cf;}.cls-65{fill:#9ae5e2;}.cls-66{fill:#e0f7f6;}.cls-67{fill:#30cbc4;}.cls-68{fill:#58d5d0;}.cls-69{fill:#4fd3cd;}.cls-70{fill:#6edad5;}.cls-71{fill:#48d1cb;}.cls-72{fill:#51d3cd;}.cls-73{fill:#d1f3f1;}.cls-74{fill:#92e3e0;}.cls-75{fill:#76dcd8;}.cls-76{fill:#8ee2df;}.cls-77{fill:#80dfdb;}.cls-78{fill:#a8e9e6;}.cls-79{fill:#6fdbd6;}.cls-80{fill:#66d8d3;}.cls-81{fill:#70dbd6;}.cls-82{fill:#8ae1dd;}.cls-83{fill:#4bd2cb;}.cls-84{fill:#5dd6d0;}.cls-85{fill:#35ccc6;}.cls-86{fill:#98e5e2;}.cls-87{fill:#6adad4;}.cls-88{fill:#b4ece9;}.cls-89{fill:#c1eeed;}.cls-90{fill:#91e3df;}.cls-91{fill:#d1f3f2;}.cls-92{fill:#c1efed;}.cls-93{fill:#62d7d2;}.cls-94{fill:#53d4ce;}.cls-95{fill:#95e4e0;}.cls-96{fill:#b8edea;}.cls-97{fill:#52d4ce;}.cls-98{fill:#5cd6d1;}.cls-99{fill:#c4f0ee;}.cls-100{fill:#caf1f0;}.cls-101{fill:#adeae7;}.cls-102{fill:#aae9e7;}.cls-103{fill:#73dcd7;}.cls-104{fill:#c9f1ef;}.cls-105{fill:#a6e8e5;}.cls-106{fill:#84e0dc;}.cls-107{fill:#3ccfc7;}.cls-108{fill:#94e4e1;}.cls-109{fill:#86e1dc;}.cls-110{fill:#60d7d1;}.cls-111{fill:#23c8c1;}.cls-112{fill:#4dd2cc;}.cls-113{fill:#33ccc5;}.cls-114{fill:#97e5e1;}.cls-115{fill:#47d1ca;}.cls-116{fill:#2bcac2;}.cls-117{fill:#42d0c9;}.cls-118{fill:#5cd6d0;}.cls-119{fill:#5bd6d0;}.cls-120{fill:#44d1c9;}.cls-121{fill:#4cd3cc;}.cls-122{fill:#c8f1ef;}.cls-123{fill:#94e3e0;}.cls-124{fill:#94e4e0;}.cls-125{fill:#72dbd7;}.cls-126{fill:#4ed2cd;}.cls-127{fill:#5dd6d1;}.cls-128{fill:#b0eae8;}.cls-129{fill:#42d0ca;}.cls-130{fill:#80deda;}.cls-131{fill:#40d0c8;}.cls-132{fill:#aae9e6;}.cls-133{fill:#9ce6e2;}.cls-134{fill:#15c4bc;}.cls-135{fill:#bfeeec;}.cls-136{fill:#64d8d2;}.cls-137{fill:#a1e7e4;}.cls-138{fill:#5ed6d1;}.cls-139{fill:#daf5f4;}.cls-140{fill:#4bd1cc;}.cls-141{fill:#d4f3f2;}.cls-142{fill:#4fd4cd;}.cls-143{fill:#ccf2f0;}.cls-144{fill:#89e1dd;}.cls-145{fill:#55d4ce;}.cls-146{fill:#50d2cc;}.cls-147{fill:#b5ecea;}.cls-148{fill:#b5ece9;}.cls-149{fill:#6ddad5;}.cls-150{fill:#3acec6;}.cls-151{fill:#57d4cf;}.cls-152{fill:#82dfdb;}.cls-153{fill:#57d5cf;}.cls-154{fill:#1cc6c0;}.cls-155{fill:#bbedeb;}.cls-156{fill:#16c4bd;}.cls-157{fill:#63d8d2;}.cls-158{fill:#2dcac3;}.cls-159{fill:#27cac1;}.cls-160{fill:#4fd3cc;}.cls-161{fill:#4bd2cc;}.cls-162{fill:#7bddd9;}.cls-163{fill:#bceeeb;}.cls-164{fill:#c0efec;}.cls-165{fill:#4fd4ce;}.cls-166{fill:#21c8c0;}.cls-167{fill:#50d3cd;}.cls-168{fill:#65d8d3;}.cls-169{fill:#51d3ce;}.cls-170{fill:#5ad5cf;}.cls-171{fill:#34cdc6;}.cls-172{fill:#c6f0ee;}.cls-173{fill:#39cdc6;}.cls-174{fill:#37cdc6;}.cls-175{fill:#38cdc6;}.cls-176{fill:#3bcfc7;}.cls-177{fill:#5dd7d0;}.cls-178{fill:#45d0ca;}.cls-179{fill:#787878;}.cls-180{fill:#3ccec8;}.cls-181{fill:#24c7c1;}.cls-182{fill:#46d1c9;}.cls-183{fill:#3ecec8;}.cls-184{fill:#32ccc5;}.cls-185{fill:#35cdc6;}.cls-186{fill:#fefefe;}.cls-187{fill:#c3efed;}.cls-188{fill:#bceeec;}.cls-189{fill:#beeeec;}.cls-190{fill:#75ddd7;}.cls-191{fill:#effafa;}.cls-192{fill:#131313;}</style></defs><title>Plan de travail 1</title><path class="cls-1" d="M151.82,610.06H125.89c7,6.58,14.7,3.68,22.41,5.91-16.51,9.95-30,4.76-44.56-4.75,11.35-8.64,22.71-10.63,35.42-7.31,2.68.7,5.08,4.68,8.4,1.23.68-.92,1.42-1,2.24-.18l-.3-.18c.71,1.22,2.25,1.55,2.95,2.77.05.45.09.91.14,1.37Z"/><path class="cls-2" d="M151.84,605.41c-4.86-15.58-5.77-30.57,6.35-43.75,10.87,12.12,11.84,25.6,3.22,43-5.76-4.84-5.77-4.9-2.87-16.38C153.7,593.12,161.15,602.56,151.84,605.41Z"/><path class="cls-3" d="M570.47,668.29c-.42-6,3.72-11.54,1.3-18.32-5.3,4.72-4.84,11.65-7.71,17-5.81-15.08-1.07-28.6,14.43-39.8,6.26,15.27,4.75,28.91-6.28,41.24l-.91.67Z"/><path class="cls-4" d="M649.53,600.31c.49-5.68-.67-11.08-3.34-18.22-2.42,7.95-1.92,14.55-1.55,22-10.69-13.19-10.41-26.19.64-42.89,9.83,10.73,12.28,22.84,9.37,36.44a7.46,7.46,0,0,0-1,4.21,3,3,0,0,1-2.3,1.62C649.69,603,648.81,602.13,649.53,600.31Z"/><path class="cls-3" d="M69.09,415.61C72.57,399,83,389.3,99.93,384.75c-.83,16.41-6.88,28.62-21,36.15C75,416.35,75,416.35,82,407a27.4,27.4,0,0,1,2.24-2.72c-.53.07-1,.5-1.57,1.34-3.51,4.6-6.65,9.43-11.23,13C69.38,418.64,68.37,417.79,69.09,415.61Z"/><path class="cls-5" d="M202.87,649c-9.72-13-9.3-26.56-2.41-40.68,13.31,9.05,17.44,22.25,12.29,38.38-.93,1.08-1.72,1.05-2.34-.29a38.18,38.18,0,0,0-4.48-15.68c-3.42,6.88.16,12.7-1.2,18.17A1.05,1.05,0,0,1,202.87,649Z"/><path class="cls-6" d="M83.71,483.7c.5-18.62,6.9-28.44,23.68-35.56,2.29,16.4-1.07,30.05-17.87,41,3.4-8.21,7.28-13.84,7.91-20.65-6.16,4.75-6.16,4.75-11.32,15.07C85.35,484.67,84.55,484.65,83.71,483.7Z"/><path class="cls-7" d="M626.19,627l-1.12-18.45c-4.21,6.69-4.21,6.69-4.94,18.27-9.59-11.57-8.31-24.07,4.77-41.36,10.4,12.21,9.25,25.55,5.61,39.29l-.33,1.27a5.55,5.55,0,0,1-1.86,1.81A1.7,1.7,0,0,1,626.19,627Z"/><path class="cls-6" d="M742.53,418.05c4.28-16,17.41-24.76,35.47-23.39-4.34,15-12.88,25.44-30.81,29.16,3.62-7.06,10.81-9.12,12.07-15.47l.1.09c-7.24.28-11.1,6.63-16.93,9.44Z"/><path class="cls-8" d="M679.05,578.47c22.93-8,27-8,41.92.09-11.64,12.93-23.88,16.23-39.75,10.15,5.63-4.17,13.35-1.38,17.91-6.73-7.27-3.9-15.18,2.2-22.46-1.3,0,0,.45-1.06.44-1.06l.84-.79Z"/><path class="cls-4" d="M105.57,512.75c.48-4.29,3.27-8.24,1.94-13.29-7.21,4.23-5.6,13.74-11.71,18.16l.21.27C94.3,501,99.26,487.3,115.89,477.51c3.76,16.35,2.69,29.84-10.24,40.43A3.86,3.86,0,0,1,105.57,512.75Z"/><path class="cls-6" d="M62,418.14c-5.45-2.89-9.41-8.48-16.93-9.8,1.5,7.11,8.17,8.42,10.81,13.08C42.64,422.76,32.84,414,26,394c14.8-.65,25.53,5.4,33.86,16.64C62.77,412.51,64.29,414.79,62,418.14Z"/><path class="cls-7" d="M227,677.79c-5.28,1.32-10.52,2.72-15.57,6.6,6.76,2.65,12.35-.8,18.13-1.42.74.52,1,1.08.81,1.66s-.41.9-.64.9c-11.63,10.65-24.92,11.18-40.38,6,7.78-12.51,19.06-17.27,32.68-18,1.67,1.09,4,.23,5.49,1.81A1.81,1.81,0,0,1,227,677.79Z"/><path class="cls-5" d="M695.86,515.48C685,505,685.21,492.42,688.07,477.25c15.43,9.66,21.64,21.8,20.11,38.06-.73.94-1.41.91-2-.09-3.28-4.9-4-11.27-9.13-16-2,6.14,1.77,10.85,2.41,16A2.4,2.4,0,0,1,695.86,515.48Z"/><path class="cls-8" d="M718.65,483.64c-3.74-4.76-4.72-11.43-10.33-14.88-1.83.84-.67,2.12-.48,3.26.52,5.37,3.76,9.67,5.74,14.46-14.35-6.14-19.37-17.9-16.11-39.32,14.34,8.53,24.14,18.95,22.71,36.62Z"/><path class="cls-4" d="M727.84,486.39c8.94-14,20.59-18.84,37.79-15.55-3.79,14.74-15.91,23-34.11,22.41,4.16-5.28,11.71-5.43,14.4-11.41-7.09-2.5-11.67,5-18.21,4.36Z"/><path class="cls-4" d="M64.42,494c-12.41-3-21.21-10.37-27.93-23.29,15.29-3.27,27.16.75,37.6,10.52,1.8,1.39,4,2.58,2.29,5.46a6.91,6.91,0,0,1-3.25.94,13.66,13.66,0,0,1-7.31-3.42c3.31,3.45,7.94,3.95,8.58,8.44C71.23,495.84,67.77,494.49,64.42,494Z"/><path class="cls-4" d="M69.07,376.64c5.32-13.9,16.46-20.1,30.19-23,1.31,16-9.07,29.46-24.72,32.07,2.65-5.07,7.89-8.2,9.54-13.76-.87-1.9-2-.63-3-.21l-9.29,7.77C69.35,380,68.63,378.89,69.07,376.64Z"/><path class="cls-8" d="M66.82,452.55c-5.87-2.17-10.47-7.46-18.69-7.63C52.86,451.4,59,454.22,64.56,458c-16.42,1.72-28.89-7.48-33.91-25.29,15.66-1.58,27.72,3.67,36.09,17a1.9,1.9,0,0,1,.65,1.89Q67.12,452.55,66.82,452.55Z"/><path class="cls-6" d="M662.23,615.22c4.83-1,10.31.54,15-4.35-7-1.52-13.5-1.11-19.93-.84-1.4-2.68.26-3.57,2.43-4.16,14-6.06,27-3.86,40.77,4.61-12.23,9.38-24.07,14-38.24,8.79C660.76,617.94,660.67,616.6,662.23,615.22Z"/><path class="cls-6" d="M171.25,631.79c-3.94,7.2-12,2.38-17.36,6.46,4.31,5.35,11.18,1.34,16.28,3.86-12.18,9.15-23.08,8.76-40.16-1.76,12.21-11.82,26.18-13.1,41.44-8.38Z"/><path class="cls-9" d="M742,345.12c3.18-16.7,14.51-24.78,31-29.73-1.22,16.38-7.14,28.14-20.93,35.27-3.93-4.8-3.87-5.09,3.18-13.83a1.51,1.51,0,0,1,1.93-1.1c-1.88-.71-1.9,1.07-2.7,1.77-2.73,2.91-5,6.27-8,8.88C744.71,347.9,742.31,349.61,742,345.12Z"/><path class="cls-9" d="M717.78,452.25c-13.67-7.94-15.24-21.29-16.36-36.78,13.88,6.45,24.68,13.52,26.53,29,1,2.43-.31,2.84-2.32,2.63-3.07-3.06-4.67-7.58-9.59-9.49-1,6,3.72,9.61,5.28,14.31l-1.68,1.23Z"/><path class="cls-9" d="M732.58,345.33c-6.05-.76-9-7.93-16.34-7.78,2.79,6.07,7.89,9.35,12.41,13.45-14,1.23-25.1-9.52-29.25-28.68,14.75,1.39,26.7,6.36,33.64,20.09A2.37,2.37,0,0,1,732.58,345.33Z"/><path class="cls-8" d="M703.56,556.93c5.3-1.55,10.62-3,17-7.18H706.44c-2.78.91-3.39-.44-3-2.85,11.31-8.85,23.37-8.11,36.08-3.28-8.63,14.19-21.12,19.48-36.28,15.72-.79-.65-1-1.22-.65-1.72S703.25,556.93,703.56,556.93Z"/><path class="cls-6" d="M52.06,350.31c-14-6.49-19.16-18.51-20.91-32.88,16,.56,26.82,10.65,29.18,29.28q-4-4.45-8-8.93c-2.94-1-3.81,0-2.8,2.82l5,7.07C55.18,349.92,54.57,351,52.06,350.31Z"/><path class="cls-10" d="M122.65,581H104.11c5.3,6.16,12.89,3.78,19.54,7.85-17.05,7.06-29.21.56-40.94-8.93,12-9.63,24.85-9.88,39.83-1a1.26,1.26,0,0,1,.6,1.38C123,580.75,122.83,581,122.65,581Z"/><path class="cls-3" d="M193.09,658.37c-3.67,1.15-7.68,1.57-11,4.67,5.93,3,11.56-.34,17,.9-9.82,10.83-21.62,12-41.33,3.29,10.17-10.08,21.06-15.83,35.33-13.13C194.56,655.52,194.56,657,193.09,658.37Z"/><path class="cls-11" d="M626.19,627a4.47,4.47,0,0,1,1.5.17,14.53,14.53,0,0,0,2.91-2.63l-.09.21c5.57-1.41,7.37-7.65,12.43-9.72l1,.35.76.75.33,1L632.89,632l.21-.19c-10.17,5.8-18.48,13.84-26.71,22l-.17-.16,4.94.42a2.75,2.75,0,0,1,0,4.3H598.47L579.64,671a8,8,0,0,1-7.42,4.82l-6.85,2.59c-2.72,1.14-3.1-.29-2.76-2.51,3.1-2,6.06-4.22,7.86-7.61a4.87,4.87,0,0,1,1.74.1c11.17-4.37,20.56-11.41,29.23-19.53l-.13.13C611,643.19,621.09,637.93,626.19,627Z"/><path class="cls-4" d="M88.69,306.33c-4,.15-6.57,3.1-9.69,5-2.34.56-3.27-.26-2.61-2.65,8.28-12.77,20.42-17.08,35.31-16.87-6,17.83-15.37,25.67-31.59,26.39,3.14-5,9.65-6.25,11.5-11.79C90.68,304.54,89.68,305.47,88.69,306.33Z"/><path class="cls-8" d="M71.12,342.39C78,328.7,90,323.81,104.51,322.3,101,340.45,92.07,349.68,74.9,352.48l9-9.6c1.06-2.92,0-3.76-2.79-2.78l-9.44,5.24a2.36,2.36,0,0,1-.85-1.88C70.86,342.75,71,342.39,71.12,342.39Z"/><path class="cls-9" d="M83.36,518.09l-4.3-.5c-5.27-1.66-5.27-1.66-4.91,2.45L88,526.75c-18.54,3.73-30.05-4.31-40.17-18.27,14.76-4.71,27.34-3.49,38.34,6.94C86.61,517.77,86,519,83.36,518.09Z"/><path class="cls-9" d="M719.9,371.93c1.82,5.53,7,8.66,9.81,13.68-15-2.15-23.74-12.75-25.78-32.17,15.21,3.42,27.18,9.61,31.46,25.66q-1.32,1.86-2.93.24l-9.36-7.59C722,371.13,720.87,370.18,719.9,371.93Z"/><path class="cls-7" d="M611.16,658.38v-4.3c14-2.48,24.9,2.72,35.05,13.2-15,7.38-28.34,8.37-42.82-2.75,7-2,12.94,1.52,18.73-1.48C618.85,659.92,614.83,659.51,611.16,658.38Z"/><path class="cls-9" d="M119.8,546.89c.3-5.81,3.29-11.36,2-17.85-4.66,3.47-5.16,8.47-6.79,12.87-1.39,1.53-2.78,1.53-4.16,0-2.3-14.77,5-25.3,16-36,5.55,15.31,6.52,28.69-4.23,41A1.8,1.8,0,0,1,119.8,546.89Z"/><path class="cls-10" d="M725.1,517.54l-4.29.43c-2.67,1-3.19-.25-2.71-2.56,11-10.62,23.61-11.45,38.23-7-9.73,14.16-21.51,21.49-40.25,18.76L730,519.92C730.86,514,727.43,516.89,725.1,517.54Z"/><path class="cls-5" d="M231.53,654.06l.74,8.93a3,3,0,0,1,.12,3.16c-3.06,1.44-3.91-1-5.07-2.88-6.12-11.66-7-23.55-1.92-35.95,14.69,9.64,19.25,21.15,15.48,40.81-2.5-6.41-4.5-11.55-6.49-16.69C231.57,650.28,230.94,651.5,231.53,654.06Z"/><path class="cls-5" d="M101,559.33c-15.29,3.7-27.6-1.5-36.31-15.71,12.74-4.94,24.78-5.47,36.08,3.32.33,2.39-.23,3.84-3,2.89H84.91c5,4.56,10.61,5.34,15.77,7.1.92.43,1.27.92,1,1.49S101.26,559.33,101,559.33Z"/><path class="cls-6" d="M725.34,420.83c-14.41-7.19-20-19.6-21.19-35.78,13.74,3.44,23.51,10.39,28.6,23.22,1.5,2.37,1.25,4.3-1.41,5.63-4.62-.2-6.32-4.11-7.82-5.51C728.49,415.44,728.49,415.44,725.34,420.83Z"/><path class="cls-7" d="M582.19,673.44c13.59.43,24.25,6.14,32.88,17.74-14,5.23-26.36,5.28-38-3.36-.35-4.58,2.56-3.5,5.15-3l12.12.89c-6.38-5.39-11.93-6.34-17.14-8a1.83,1.83,0,0,1-.91-1.58c0-.65.1-1,.26-1C578.16,673.77,580.48,674.56,582.19,673.44Z"/><path class="cls-8" d="M718.06,318.75c-13.15-4.25-21.59-13-26.06-26.82,15.37-.46,27.53,3.93,35.73,16.81.74,2.19-.55,3.06-2.32,3.61a8.18,8.18,0,0,1-5.88-2.21c2.15,2.82,5.78,3.89,6.1,7.46C723.3,320.55,720.7,319.81,718.06,318.75Z"/><path class="cls-5" d="M183.76,619.69c-.72-3.48-.06-7.33-3.45-10.91-3.88,5.9-.66,12.38-2.22,18.08-4.23,1-2.84-3-4.05-4.65-5.92-13-3.17-24.82,5-37.58,9,12,14.09,23.41,9,37.45C185.38,623.54,184.77,621.24,183.76,619.69Z"/><path class="cls-5" d="M664.51,576.44c-10-13-10.56-25.59-1.49-41.47a41.76,41.76,0,0,1,13.41,31c-2.16,2.9.7,6.35-1,9.31a2.84,2.84,0,0,1-2.75,1.23c-3.25-1.73-3.81-5.13-5.06-8.07a9,9,0,0,1-.45-2.16c-.47,2.5.44,5.12-.6,7.58A6,6,0,0,1,664.51,576.44Z"/><path class="cls-10" d="M46.71,384.47c-12.54-5.5-17.4-16.12-20.34-30.23,16.3,3.17,28.36,9.08,33.24,24.82a2.29,2.29,0,0,1,.13,2.83c-7.12,1.18-9.07-6-13.86-8.57a4.52,4.52,0,0,1-1.81-1.89c.24,1.62,1.69,2.11,2.77,3,2.62,2.22,4.7,4.67,3.93,8.45C49.9,384.58,48.67,385.45,46.71,384.47Z"/><path class="cls-4" d="M637.16,634.72l-.92.15-.87-.34c-.71-.57-.93-1.13-.68-1.67s.5-.8.74-.8c14.39-6.28,26.54-1.42,38.34,7.18-13.34,11.44-27.07,12.36-40.27,2.81,5.64-1.92,12.12.76,17.72-3.64l-3.68-1.88C644.33,634.47,640.42,636.45,637.16,634.72Z"/><path class="cls-5" d="M82.65,452l6.1-12c1.23-3-.08-3.33-2.56-2.52l-7.26,9.77c-4.26.14-3.81-2.32-2.8-5.08,3.14-12.78,12.18-20.07,23.43-25.41,5,12.13.3,24.61-13.18,35.45l-1.93.91Z"/><path class="cls-5" d="M737.27,449.56c8.46-13.05,20.47-18.36,37.74-16.68-5.66,12-12,21.28-24.82,24.49-2.34.45-5.3,2.22-5.2-2.46,3.16-2.82,7.39-4.53,9.36-9.23-7.08-.86-11.2,5-16.93,6.63a1.85,1.85,0,0,1-.67-1.81C736.91,449.87,737.08,449.56,737.27,449.56Z"/><path class="cls-10" d="M689.25,541.91l-3-7.08c-6.67.56-3,4.42-2.31,7.3.11,1.59.23,3.17.35,4.76a1.71,1.71,0,0,1-2.82.1c-10.29-12.1-10.41-25.34-4.06-41.45,9.53,10.54,17.61,19.81,15.89,34.07C692.53,541.39,691.47,542.67,689.25,541.91Z"/><path class="cls-9" d="M64.32,308.75,57,299.09c-2.69-1.07-3.54-.23-2.59,2.49Q57,306.32,59.68,311c.48,2.27-.12,3.42-2.65,2.58-12.52-7.95-16.44-20-16.65-36.07,14.16,6,24.13,13.65,26.89,28.54C67.64,308.47,66.61,309.31,64.32,308.75Z"/><path class="cls-8" d="M86.27,274.81c8.77-12,21-13.87,34.64-12.13-5.73,15.68-15.09,22.1-33.51,22.69,4.22-5.5,12-5.92,15.09-12.23-6.11-1-10.5,3.76-16,4.42l-1.31-1.27Z"/><path class="cls-5" d="M747.14,298.94l-7.32,9.66c-4.23.18-3.76-2.15-2.6-4.85,3.64-13.18,12.75-20.75,26.54-25.9-.42,16.48-4.32,29.42-19.14,36.87a2.94,2.94,0,0,1,0-3.72l5.15-9.49C750.94,298.56,749.69,298.09,747.14,298.94Z"/><path class="cls-12" d="M66.36,277.4c-11.88-8.4-13.72-20.5-13.15-35.18,13.64,4.31,20.17,13.37,23.8,25.23.48,3.29,2.71,6.8-1.12,9.63-4.42,0-4.24-4.59-6.85-6.79,1.24,2.56,1.52,4.83.46,7.17A2.64,2.64,0,0,1,66.36,277.4Z"/><path class="cls-13" d="M127.89,568.33c-.81-13.15,3.75-24.11,13.89-34.38,6.37,14.07,8.85,26.76.22,39.63a2.26,2.26,0,0,1-3.11-.08c-2.86-4.17-1.52-8.72-1.18-13.15.06-.92,1.09-1.52.94-2.55-.77-.51-1-.21-.65,1-.95,2.52-.7,5.23-1.57,7.71-1.39,3.27-1.2,7.24-4.26,9.8a3,3,0,0,1-2.91-.39C127.21,573.65,129.07,570.72,127.89,568.33Z"/><path class="cls-13" d="M747,374c5.68-12.79,16.82-16.89,30.87-19.86-3,14.07-7.75,24.78-20.43,30.23-2,1.1-3.11.08-4-1.61-.67-2.54.54-4.58,1.86-6.68-2.14,1.05-4.12,2.37-6.61,1.78C747,377.12,745.81,376.09,747,374Z"/><path class="cls-7" d="M596.9,630.65q-1.64,7.85-3.25,15.69c-.55,1.24-1.24,1.32-2.07.25h0c-1.26-1.43-.89-3.54-2.07-5-2.11-13.84,2.64-25,13.5-34.59,6.25,12.84,8.75,24.85.86,37.12-7.81-2.8-1-10.29-4.66-14.43a1.92,1.92,0,0,0-1.08-.44C597.52,629.16,597.1,629.68,596.9,630.65Z"/><path class="cls-8" d="M718,277.28l-17.3-5.35c3.79,5.9,8.36,7.71,12.48,10.05.41,4.64-2.57,3.48-5.14,3-12.48-2.34-20-10.4-26.23-21.86,15.09-2.72,27,.3,36.42,11.48A1.82,1.82,0,0,1,718,277.28Z"/><path class="cls-5" d="M727.39,267.34c3-12,10.52-20,23.32-26.13.46,14.94-.6,27.4-12.93,36.13a2.51,2.51,0,0,1-3,.17c-1.87-4.58.81-8.16,2.58-11.85a4.62,4.62,0,0,1-.14-.83s-.17.89-.21,1c-2.64,3.37-2.85,8.86-8.54,9.31C725.42,272.88,726.43,270.11,727.39,267.34Z"/><path class="cls-14" d="M725,245c-.34-4.35,4-8.06,1.75-12.82-4.86,4.16-6.11,10.33-9.18,15.39-.33,1-.85,1.13-1.58.35-1.39-15.17,4.93-26.28,17.6-34.43,6.57,12.27,3.72,23.92-8.14,35.09A2.51,2.51,0,0,1,725,245Z"/><path class="cls-2" d="M86.58,247.64c-3.2-4.92-4.19-11.18-9.13-15.17-2.28,4.67,2.11,8.33,1.73,12.64a2.36,2.36,0,0,1-.39,3.51c-11.74-9-13.14-20.87-10.43-35.8,15.13,8.26,20.82,19.84,20,35.14C87.63,248.77,87,248.67,86.58,247.64Z"/><path class="cls-8" d="M693.74,224.17c-4.47-1.15-8.67-4.23-13.86-1.89,4,4.74,10,5,14.92,7.39-13.06,5.11-23.34,1.21-35.3-13.91,12.25-5.43,23.25-3.43,33.9,3.26C697.66,222.27,697.67,222.32,693.74,224.17Z"/><path class="cls-10" d="M110.77,219c10.41-6.66,21.42-8.05,33.2-4-7.33,13.76-18.33,19-33.46,16-.83-.56-1.07-1.06-.74-1.51a1.29,1.29,0,0,1,1-.62c4.93-1.23,9.81-2.56,13.52-6.73-5.94-2.38-10.82,2.38-16.29,1.64C106.67,220.85,109,220.07,110.77,219Z"/><path class="cls-15" d="M91.06,221.27C81.54,210.81,79.23,199,84.41,185.8c13.44,6.31,18,16.4,16.08,35.42-.76.78-1.34.71-1.71-.35-1.26-5.31-2.59-10.59-6.71-15.38-2.68,6,1.22,10.75,1.72,15.8A1.64,1.64,0,0,1,91.06,221.27Z"/><path class="cls-14" d="M95.67,247.77c9.59-10.6,21.38-12.84,35-9.74-7,14.95-16.33,20.22-34.86,19L108,250.31a4.17,4.17,0,0,0,1-2c-.9-1.7-2.21-1.29-3.55-.67l-9.51,3a2,2,0,0,1-.72-1.89C95.32,248.11,95.48,247.77,95.67,247.77Z"/><path class="cls-15" d="M710.14,221.35c.82-5.07,4.2-9.7,2.41-16-4.77,4-5.2,9.74-7.36,14.48-5.27-12.61-1.09-23.55,13.17-34.46,6.61,14.28,5.51,21.82-5.22,35.83A2,2,0,0,1,710.14,221.35Z"/><path class="cls-3" d="M696.2,250.37,707,256.26c-15.35,2.57-23.15-1.39-34.65-17.78,12.85-3.31,23.93-2.29,33.51,7,.68,2.55-.21,3.51-2.79,2.75l-4.31-.56a2.65,2.65,0,0,0-3.35.2C694.79,248.68,695.74,249.49,696.2,250.37Z"/><path class="cls-16" d="M193.09,658.37V654.1l4.46-1.12c-8.4-7.28-16.23-14.08-24.06-20.89l.81-1.07a5.47,5.47,0,0,1,2.6-.58c.83.36,1.64.75,2.43,1.18,7.65,6,14.23,13.55,23.54,17.33a6.82,6.82,0,0,1,1.86-.1c4.94,9,14.13,12.62,22.41,17.37,1.78.43,3.64.65,5,2.14l11.75,9.89a2.78,2.78,0,0,1-1.94,1.75L232,675.83a10,10,0,0,1-7.45-4.81l-19-12.65Z"/><path class="cls-17" d="M105.77,194.3C98.94,184,99,173.23,103.9,161.42c9.59,7.3,13.9,16.51,13.66,28-1.25,2.15-.24,6.52-5.07,5.16-3.16-3-.82-7.78-3.58-11.07-.44-1.41-2.23.77-.8,0,.52-.27.76,0,1.06.57a10.66,10.66,0,0,1,.65,8.12C108.93,193.82,107.9,195.15,105.77,194.3Z"/><path class="cls-18" d="M686.65,192.05c-1-12,3.25-21.78,12-30,7.71,12.15,7,21.78-2.32,32.86a6.35,6.35,0,0,1-2.1-2.78c-1-3.11.58-6.17.25-9.8.1-1.08-2,.17-.41,0,.43,0,.7.34.48,1.08-1.1,3.65.09,8-3.1,10.86C688.8,195.32,687.59,194,686.65,192.05Z"/><path class="cls-19" d="M681.59,198.87l-15.27-1.49A9.75,9.75,0,0,0,673,202c2.29.61,4.47,1.62,7.07,2.6-13,4.46-19.52,2.46-32-10,12.08-6.62,23-5.7,33.47,2.56.63.34.85.71.67,1.09S681.79,198.87,681.59,198.87Z"/><path class="cls-19" d="M125.32,194.7c9.81-5.38,19.71-6,30.71-.52-8.49,10.84-18.72,14.64-32.12,10.54l8.33-3.07c1.08-6.12-2.76-2.88-5-2.65l-4.59.51C121.22,196.62,123.52,195.8,125.32,194.7Z"/><path class="cls-20" d="M139.72,172.79c9.64-2.54,19.22-4.46,28.85,2.41-8.51,10.16-19,11-30.37,9.32.72-2.88,1.93-4.21,5.43-5.78-1.92.22-3.59.75-5.21-.12a4.78,4.78,0,0,1-1.86-2.59,4.13,4.13,0,0,1,1.57-2.77Z"/><path class="cls-12" d="M665.83,184.43c-11.16,2-21.32.48-30.1-8.59,9.11-7.92,19-5.46,28.83-3l1.65.58a3.85,3.85,0,0,1,1.4,3c-.28.49-.56,1-.82,1.48-2,1.76-4.21,1.4-5.94,1,1.33,1.6,5.43.6,6.23,4.19a1.11,1.11,0,0,1-.22.89A3.77,3.77,0,0,1,665.83,184.43Z"/><path class="cls-17" d="M672.05,172.67c-4-11.88-.69-21.86,8.08-31.49,7.29,10.7,6,20.74,1.3,30.94-6,1.66-1.75-5.56-5.25-6.05a7.66,7.66,0,0,1-1.27,1.91c-.33,1.48-.67,3-1,4.45C673.42,173.53,672.79,173.56,672.05,172.67Z"/><path class="cls-8" d="M125.06,172.24c-8-9.83-8.36-17.38-1-30.28,9.12,8.64,11.3,18.94,8.28,30.69-.78.82-1.44.69-2-.26-.85-4.54-1-9.32-5-13.84V170c.56.56.7,1.08.44,1.55S125.28,172.24,125.06,172.24Z"/><path class="cls-21" d="M655,153.32c-3.77-10.71-2.9-20.47,6-29.41,6.09,9.47,8.6,18.31,1.22,28-3.48-2.39-.35-6.53-3.26-8.63-3.28,2.45.82,8.13-4.2,9.81Z"/><path class="cls-22" d="M149.57,153.12c-5-1.75-.87-7.58-4.39-10.07-4.65,1.71-.45,5.72-2.18,8.13-7.56-8.67-7.63-12-.52-26.16,9.2,8,10.1,11.74,6.82,28.31Z"/><path class="cls-23" d="M59.42,381.23a3,3,0,0,1,.19-2.17c5.59-6.46-.8-15.4,4.53-21.91a4.66,4.66,0,0,1,2.3,2.37c1.74,5.57-2.33,12,2.63,17.12l2.74,2.85c-7.33,5.91-4.17,14.41-5.4,21.83a3.48,3.48,0,0,1-2.34,1.11,2.93,2.93,0,0,1-2-1.55q-.28-7-.58-14.08C59.54,385.39,57.79,383.93,59.42,381.23Z"/><path class="cls-24" d="M110.89,541.89l4.16,0c.63,3.63-.66,6.81-2.34,9.9-.64,1-.84,2.42-2.35,2.65-1.59-.83-3.88-.49-4.61-2.76l.18-1,.94-.19-.94-.22s-.17-1-.17-1c-4-8.56-8-17.13-11.74-25.24l-10.66-6,2.76-2.67A3.1,3.1,0,0,0,89,512.78c.73-1,.88-2.44,2.33-2.82l4.7,7.93-.21-.27A143,143,0,0,0,107.9,543C110.23,547,110.17,543,110.89,541.89Z"/><path class="cls-25" d="M162,126.68c-.26,2.34-.52,4.67-.91,8.2-6.86-9.83-3.55-17.56,1.47-26,7.93,6.63,6.59,14.62,5.89,22.45-.72,2.13-1.63,3.91-4.33,2.26l-.27-7c-1.17-1.17-1-2.63-.89-4.09C162.66,123.89,162.83,125.4,162,126.68Z"/><path class="cls-26" d="M159.28,153.5c7.63-1.22,15.13-1.75,22.35,4.37-7.92,7.49-16.1,9.59-26.24,5.42,2.63-4,6.65-1.51,9.13-3.58a1.17,1.17,0,0,0,.31-1c-.12-.34-.54-.58-.83-.86C162.87,155.92,157.94,158.11,159.28,153.5Z"/><path class="cls-1" d="M640.22,157.9c.48,5.33,6.67.91,8.29,5.43-9.54,4.57-17.55,1.62-26.14-5,6.94-6.7,14.71-5.94,22.57-4.85C646.31,158.12,641.3,155.91,640.22,157.9Z"/><path class="cls-27" d="M732.46,379.34l2.93-.24c4.31-5.16.8-11.49,2.53-17,.73-1,1.4-1,2,.13,5,4.6-1.24,12.33,4.61,16.7a4.13,4.13,0,0,1,1.54,2.72c-.08,2.47-1.55,3.94-3.61,5-.56,4.08-.06,8.38-2.55,12.06-.6,1-1.3,1.06-2.07.18C737.49,391.93,738.23,384.74,732.46,379.34Z"/><path class="cls-18" d="M178.41,141.35c-2.94-1.74-7,.22-9.53-2.86l-.2.2c9.37-3.47,18.43-4.51,27.28,3.2-7.91,5.74-15.34,8.29-23.92,3.32,1.51-2.72,4.27-1.45,6.3-2.26,1.31-.74,2.82-.57,4.2-.94A4.84,4.84,0,0,1,178.41,141.35Z"/><path class="cls-19" d="M625.88,142.93l7.57,1.34c-10.1,6.11-17.32,3.1-25.22-2.43,7.68-5.8,14.84-8.12,24.8-2.63l-7.23,2.11a4.11,4.11,0,0,1-4,.57C623.09,142.41,624.6,142.21,625.88,142.93Z"/><path class="cls-28" d="M635.59,131.28c-.81-7.65-1.3-15.22,5.22-22,7,7.5,7.43,15.56,4.26,24.34a2.09,2.09,0,0,1-2.79.58c-1.62-1.81-1.19-3.9-.81-6-.07-1.15.38-2.37-.45-3.45a3.69,3.69,0,0,1,.4,2.06,6.91,6.91,0,0,1-.71,2.82C639.35,131.27,637.82,132.37,635.59,131.28Z"/><path class="cls-29" d="M179.33,631.62l-3.51.17-.54-.83-.86.49-.93.64a5,5,0,0,1-2.24-.3l.2.18-19.63-21.91-.13.12a4,4,0,0,1,5.25-.62c5.11,5,8.12,12.86,17.1,12.65l4.05,4.65Z"/><path class="cls-30" d="M69.33,277.12c-1.29-4.94-5.21-9.06-4.66-15.24,6.23,2.65,7.1,9.11,10.77,13.29,2.35-2.25.79-5.23,1.57-7.72,1.25,1.58,2.5,3.15,3.74,4.73q2.39.85.58,2.62l.1-.15a4.76,4.76,0,0,0-1.34,3.7,5.37,5.37,0,0,1-1.25,3.8L79,282a1.38,1.38,0,0,1-2.35.35c-1.74-3.58-5.83,1.63-7.56-2A9.14,9.14,0,0,0,69.33,277.12Z"/><path class="cls-31" d="M64.42,494l7.75-.75c-3.63-5.52-11.41-5.29-14.11-11.5,6.46-1.95,10.81,2.63,15.92,4.5,2.59,1.66,6.72.6,8,4.54a2.09,2.09,0,0,1-1,2.65C75.49,494.11,70.11,498.64,64.42,494Z"/><path class="cls-32" d="M742.46,386.58c.76-1.74,1.51-3.49,2.27-5.23,1.47-1.73,2.78-3.62,5-4.5,3.77-1.83,6.28-5.93,11.23-6.35,0,5.21-4.73,7.29-6.54,11.05-1.35,1.81-.6,3.57.13,5.33C750.42,391,746.45,388.47,742.46,386.58Z"/><path class="cls-33" d="M742,345.12c6.33-.48,7-8,12.18-9.86a2.41,2.41,0,0,1,3.58.29c.07,5.78-9,8.11-5.71,15.11-4.11,4.79-7.75-1-11.67-.51-1.9-1.62-1.67-3.31-.18-5C740.77,345.09,741.37,345.1,742,345.12Z"/><path class="cls-34" d="M718.06,318.75l5.66-.53c-3.65-5.27-10.21-7-13-13.49,6.21.13,10.25,3.7,14.58,6.52,1.75,1,3.61,2,2.48,4.57.28,1.46.57,2.91.88,4.5C724.54,321.06,721,321.91,718.06,318.75Z"/><path class="cls-35" d="M156.94,609.56c-1.79-.07-3.82-2.26-5.25.62l.81-2.23q-2.13-1-.62-2.84l0,.3c5.17-6,.38-15.07,6.35-20.93,3.92,6.39-1.3,14,3.22,20.2Z"/><path class="cls-36" d="M725.34,420.83c2.53-7.66-7.64-10.23-6.34-18.85a39.72,39.72,0,0,1,11.26,11.1c2.35,1.74,5,3.38,2.46,6.86C730.7,423.85,728.2,423.89,725.34,420.83Z"/><path class="cls-37" d="M59.42,381.23c.68,1.86,1.35,3.72,2,5.57-3.91,1.79-7.82,4.08-11.77.09.73-1.77,1.48-3.53.14-5.35l-5.06-7-.93-1.87L45,371C50.91,372.83,53.93,378.76,59.42,381.23Z"/><path class="cls-38" d="M71.22,417.33C74,411.41,78.41,407,83.78,403.52a2.45,2.45,0,0,1,.84,2c-.07.76-.2,1.14-.37,1.14,0,5.4-8.33,7.69-5.36,14.22-2.56,2.85-5,3-7.26-.34C70.3,419.63,70.16,418.56,71.22,417.33Z"/><path class="cls-36" d="M139,556.83c1.59,5.56.36,11.16.32,16.75.07,1.6-1.29,3.28.29,4.79l-5,5.29c-2.41.14-3.32-1.28-3.52-3.42,3.05-4.31,1.87-9.66,3.49-14.33-.23-3.49,1.25-6.38,3.22-9.09Z"/><path class="cls-34" d="M740.12,262.53q-2.64,7.29-5.3,14.59a10.48,10.48,0,0,0,.31,3.06c-2.69,3.31-4.9.2-7.29-.55-1.35-2.62.41-3.94,2.2-5.25,1.14-4.8,4.35-8.37,7.25-12.13A1.82,1.82,0,0,1,740.12,262.53Z"/><path class="cls-30" d="M686.65,192.05c8.65,1.13,2.44-10,9-10.54,1.54,3.24.1,6.81.38,10.3-1.14,1.75-1.53,3.48.16,5.15l-5,5.14a1.38,1.38,0,0,1-2.36-.32l.16.13a8.24,8.24,0,0,1-1.44-2.61,28.63,28.63,0,0,1-3.58-4.83l.1.15q-1.86-1.6.37-2.61C685.14,192,685.9,192,686.65,192.05Z"/><path class="cls-39" d="M640.22,157.9l4.72-4.4,2.95-2.84a1.46,1.46,0,0,1,2.35.07l4.71,2.59-.26-.21,7,10a1.29,1.29,0,0,1-2.14-.12C654.16,157.28,647,158.45,640.22,157.9Z"/><path class="cls-40" d="M183.89,119.38c-3.37-4-5.29-2.72-7.39-1.71-.95-5.31-.66-10.13,4.2-14.2C185.13,107.53,183.47,112.42,183.89,119.38Z"/><path class="cls-41" d="M665,573.23c-.06-5-1.33-10.06.37-15.6,3.75,2.91,4.28,6.66,4.38,10.59,1.57,3-.11,7,2.7,9.65a4.11,4.11,0,0,1-.15,3.33,2.28,2.28,0,0,1-3-.32c-.79,0-1.58,0-2.36,0a4.46,4.46,0,0,1-1.07-2.39A12.46,12.46,0,0,0,665,573.23Z"/><path class="cls-42" d="M185.76,124.11c5.74,0,12-2.16,16.44,3.82-4,5.24-9.14,3.36-14,3.32-.48-3.19,2.16-2.31,2.94-3.53-1.59-1.42-4.65-.91-5.23-3.79Z"/><path class="cls-20" d="M618.35,123.89c-.8,2.8-3.46,2.82-5.64,3.47.86,1.53,3.45.69,3.31,3.64-5,.72-10,1.79-14.18-2.93,4.63-6.15,10.9-4,16.68-4Z"/><path class="cls-43" d="M730,274.38q-1.1,2.63-2.2,5.25l-.18,4.9c-.94,1.11-1.83,1-2.69-.11l-2-2.49h0c-.85-.87-1.7-1.74-2.54-2.62s-1.66-1.47-2.52-2.19l.13.15c.08-.89.15-1.79.23-2.68.74,0,1.47,0,2.2.11.84-.9,1.15-2.36,2.66-2.55,1.43-1.61,2.85-3.22,4.28-4.82C728.42,269.63,726.47,273.05,730,274.38Z"/><path class="cls-44" d="M725.63,447.13,728,444.5l3.19,1.67c2.59-4.31.91-9.65,4-13.51.61-1.08,1.23-1.08,1.86,0l-2.07,17a4,4,0,0,1-2.45,3.31,1.94,1.94,0,0,1-2.43-.85C728.09,450.9,725.85,449.9,725.63,447.13Z"/><path class="cls-45" d="M159.28,153.5l4.72,4.35H151.85l-9.77,7.49,0,0c-.23-5.73,5.31-8,7.45-12.26l-.27.21,2.39-.29c1.66.13,3.31.21,5,.29Z"/><path class="cls-46" d="M671.44,580.76a3.29,3.29,0,0,0,.62-2.23c.05-1.52,1.31-1.94,2.33-2.58l-.21.16c1.26-1.4,2.05-3.36,4.28-3.61a2.69,2.69,0,0,1,2.5,1l-1.91,4.92.21-.09a25.31,25.31,0,0,0-2.65,2.63l.06-.33-10.09,12.24c-2,.34-3.37.16-2-2.36l5-7.14A29.74,29.74,0,0,0,671.44,580.76Z"/><path class="cls-47" d="M689.25,541.91q2-1.15,4.06-2.3c.63,1.76-.22,4.41,2.81,4.75a2.68,2.68,0,0,1,.32,3.54c-.38,4.38-3.61,7.33-5.53,10.94-2.08.36-3.48.11-2.22-2.5.86-2.34,1.73-4.67,2.59-7l.17.14C688.9,547.48,689.18,544.67,689.25,541.91Z"/><path class="cls-17" d="M623.56,116.9c-6.8-3.61-1.28-8-1.31-12.18,5.86,2.93,6.77,7.34,5,12.66-.06.19-.66.38-.9.28s-.6-.52-.89-.81c-1.12-1.2-1-2.67-.89-4.13C624.38,114.14,624.57,115.67,623.56,116.9Z"/><path class="cls-48" d="M611.15,113.91l-2.54.34s-.88-.18-.88-.17l-.88-.19s.51.74.51.75a1.77,1.77,0,0,1-1,1.51c-4.35-1.88-6.56-5.2-7-10.9,5.06.64,9.38,1.29,11.83,6.15A1.82,1.82,0,0,1,611.15,113.91Z"/><path class="cls-49" d="M197.82,113.06l-4.19-.87-.67-.53c1.83-4.9,6.34-5.36,11.25-6.69.92,5.75-2.1,8.76-6.33,11.14A3.07,3.07,0,0,1,197.82,113.06Z"/><path class="cls-50" d="M137.37,175c3,5.05,8.4.23,12.27,3.2-2.84,3.81-9.36,1.31-11.44,6.29-3.12,0-3.44-3.58-5.79-4.57a2.06,2.06,0,0,1-.93-1.8c.05-.71.16-1.06.34-1.06C133.22,175.21,134.79,173.74,137.37,175Z"/><path class="cls-51" d="M696.77,542.29c3-5.81,4.74-12.26,9.05-17.37a3.73,3.73,0,0,1,2,2.31c-2.42,6.14-4.56,12.42-9.14,17.43A3.56,3.56,0,0,1,696.77,542.29Z"/><path class="cls-52" d="M665.83,184.43c-2.34-4.6-8-2.91-11.35-5.82,3.43-4,9.57,1.84,12.41-3.6,2.74-1.3,3.83.73,5.05,2.5l-.07-.09,1.06,1.53L671.41,180C669.37,181.26,669,184.65,665.83,184.43Z"/><path class="cls-53" d="M108.73,192.16c-.35-3.44-.69-6.87-1.21-11.93,5.16,4.31,5.63,8.69,5.88,13.17.87,1.94,3.31,3,3.13,5.53a5.06,5.06,0,0,1-1.19,3l.13-.09c-.81,1.1-1.64,1.17-2.49,0l-2.53-2.6C108.37,197.27,109.26,194.54,108.73,192.16Z"/><path class="cls-54" d="M732.72,419.94l-2.46-6.86c2.55-.71,2-3,2.49-4.81q2.22,3.6,4.45,7.2c1.54.22,1.88,1.72,2.79,2.62l2.54,0-.1-.17-4.59,7.76c-1.54-.08-1.68-1.6-2.49-2.43Z"/><path class="cls-55" d="M76.13,442.18c.67,1.84.09,4.36,2.8,5.08-.65,3.06-2.6,5.28-4.76,7.36-1.69,0-1.5,2.06-2.76,2.54-1.52-1.55-4.2-1.94-4.59-4.61,0-.95,0-1.9-.08-2.85l2.56,0c.81-.95,1.07-2.44,2.63-2.64Z"/><path class="cls-56" d="M727.77,315.82q-1.24-2.28-2.48-4.57l2.44-2.51h2.49l1.29-1.33,1.3,1.32,4.41-5c.59,1.77.07,4.12,2.6,4.85a6.37,6.37,0,0,1-4.31,5l-1.57,1.3-1.56-1.32Z"/><path class="cls-57" d="M718.1,515.41l2.71,2.56c-3.1,4.19-10,1.85-12.41,7.18a3.11,3.11,0,0,1-1.82-2.34l-.45-7.59c.68,0,1.36,0,2,.09l2.43-.26c1.44.33,1.62,1.66,2.16,2.71Z"/><path class="cls-58" d="M132.39,580.89l2.23,2.77c1.54,2.36,3.09,4.72,4.63,7.09a3.26,3.26,0,0,1-2,2.3c-4.68-4.23-7.7-10.49-14.59-12a7.88,7.88,0,0,1-.11-2.11l2.67-.37,1.12,0a15.36,15.36,0,0,1,2.23.32,8.43,8.43,0,0,1,2.22.51A3,3,0,0,1,132.39,580.89Z"/><path class="cls-35" d="M674.91,168c.06-3.09.42-6.06,3.06-8.25,3.38,3.73-2,9.51,3.46,12.39-.5,1.84-1.14,3.58-3.48,3.81C675.48,173.84,677.81,169.9,674.91,168Z"/><path class="cls-59" d="M71.12,342.39c.18,1,.36,2,.55,2.95l.1-.15c-.68.51-.92,1-.74,1.59s.4.85.61.85c-.73,2.13-2.63,2.31-4.43,2.66-3.43-2.5-.15-6.82-2.6-9.59-.48-2.87-.66-5.68,1.89-7.81a4.7,4.7,0,0,1,2.44,2.27C69.65,337.57,68.41,340.57,71.12,342.39Z"/><path class="cls-60" d="M115.36,199.36c-.65-2-1.31-4-2-6l4.16-4c.8.83,1.6,1.65,2.39,2.48l1,.06s.28.91.29.9l-.74.56s.93,0,.94,0l.93.16.28.9,2.71.19-2.69,4.81c-1.47,3.15-2.75.57-4.09-.14A2.37,2.37,0,0,1,115.36,199.36Z"/><path class="cls-61" d="M664.54,590.56l2,2.36-7.09,9.63c-1,1.89-2.07,3.79-4.54,4.07a5.42,5.42,0,0,1-3-1.12,2.29,2.29,0,0,1,.45-2.83l-.14.14c.89-.78,1.17-2.19,2.55-2.46Z"/><path class="cls-24" d="M722.25,493.16c-1.77,5.22-3,10.66-6.39,15.22a4.1,4.1,0,0,1-2.11-2.6c1.94-5.13,3-10.63,6.49-15.1A3.67,3.67,0,0,1,722.25,493.16Z"/><path class="cls-62" d="M732.58,345.33l.46-2.92c2-1.09,1.86-3.23,2.47-5a3.76,3.76,0,0,1,2.15-2.06c2.76,2.14,2.38,5,1.85,7.91-1.91,2,.54,5.49-2.49,7.07-1.83-.3-3.72-.5-4.44-2.66.63-.58.83-1.14.58-1.67s-.47-.79-.69-.79Z"/><path class="cls-63" d="M718.65,483.64a5.67,5.67,0,0,1,1.53.14c3.88-.95,1.7-6.11,5.13-7.38.6-1.14,1.23-1.15,1.87,0,.62,3.31-4.8,7,.66,10l-.13-.19c-.84,2.27-3.14,1.62-4.73,2.39-.82,1.16-1.62,1.15-2.41,0Z"/><path class="cls-64" d="M76.21,474c-3.25-4.37-3.59-9.6-4.29-14.72.79-1.07,1.57-1.12,2.33,0,3.21,4.37,3,9.76,4.45,14.68C77.88,475.15,77.05,475.15,76.21,474Z"/><path class="cls-11" d="M596.9,630.65l2-3.06c5.78,4.58-.54,12.36,5,16.53,0,1.28-.32,2.31-1.77,2.59a2,2,0,0,1-2.82-.14C597.9,641.35,602.49,635.24,596.9,630.65Z"/><path class="cls-65" d="M64.32,308.75l3-2.66,4,2.62q1.28-1.79,2.5,0l2.59-.07L79,311.31l-2.55,3.29c-2.93.11-2.91-2.64-4.55-3.45-1.12.89-1.53,2.61-3.25,2.8C66.69,312.65,64.69,311.38,64.32,308.75Z"/><path class="cls-66" d="M635.59,131.28l4.56-2.61c1.86,1.19.87,3.83,2.58,5.09a3.27,3.27,0,0,0,2.34-.18l-4.83,5.11a1.62,1.62,0,0,1-2.52-.11l.19.15q-1.24-1.36-2.61-2.61l.18.18a28,28,0,0,0-2.61-2.61l.16.18c-.76-.46-1.06-1-.88-1.54s.39-.89.61-.89Z"/><path class="cls-49" d="M110.36,554.46c.78-.88,1.57-1.76,2.35-2.65L119.78,564a3.25,3.25,0,0,1-2,2.31C114.12,563.12,112.4,558.69,110.36,554.46Z"/><path class="cls-25" d="M137.24,593.05l2-2.3q4.84,6,9.68,12.11a2.2,2.2,0,0,1-3,.12A33.62,33.62,0,0,1,137.24,593.05Z"/><path class="cls-18" d="M740,418.09l-2.79-2.62.64-16.65,2.07-.18Q740,408.36,740,418.09Z"/><path class="cls-37" d="M62,400.88a7.88,7.88,0,0,0,2.22.19c2.5,5.3.9,10.87,1,16.32l-1.52,1.45-2-.76.13.06c-.7-2.51-1.39-5-2.09-7.53C63.15,407.94,61.33,404.13,62,400.88Z"/><path class="cls-67" d="M64.12,417.9q.06-8.41.13-16.83c.72.05,1.44.13,2.16.25q.39,7.08.77,14.17a5.18,5.18,0,0,1,.2,5,2.21,2.21,0,0,1-3,0h0a1.7,1.7,0,0,1-.7-1.69C63.78,418.2,63.94,417.9,64.12,417.9Z"/><path class="cls-68" d="M688.69,556.34l2.22,2.5a25.13,25.13,0,0,1-6.79,10.08A3.69,3.69,0,0,1,682,566.5Z"/><path class="cls-69" d="M64.61,340.7c3.27,2.54,1.31,6.51,2.6,9.59-.25,3.08-.51,6.15-.77,9.23l-2.3-2.37Q64.38,348.93,64.61,340.7Z"/><path class="cls-70" d="M630.72,133.32a24.45,24.45,0,0,1-10-8.83q-1.07-1-.69-1.89c.25-.61.5-.92.74-.92,4.05,2.29,7.59,5.12,9.78,9.36.64.47.87,1,.7,1.48S630.92,133.32,630.72,133.32Z"/><path class="cls-40" d="M726,471.58c1.76-4.78,1.39-10.19,4.32-14.62.65-1.06,1.29-1.12,1.94,0-1.11,5-.68,10.43-4.48,14.58C727.17,472.68,726.57,472.69,726,471.58Z"/><path class="cls-71" d="M737,350.32c1.05-2.28,0-5.31,2.49-7.07a4.52,4.52,0,0,0,.66,1.86l.18,5q-.23,6-.43,12c-.67-.06-1.33-.1-2-.13Z"/><path class="cls-72" d="M91.31,510,89,512.78l-4.63-12.27a3.94,3.94,0,0,1,2-2.52C89.27,501.47,90.32,505.7,91.31,510Z"/><path class="cls-73" d="M684,542.13c-3-4.15-2.61-8.73-1.92-13.53,3.65.77,4.08,3.41,4.23,6.23C683.36,536.58,684.51,539.63,684,542.13Z"/><path class="cls-74" d="M708.06,285c1.89-.69,4.42-.29,5.14-3,2.59-.11,4.48.9,6,3.81C715,287.37,711.46,287.8,708.06,285Z"/><path class="cls-75" d="M671.94,177.51l-5.05-2.5.17.23a11.75,11.75,0,0,0-2.63-2.59l.13.15c0-1.65,0-3.3,0-5l.08-.08,7.42,4.9c.61-.11,1.23-.19,1.85-.24Z"/><path class="cls-76" d="M81,491.2,74,486.27a6.74,6.74,0,0,1,2.28-.16A6.58,6.58,0,0,1,78,484.34a7.37,7.37,0,0,1,3.6-.81,6.36,6.36,0,0,0,2.13.17,5.26,5.26,0,0,0,2.4-.1l-2.35,5C82.82,489.42,82.61,491,81,491.2Z"/><path class="cls-77" d="M137.37,175l-4.87,2.48c-.6.91-1.29,1-2.08.23,0-1.78-.06-3.56-.1-5.35a19.19,19.19,0,0,1,2,.26l4.73-2.45a1.4,1.4,0,0,1,2.19-.19l.48,2.78.09-.15a11,11,0,0,0-2.63,2.61Z"/><path class="cls-78" d="M127.22,199c3.32-2.76,7-2.36,10.91-1.44-.62,3.47-3.06,4.07-5.89,4.09C131.31,199.35,129,199.63,127.22,199Z"/><path class="cls-79" d="M113,201.88l2.49,0c-.74,5-2.77,9.35-7.19,12.24l-.31-.28C107.83,209.05,111.69,206,113,201.88Z"/><path class="cls-80" d="M173.67,131.28c1.93-4.55,5.82-7.1,9.76-9.6a1.68,1.68,0,0,1,.65,1.79c-.19.61-.39.91-.59.91-2.45,3.43-4.89,6.89-9.74,7Z"/><path class="cls-81" d="M696.05,218.83q-2.47-6-4.93-11.94l.59-.47a16.69,16.69,0,0,1,6.95,12.37A1.9,1.9,0,0,1,696.05,218.83Z"/><path class="cls-82" d="M582.24,684.86c-1.86.73-4.46.18-5.15,3-2.86-.81-4.6-2.85-6.94-7.36C575.12,682.21,579,682.18,582.24,684.86Z"/><path class="cls-83" d="M125.21,578.52q-2.22-3.76-4.43-7.53a3.34,3.34,0,0,1,2-2.42l2.66,2.37c2.07,1.24,3.14,3.39,4.64,5.14l-.11-.14a1.91,1.91,0,0,1,.9,1.65c0,.66-.12,1-.28,1a4.41,4.41,0,0,1-2.85,1,4.68,4.68,0,0,1-2.75-1.25Z"/><path class="cls-84" d="M76.66,282.31A7.48,7.48,0,0,1,79,282a19.75,19.75,0,0,1-2.69,12.2c-.66,1.06-1.33,1.12-2,0Z"/><path class="cls-69" d="M745,454.91c1.14,2.06,3.34,1.91,5.2,2.46-3.4,2.6-7,2.82-11.08,1.26C740.36,455.92,742.9,455.78,745,454.91Z"/><path class="cls-85" d="M81,491.2l2.72-2.62q1.3,4.69,2.63,9.41l-2,2.52L81,493.46A5.07,5.07,0,0,0,81,491.2Z"/><path class="cls-86" d="M735.12,320.88c2.73,1.9,2.5,4.65,2.15,7.44-.84,1.06-1.61,1-2.32-.15-2.68-1.92-2.49-4.66-2.12-7.45C733.67,319.72,734.43,319.72,735.12,320.88Z"/><path class="cls-87" d="M68.85,442.43c-2.62-2-2.19-4.74-1.8-7.46.81-1.08,1.57-1,2.28.11,2.39,2,2.28,4.72,1.88,7.47C70.38,443.56,69.59,443.47,68.85,442.43Z"/><path class="cls-88" d="M74.15,520c-2.21-.6-4.45-1.17-5.69-4.11,4-1.46,7.43-1,10.6,1.66C77.25,518.07,75.09,517.83,74.15,520Z"/><path class="cls-89" d="M725.1,517.54c2.83-2.54,6.17-2.57,10.44-1.88-1,2.86-3,3.87-5.52,4.26C729,517.85,726.89,518,725.1,517.54Z"/><path class="cls-90" d="M716,248a3.47,3.47,0,0,1,1.58-.35,2.43,2.43,0,0,1-1.68,2.81c-1,.78-1.41,2.26-2.85,2.57-1.72-.37-3.73,0-4.84-1.91a2.13,2.13,0,0,1,.42-3.46l1.89.36,1.36-1.33,1.36,1.34Z"/><path class="cls-25" d="M713.75,505.78l2.11,2.6-3.09,9.38-2.16-2.71Z"/><path class="cls-91" d="M696.05,218.83l2.61,0-.08-.08c1.36,1.41.95,3.72,2.53,5l-.09-.16,1,1.53-1.43,1.14c-2.49,0-5.15.53-6.86-2.07,3.67-2-.26-3.43-.34-5.15Z"/><path class="cls-92" d="M652.44,602.67c0,.85,0,1.7,0,2.55l.92,1.42-.67,1.57a12,12,0,0,0-2.71,2l.14-.09-1.59,1-1.13-1.48c.38-3.17-.75-6.69,2.12-9.29Z"/><path class="cls-93" d="M183.76,619.69l4.31,2.39c.14,2.54-.61,4.61-3.63,6.16C182.72,625.46,183.37,622.55,183.76,619.69Z"/><path class="cls-94" d="M727.64,291.87c4.14,3,3,8,4.65,12-.65,1.12-1.3,1.06-1.94,0a17,17,0,0,1-2.53-12.15Z"/><path class="cls-95" d="M95.67,247.77c.08,1,.15,1.93.23,2.9-.84,2.19-2.9,2-4.66,2.34-1.47-.32-1.88-1.84-3-2.59a2.35,2.35,0,0,1-1.7-2.78,4.51,4.51,0,0,1,1.82.32,7.29,7.29,0,0,1,2.33,0l1.58-1.3,1.6,1.29A9.37,9.37,0,0,1,95.67,247.77Z"/><path class="cls-96" d="M81.11,340.1c1.38-2.7,4-2.82,6.5-4.1.94,4.18-1.59,5.4-3.71,6.88Z"/><path class="cls-97" d="M74.32,294.17c.67,0,1.34,0,2,0,.74,3.63-1.11,6.61-2.45,9.71-.65,1.09-1.3,1.1-2,0Z"/><path class="cls-43" d="M678.44,573.41l-4.26,2.7c0-3.54-.42-7.16,2.25-10.09.73,1.64,1.45,3.29,2.18,4.94Q681.13,572.37,678.44,573.41Z"/><path class="cls-96" d="M655,605.22l4.5-2.67.27,3.32L657.33,610l-4.84.07a1.58,1.58,0,0,1-.59-1.7c.19-.57.39-.86.58-.86l-.13.17A13.85,13.85,0,0,1,655,605.22Z"/><path class="cls-98" d="M683.92,194.47c2.79.54,3.59,2.79,4.36,5.06l-1,.69-.83-.85c-1.65.06-3.55,2.52-4.89-.5a4,4,0,0,1-.09-1.69Z"/><path class="cls-99" d="M224.58,671c2.87,1,5.79,1.93,7.45,4.81l.1-.15c-1.66,1.27-3.34,1.5-5,.08l-5-2.29Z"/><path class="cls-100" d="M582.19,673.44l-5.06,2.29c-1.69,1.46-3.36,1.22-5-.05l.11.14c1.61-2.93,4.53-3.85,7.42-4.82Z"/><path class="cls-101" d="M105.41,247.68c2-2.26,4.49-2.6,8.15-1.55a7.06,7.06,0,0,1-5.57,4.18Z"/><path class="cls-102" d="M696.2,250.37a7,7,0,0,1-5.4-3.78c3.08-2.08,5.62-1.1,8,1.12C697.93,248.59,697.06,249.48,696.2,250.37Z"/><path class="cls-103" d="M671.41,180c.15-.86.31-1.72.46-2.59,3.9,1.06,5.44,4.27,6.89,7.55a1.3,1.3,0,0,1-2.15-.16C673.91,184.25,673.12,181.64,671.41,180Z"/><path class="cls-104" d="M49.53,340.6c-2.68-1.45-2.93-4.14-4.35-6.7,4.29-.78,5.69,1.6,7.15,3.88Z"/><path class="cls-73" d="M164.09,133.54l4.33-2.26,3,.15a1.8,1.8,0,0,1-.19,2.45l.14-.18a24.55,24.55,0,0,0-2.6,2.6l.17-.17a32,32,0,0,1-2.6,2.61l.18-.15a1.62,1.62,0,0,1-2.51.11C164,137,164.07,135.26,164.09,133.54Z"/><path class="cls-105" d="M71.31,320.57c.4,2.08.18,3.94-1.82,5.18-.76,1.1-1.59,1.16-2.5.17-.42-2.82-.45-5.54,2-7.59A4.56,4.56,0,0,1,71.31,320.57Z"/><path class="cls-106" d="M64.34,420.51a17.65,17.65,0,0,1,2.3,0,1.57,1.57,0,0,1,2.64,0l-.54,5.24A4,4,0,0,1,66.53,428C64.1,426,64.28,423.24,64.34,420.51Z"/><path class="cls-107" d="M49.82,381.54l5.1,4.21-5.24,1.14-3-2.42Z"/><path class="cls-108" d="M54.39,301.58c-1.94-1.59-3.17-3.34-1.37-5.82,2.27,0,3.41,1.34,4,3.33Z"/><path class="cls-109" d="M86.19,437.49a3.9,3.9,0,0,1,4-3.29c1.76,2.48.53,4.23-1.39,5.81Z"/><path class="cls-107" d="M754.56,386.88l-5.19-1.18,5.06-4.15,3,2.85Z"/><path class="cls-110" d="M124.57,186.67c.8-3,2-5.78,5.42-6.72l-.06-.07c.6,3.74-1.67,5.86-4.35,7.76Z"/><path class="cls-111" d="M66.53,428l2.21-2.23c.2,3.1.39,6.21.59,9.32a17.41,17.41,0,0,1-2.28-.11C66.88,432.64,66.7,430.32,66.53,428Z"/><path class="cls-90" d="M747.14,298.94c.54-2.09,2.05-3,3.89-3.59,1.86,2.79.7,4.58-1.3,6.16Z"/><path class="cls-112" d="M67,325.92l2.5-.17q-.27,4.69-.55,9.41c-.81-.76-1.62-1.52-2.44-2.27C66.66,330.57,66.83,328.25,67,325.92Z"/><path class="cls-113" d="M735.35,423.21l2.49,2.43-.85,7h-1.86Z"/><path class="cls-114" d="M52.06,350.31l2.48-2.64c1.83.69,3.38,1.62,3.34,4C55.42,353.42,53.64,352.31,52.06,350.31Z"/><path class="cls-115" d="M703.46,546.9l3,2.85a5.82,5.82,0,0,1-6.57,1.61C699,548.28,701.52,547.79,703.46,546.9Z"/><path class="cls-116" d="M678.44,573.41l.17-2.45L682,566.5l2.12,2.42q-1.59,2.31-3.16,4.63Z"/><path class="cls-117" d="M735,328.17a7.55,7.55,0,0,1,2.32.15l.39,7-2.15,2.06C735.32,334.32,735.13,331.25,735,328.17Z"/><path class="cls-67" d="M76.21,474H78.7c.7,2.43,1.39,4.86,2.09,7.29a1.68,1.68,0,0,1-1.93,1.18,2.19,2.19,0,0,1-1.78-1.39Z"/><path class="cls-118" d="M122.61,194.51l-2.48,0,.14.14c-.11-.9-.21-1.81-.31-2.71q2.31-2.61,4.61-5.24a8.44,8.44,0,0,0,1,1Z"/><path class="cls-119" d="M684.39,192c-.13.87-.25,1.74-.37,2.61-3.74-1.05-5-3.72-4.89-7.34l.07-.08C682.13,187.5,682.66,190.4,684.39,192Z"/><path class="cls-60" d="M108.73,192.16c2.33,2,1.79,4.59,1.72,7.12a6.56,6.56,0,0,1-4.68-5C106.75,193.58,107.74,192.87,108.73,192.16Z"/><path class="cls-120" d="M749.74,376.85c-1.11,2.13-2.34,4.11-5,4.5-.06-.82-.13-1.64-.2-2.46.14-2,.62-3.75,2.44-4.86Z"/><path class="cls-115" d="M97.7,549.83l3-2.89,5,2.42-.22-.16a1.74,1.74,0,0,1,.54,1.77c-.18.59-.36.88-.55.88l.22-.15C102.82,552.15,100,552,97.7,549.83Z"/><path class="cls-40" d="M122.76,568.57l-2,2.42-3-4.65,2-2.31Z"/><path class="cls-121" d="M71.31,320.57,69,318.33c-.13-1.46-.25-2.92-.38-4.38l3.25-2.8Z"/><path class="cls-122" d="M130.06,576.08c-2.84-.54-3.91-2.69-4.64-5.14l2.47-2.61C130.16,570.48,130.17,573.26,130.06,576.08Z"/><path class="cls-123" d="M57,313.62,59.68,311a5.51,5.51,0,0,1,3.41,4.08C60.2,317.1,58.56,315.55,57,313.62Z"/><path class="cls-69" d="M662.23,615.22l.06,4-6.07-2.43C658.06,613.59,660.3,615.21,662.23,615.22Z"/><path class="cls-124" d="M231.53,654.06c-1.91-1.89-2.39-4-.87-6.34a3.73,3.73,0,0,1,3.73,3.72Z"/><path class="cls-125" d="M88,260c-1.36,2.5-.59,6.18-4.15,7.46l-.07-.06c-.26-2.79-.91-5.7,2.46-7.26C86.71,259.06,87.3,259,88,260Z"/><path class="cls-11" d="M637.16,634.72c3.63-.35,7.39-1.5,10.38,1.81C644,636.66,640.36,636.81,637.16,634.72Z"/><path class="cls-126" d="M718.36,262.47c-2.85-1.71-3.15-4.35-2.67-7.28l-.2.18c3.57,1.11,3,4.74,4.36,7.19Z"/><path class="cls-127" d="M562.61,675.9l2.76,2.51a5.21,5.21,0,0,1-6.07,2C558.19,677.12,560.85,676.83,562.61,675.9Z"/><path class="cls-128" d="M156.66,153.33c-1.83,3-3.44,2-5-.29v.2a11.75,11.75,0,0,0,2.61-2.61l-.19.15a1.65,1.65,0,0,1,2.53-.07Z"/><path class="cls-75" d="M119.8,546.89l2.9,0-3.36,4.2C117.56,548.87,118.16,547.75,119.8,546.89Z"/><path class="cls-129" d="M735.12,320.88H734l-1.14-.16c-.15-2.37-.29-4.75-.44-7.12l3.12,0Z"/><path class="cls-20" d="M68.85,442.43c.79.08,1.57.11,2.36.12l.72,4.48-2.63,2.64Z"/><path class="cls-51" d="M708.62,247.61l-.42,3.46-5.09-2.8,2.79-2.75Z"/><path class="cls-130" d="M744.58,311c0,1.24,0,2.48,0,3.72-1.06,1.58-2.16,1.56-3.34.11C741.58,312.84,743,311.83,744.58,311Z"/><path class="cls-131" d="M139.63,578.37c-3.13-1.42-1.84-3.1-.29-4.79H142Z"/><path class="cls-132" d="M732.16,452.17l2.76-2.49c.78-.06,1.56-.1,2.35-.12l.15,2.75.17-.19a17.1,17.1,0,0,0-2.28,2.14c-.77.17-1.54.33-2.31.47-.87-.35-1.28-.84-1.24-1.49S731.94,452.17,732.16,452.17Z"/><path class="cls-133" d="M710.14,221.35l3-.15c-.64,1.75-1.51,3.24-3.66,3.37C708.07,223.14,708.41,222.1,710.14,221.35Z"/><path class="cls-121" d="M723.11,272.16l-2.66,2.55q.06-3.68.1-7.35l-.2.17C722.52,268.33,722.79,270.26,723.11,272.16Z"/><path class="cls-134" d="M642.94,615l2.65-2.39,1.52-1.07,1.37,1.26L645,617.14l-.32-.73-1.07-1.08Z"/><path class="cls-135" d="M69.28,420.52H66.64l.54-5c.64.06,1.28.1,1.91.12l2.13,1.72.41,3.23C70.85,420.56,70.06,420.54,69.28,420.52Z"/><path class="cls-136" d="M105.57,512.75c0,1.73.05,3.46.08,5.19-.54,1.09-1.68,1.72-2.2.52C102.46,516.14,103.83,514.28,105.57,512.75Z"/><path class="cls-137" d="M91.06,221.27l2.73,0c1.62.69,2.32,1.65,1,3.26C92.58,224.5,91.67,223.06,91.06,221.27Z"/><path class="cls-138" d="M81.33,274.8l-.57-2.62c.63-1.82.61-4.06,3-4.79l.07.06-.12,7.33.16-.16Z"/><path class="cls-139" d="M110.77,219,108,223.75l.23-.08a2,2,0,0,1-2.66,0l.09.12a2.64,2.64,0,0,1-1.12-2.46,5.38,5.38,0,0,1,1.21-2.6l-.15.14c.68-1.13,1.42-1.16,2.2-.1Z"/><path class="cls-140" d="M725,284.42l2.69.11c0,2.45,0,4.89,0,7.34l.18-.15C724.89,290.06,725.54,287,725,284.42Z"/><path class="cls-141" d="M77.08,481.11a10,10,0,0,1,2.12.1,3.65,3.65,0,0,1-.41,4.93l-2.53,0q-1.08-2.43-2.17-4.86Z"/><path class="cls-95" d="M105.5,221.1l.11,2.66-1,.11-1-.19q-1.33,2.08-2.66,0a2.59,2.59,0,0,1-2.1-2.81,11,11,0,0,1,1.71.35l2.7,0A1.45,1.45,0,0,1,105.5,221.1Z"/><path class="cls-142" d="M695.86,515.48l3.55-.27c1.49,1.08,2.09,2.3.63,3.92A5.26,5.26,0,0,1,695.86,515.48Z"/><path class="cls-143" d="M232.1,668.36c-2,0-3.95.07-5-2.14l.18-3,4.64,2.86c.63.52.85,1,.65,1.57s-.4.8-.61.8Z"/><path class="cls-63" d="M74.25,459.35H73.09l-1.17,0a8.09,8.09,0,0,1-.51-2.16l.81-3.25,2,.71Z"/><path class="cls-77" d="M681.48,547l2.82-.1c1.6.8,2.3,1.87,1,3.56C683.16,550.24,682.11,548.85,681.48,547Z"/><path class="cls-144" d="M229.75,685.53c-.05-.85-.11-1.71-.17-2.56.8-1.43,1.72-2.56,3.57-1.32C233,683.83,231.58,684.85,229.75,685.53Z"/><path class="cls-71" d="M78.79,248.62l.39-3.51a4.77,4.77,0,0,1,2.09,5.29l.07-.07A1.92,1.92,0,0,1,78.79,248.62Z"/><path class="cls-64" d="M101,559.33a23.84,23.84,0,0,1-.3-2.4l4.06.26.12,1.08Z"/><path class="cls-44" d="M713.23,248h-2.72c.09-1.65.19-3.29.29-4.93l-.2.17C712.78,244.08,713.07,246,713.23,248Z"/><path class="cls-145" d="M93.91,247.93H90.73c.33-1.95.35-4.1,2.87-4.72l-.19-.17C93.57,244.68,93.74,246.31,93.91,247.93Z"/><path class="cls-97" d="M710.8,243c-3.06-.49-2.44-2.81-2.41-4.83l-.19.15c3,.53,2.53,2.77,2.4,4.85Z"/><path class="cls-64" d="M703.56,556.93c-.06.81-.16,1.61-.3,2.41l-3.91-1.08.11-1.07Z"/><path class="cls-146" d="M735.13,280.18l-1.75-1.44,1.44-1.62,3,.22Z"/><path class="cls-147" d="M623.56,116.9c.09-1.07.18-2.15.27-3.33,2.28.48,1.58,2.06,1.66,3.28l-1-.07Z"/><path class="cls-97" d="M93.6,243.22c0-2-.77-4.41,2.42-4.8l-.18-.17c0,2,.5,4.28-2.43,4.8Z"/><path class="cls-148" d="M707.84,472c-1.47-1.21-2.39-2.55-1-4.4l1.46,1.14Z"/><path class="cls-148" d="M162,126.68c.07-1.09.13-2.19.21-3.41,2.23.49,1.64,2,1.64,3.29A8.19,8.19,0,0,0,162,126.68Z"/><path class="cls-64" d="M705.84,233.43c3.19.49,2.53,2.83,2.36,4.93l.19-.15c-2.54-.73-2.67-2.7-2.48-4.83Z"/><path class="cls-6" d="M726,471.58c.59,0,1.19,0,1.78,0-.18,1.61-.37,3.22-.55,4.83-.63,0-1.26,0-1.88,0C725.53,474.79,725.74,473.19,726,471.58Z"/><path class="cls-72" d="M730.35,303.87h1.94c.17,1.61.34,3.22.52,4.84h-2.59C730.26,307.11,730.31,305.49,730.35,303.87Z"/><path class="cls-149" d="M665,573.23a5.63,5.63,0,0,1,1.87,5.09,1.37,1.37,0,0,1-2.3.12,2.57,2.57,0,0,1-.08-2Z"/><path class="cls-150" d="M96,238.42c.19-1.95-.87-4.53,2.47-4.88l-.18-.15c.06,2.07-.44,3.86-2.47,4.86Z"/><path class="cls-151" d="M705.91,233.38c-2.51-.78-2.64-2.74-2.43-4.87l-.07.07c3.06.49,2.59,2.75,2.43,4.85Z"/><path class="cls-152" d="M110.72,228.84a12.6,12.6,0,0,0-.21,2.13l-3.17-.58C107.91,228,109.42,228.71,110.72,228.84Z"/><path class="cls-12" d="M78.84,282.15l.42-4.86c.57-.86,1.15-.91,1.75,0C81.52,279.43,81.15,281.22,78.84,282.15Z"/><path class="cls-151" d="M69.33,277.12l1.47,1.65-1.7,1.52c-.91-1-1.82-1.93-2.74-2.89Z"/><path class="cls-150" d="M100.74,228.53c.06,2.06-.5,3.8-2.43,4.86l.18.15c.07-2-.89-4.5,2.43-4.86Z"/><path class="cls-153" d="M700.6,226.24l.42-2.67c3,.62,2.52,2.89,2.39,5l.07-.07Z"/><path class="cls-92" d="M654.85,600.35a2.39,2.39,0,0,1-2.55,2.46c0-2.09.47-3.93,2.35-5.15C654.71,598.55,654.78,599.45,654.85,600.35Z"/><path class="cls-150" d="M100.88,223.68h2.66c-.26,2-.85,3.82-2.8,4.85l.18.15C100.91,227,100.9,225.34,100.88,223.68Z"/><path class="cls-154" d="M78.79,486.14c.14-1.64.27-3.29.41-4.93a9.38,9.38,0,0,0,1.59.11,5.64,5.64,0,0,1,.79,2.21Z"/><path class="cls-155" d="M178.41,141.35l3.23.27c-.68,2.18-2.09,1.46-3.3,1.33C178.35,142.41,178.37,141.88,178.41,141.35Z"/><path class="cls-156" d="M648.48,612.82l-2.89-.19,1.82-3,2.72.52A2.12,2.12,0,0,1,648.48,612.82Z"/><path class="cls-157" d="M591.58,646.59a10.28,10.28,0,0,1,2.07-.25v3.32C591.19,649.5,591.66,647.88,591.58,646.59Z"/><path class="cls-158" d="M720.57,488.56c.8,0,1.61,0,2.41,0-.24,1.52-.49,3.05-.73,4.57l-2-2.48A3.87,3.87,0,0,1,720.57,488.56Z"/><path class="cls-159" d="M696.77,542.29l2,2.37-2.29,3.24c-.1-1.18-.21-2.36-.32-3.54A2.72,2.72,0,0,1,696.77,542.29Z"/><path class="cls-37" d="M88.69,306.33a3.51,3.51,0,0,1,3.53-1.89c1.24,1.07.42,1.54-.61,1.95Z"/><path class="cls-119" d="M701.11,223.73c-2.48-.85-2.45-3-2.53-5C701.32,219.42,701.23,221.57,701.11,223.73Z"/><path class="cls-160" d="M71.92,303.87h2c0,1.62,0,3.24-.07,4.86l-2.49,0C71.51,307.1,71.71,305.49,71.92,303.87Z"/><path class="cls-161" d="M718.36,262.47a12.54,12.54,0,0,0,1.49.09c.17,1.66.34,3.31.5,5l.2-.17C717.54,266.75,718.06,264.56,718.36,262.47Z"/><path class="cls-162" d="M125.06,172.24a2.41,2.41,0,0,1,.27-2.21c1.08.93,2,1.93,1.38,3.55C125.23,174.3,125.28,173.1,125.06,172.24Z"/><path class="cls-131" d="M696.17,197c-3.48-1.62-1.42-3.4-.16-5.15.09,1,.19,2.07.28,3.1A3.76,3.76,0,0,1,696.17,197Z"/><path class="cls-157" d="M589.51,641.59a4.81,4.81,0,0,1,2.07,5C589.49,645.51,589.18,643.68,589.51,641.59Z"/><path class="cls-27" d="M210.41,646.36a22.66,22.66,0,0,0,2.34.29c-.27,1-.53,2-.81,3.12C209.66,649.17,210.29,647.67,210.41,646.36Z"/><path class="cls-163" d="M719.9,371.93c-1.09-.67-1.54-1.65-.11-2.14s2.68.5,3.31,2Z"/><path class="cls-164" d="M625.88,142.93h-3.41c.61-2.31,2-1.8,3.33-1.61A10.79,10.79,0,0,1,625.88,142.93Z"/><path class="cls-163" d="M81.1,371.72c.69-1.43,1.86-2.52,3.37-1.87s.67,1.54-.39,2.08Z"/><path class="cls-165" d="M88,260a11.5,11.5,0,0,0-1.76.14c0-2-.54-4.37,2.54-4.77l-.19-.16C88.36,256.8,88.16,258.39,88,260Z"/><path class="cls-166" d="M706.58,522.81l1.82,2.34a3.26,3.26,0,0,1-.53,2.08l-2-2.31A3.27,3.27,0,0,1,706.58,522.81Z"/><path class="cls-28" d="M232,668.5a6.1,6.1,0,0,1,0-2.37c.1-1,.21-2.09.31-3.14C233.58,664.9,236.2,666.87,232,668.5Z"/><path class="cls-71" d="M717.78,452.25l3.54-.3a1.94,1.94,0,0,1,1.56,2.59v0A4.63,4.63,0,0,1,717.78,452.25Z"/><path class="cls-167" d="M82.65,452l3.73.25a4.89,4.89,0,0,1-5,2.44l-.15-.14A1.93,1.93,0,0,1,82.65,452Z"/><path class="cls-168" d="M227.09,675.76l5-.08c-1,2.33-2.94,2.54-5.11,2.11A10.58,10.58,0,0,0,227.09,675.76Z"/><path class="cls-12" d="M732.16,452.17l.84,2.56a6.25,6.25,0,0,1-.78,2.23h-1.94l-.24-4.82C730.75,452.14,731.46,452.15,732.16,452.17Z"/><path class="cls-168" d="M572.11,675.68l5,.05a11.8,11.8,0,0,0,.09,2.06C575.06,678.19,573.12,678.06,572.11,675.68Z"/><path class="cls-134" d="M241.91,680l1.94-1.75L245,680Z"/><path class="cls-169" d="M713,253l2.85-2.57-.4,5,.2-.18C714.15,255.24,713.52,254.19,713,253Z"/><path class="cls-24" d="M88.28,250.42l3,2.59-2.68,2.19.19.16C88.6,253.72,88.44,252.07,88.28,250.42Z"/><path class="cls-170" d="M107.75,218.74h-1.1l-1.1.1c-.12-2.12-.26-4.26,2.42-5.05l.3.28C108.1,215.63,107.93,217.18,107.75,218.74Z"/><path class="cls-93" d="M688.78,201.78a10.48,10.48,0,0,1,2.36.32l.57,4.32-.59.47C688.88,205.85,688.48,204,688.78,201.78Z"/><path class="cls-71" d="M725,245l.45,3.57a2,2,0,0,1-2.56,1.78l0,0A5,5,0,0,1,725,245Z"/><path class="cls-171" d="M642.65,143.53a2.13,2.13,0,0,1,2.41,2.44l.13-.13c-1.76.16-2.56-.66-2.44-2.41Z"/><path class="cls-28" d="M717.89,277.13l2.52,2.19C718.84,279.43,717.83,278.89,717.89,277.13Z"/><path class="cls-12" d="M86.5,277.56c-.47.55-1,1.09-1.44,1.64l-.85-1.92c.6-1,1.27-1.07,2-.18Z"/><path class="cls-28" d="M159,145.85c.09,1.72-.66,2.59-2.44,2.42l.15.14c0-1.65.76-2.48,2.42-2.43Z"/><path class="cls-16" d="M645.06,146a2.17,2.17,0,0,1,2.43,2.43l.17-.14c-1.83.23-2.58-.66-2.47-2.42Z"/><path class="cls-16" d="M650.24,150.73a23.14,23.14,0,0,0-2.35-.07c-.08-.8-.15-1.6-.23-2.4l-.17.14A2.69,2.69,0,0,1,650.24,150.73Z"/><path class="cls-44" d="M154.29,150.63l-2.61,2.61A2.83,2.83,0,0,1,154.29,150.63Z"/><path class="cls-172" d="M664.59,578.44a8.45,8.45,0,0,0,2.3-.12l0,2.53Z"/><path class="cls-172" d="M671.44,580.76a2.54,2.54,0,0,1-2,2.66c-.07-.85-.13-1.69-.2-2.54Z"/><path class="cls-173" d="M659.57,163a19.23,19.23,0,0,0,2.15.12c.11.78.23,1.57.35,2.35l.13-.13C660.59,165.33,659.86,164.39,659.57,163Z"/><path class="cls-174" d="M142.08,165.34c-.1,1.58-.82,2.48-2.52,2.35l.2.18c-.07-1.64.61-2.56,2.35-2.49Z"/><path class="cls-175" d="M662.07,165.42c1.69-.13,2.4.81,2.55,2.35l-.07.08a2.18,2.18,0,0,1-2.35-2.56Z"/><path class="cls-176" d="M139.24,170a13.28,13.28,0,0,0-2.18.19c.33-1.43,1-2.43,2.7-2.33l-.2-.18A2.29,2.29,0,0,1,139.24,170Z"/><path class="cls-177" d="M105.52,223.64l2.66,0-.87,1.58Z"/><path class="cls-156" d="M145.93,603l3-.12a2.06,2.06,0,0,1,.87,2.1c-.75.07-1.49.13-2.24.18Z"/><path class="cls-21" d="M130.42,177.74a13.24,13.24,0,0,0,2.08-.23l-.09,2.44-2.48-.07.06.07A2.75,2.75,0,0,1,130.42,177.74Z"/><path class="cls-138" d="M86.23,277.1a10.54,10.54,0,0,1-2,.18c-.12-.89-.23-1.77-.35-2.66l-.16.16,2.57,0A11.67,11.67,0,0,1,86.23,277.1Z"/><path class="cls-138" d="M81,277.25c-.58,0-1.16,0-1.75,0a2.61,2.61,0,0,1,2.17-2.64Z"/><path class="cls-156" d="M151.88,605.11l.62,2.84-3-3.17Z"/><path class="cls-67" d="M676.61,184.81c.72.08,1.43.13,2.15.16a2.65,2.65,0,0,1,.43,2.23l-.06.07C677.46,187.3,676.84,186.25,676.61,184.81Z"/><path class="cls-178" d="M115.36,199.36h3.18l-3.2,2.55C115.35,201.07,115.36,200.21,115.36,199.36Z"/><path class="cls-156" d="M652.48,607.54c0,.85,0,1.71,0,2.56l-2.5.11C649.86,608.43,650.74,607.58,652.48,607.54Z"/><path class="cls-171" d="M686.48,199.37a12.16,12.16,0,0,0,1.8.16l.66,2.38C687.22,201.93,686.5,201,686.48,199.37Z"/><path class="cls-177" d="M735.31,454.26l2.28-2.14A2,2,0,0,1,735.31,454.26Z"/><path class="cls-144" d="M81.36,454.66l.32-.47c-1.39,1-.93.67-.47.33Z"/><path class="cls-114" d="M722.88,454.54c.42.36.85.72.09.07l-.08-.09Z"/><path class="cls-106" d="M64.12,417.9c.07.87.15,1.74.22,2.61l-2.52-2.43A14.76,14.76,0,0,0,64.12,417.9Z"/><path class="cls-179" d="M591.63,493.21c.44,1.22.13,1.88-1.3,1.78-.55-1.62.66-1.42,1.52-1.56Z"/><path class="cls-131" d="M732.47,345.2l1.69,1.15-1.58,1.31C732.54,346.84,732.51,346,732.47,345.2Z"/><path class="cls-180" d="M105.5,221.1l-1.15.15h-1.16c.2-1.48.78-2.58,2.51-2.54C105.64,219.5,105.57,220.3,105.5,221.1Z"/><path class="cls-28" d="M71.64,347.63l-1.56-1.34,1.69-1.1Z"/><path class="cls-28" d="M161.49,143.43c.09,1.72-.73,2.53-2.45,2.42l.13.13a2.09,2.09,0,0,1,2.42-2.44Z"/><path class="cls-11" d="M635.43,632.06l-.06,2.46-2.46-.25.17.18c0-.87,0-1.75,0-2.62l-.21.19Z"/><path class="cls-11" d="M632.91,634.27l-.53.6.7-.42Z"/><path class="cls-28" d="M193.63,112.19c-.3,1-.62,1.87-1.95,1.38-.62-1.33.37-1.6,1.28-1.91Z"/><path class="cls-28" d="M611.15,113.91c0-.84.07-1.67.11-2.51l1.54,2Z"/><path class="cls-7" d="M599.28,646.57l2.82.14a12.56,12.56,0,0,1-.79,2.28l.13-.12C599.46,649.28,599.1,648.18,599.28,646.57Z"/><path class="cls-181" d="M197.82,113.06l.06,3-2.32-.58Z"/><path class="cls-134" d="M606.41,116.15l.3-2.7a6.21,6.21,0,0,1,2.08,1l-.18-.22C608.94,116.11,608.12,116.65,606.41,116.15Z"/><path class="cls-138" d="M618.47,121.57l-1.79-1c1.65-1.17,1.69-.06,1.67,1.14Z"/><path class="cls-182" d="M183.49,124.38l-.06-2.7c1.82-.19,2.28.93,2.34,2.43l.14-.18Z"/><path class="cls-183" d="M620.8,121.68c0,.93,0,1.87,0,2.8l-2.41-.59.18.19c0-.84,0-1.67,0-2.51l-.12.13Z"/><path class="cls-144" d="M722.89,250.38c-.38.42-.77.85-.19.22-.66.53-.22.17.22-.19Z"/><path class="cls-184" d="M171.23,133.88c.06-.82.12-1.64.19-2.46a7.73,7.73,0,0,1,2.25-.14l.08.08C173.75,133,172.83,133.8,171.23,133.88Z"/><path class="cls-185" d="M630.72,133.32a12.42,12.42,0,0,0-.14-2.28c.74.11,1.46.24,2.19.4.08.81.17,1.62.26,2.43Z"/><path class="cls-28" d="M168.77,136.3a3,3,0,0,1,2.6-2.6A2.37,2.37,0,0,1,168.77,136.3Z"/><path class="cls-185" d="M632.87,133.69a2.85,2.85,0,0,1,2.61,2.61A2.33,2.33,0,0,1,632.87,133.69Z"/><path class="cls-28" d="M166.34,138.74a2.93,2.93,0,0,1,2.6-2.61c-.09.86-.17,1.71-.25,2.56l.19-.2Z"/><path class="cls-171" d="M635.3,136.12a2.79,2.79,0,0,1,2.61,2.61C636.12,138.78,635.32,137.84,635.3,136.12Z"/><path class="cls-28" d="M164,138.7l2.51-.11c-.07,1.66-.88,2.52-2.6,2.41l.1.1A5.88,5.88,0,0,1,164,138.7Z"/><path class="cls-171" d="M637.72,138.58l2.52.11a7,7,0,0,1,0,2.41l.11-.1C638.57,141.14,637.77,140.27,637.72,138.58Z"/><path class="cls-114" d="M81.27,250.4l.42.34-.35-.41Z"/><path class="cls-67" d="M156.63,150.71l-2.53.07c.24-1.51,1-2.43,2.65-2.38l-.15-.13Z"/><path class="cls-28" d="M163.92,141c.09,1.71-.72,2.52-2.43,2.44l.1.09A2.08,2.08,0,0,1,164,141.1Z"/><path class="cls-171" d="M640.21,141.1a2.14,2.14,0,0,1,2.45,2.43l.09-.1c-1.75.13-2.54-.7-2.43-2.43Z"/><path class="cls-135" d="M84.25,406.68c-.16-1.06-.31-2.11-.47-3.16l1.58-1.15C86.66,404.25,85.64,405.51,84.25,406.68Z"/><path class="cls-37" d="M630.6,624.53c-.18,1.75-1.37,2.39-2.91,2.63C628.3,625.88,628.81,624.5,630.6,624.53Z"/><path class="cls-148" d="M759.36,408.44l1-1.77c1.31,1.69,0,1.58-1.08,1.68Z"/><path class="cls-186" d="M676.61,581l2.65-2.63C679.2,580.08,678.52,581.17,676.61,581Z"/><path class="cls-148" d="M757.73,335.55l-3.58-.29c.78-1.32,1.88-2.42,3.44-2S758.67,334.72,757.73,335.55Z"/><path class="cls-134" d="M643.65,615.33a1.39,1.39,0,0,1,1.07,1.08l-1-.1Z"/><path class="cls-187" d="M606.22,653.66l-.91,1.84c-1.29-1.7.44-1.33,1.08-1.68Z"/><path class="cls-172" d="M674.39,576l-2.33,2.58c-3.95-2.73-2.42-6.68-2.29-10.31C672.45,570.11,670.52,574.77,674.39,576Z"/><path class="cls-188" d="M45,371c-.08,1.2-.15,2.41-.23,3.61-1.3-.81-2.48-1.91-2-3.49S44.16,370,45,371Z"/><path class="cls-189" d="M129.64,578.62c.11-.9.21-1.79.31-2.68,4.19-2.12,1.49-7.42,4.64-10,.4,5.16.65,10.3-2.2,15l-1-.13-1,.07c-.92-.22-1.34-.62-1.29-1.2S129.41,578.62,129.64,578.62Z"/><path class="cls-105" d="M139,556.83h-1.21c.21-.55.42-1.09.64-1.64Z"/><path class="cls-190" d="M740.12,262.53l-2.83-.28c.68-1.73,1.68-3.06,3.76-3.08C742.42,260.78,741.38,261.68,740.12,262.53Z"/><path class="cls-134" d="M174.42,631.45c.9-1.67,1.08-.37,1.4.34A4.23,4.23,0,0,1,174.42,631.45Z"/><path class="cls-186" d="M137.18,175.25l2.63-2.61C139.71,174.29,138.51,174.83,137.18,175.25Z"/><path class="cls-191" d="M664.43,172.65c1.58.16,2.25,1.23,2.63,2.59C665.69,174.88,664.41,174.43,664.43,172.65Z"/><path class="cls-186" d="M105.53,551.85c0-.88,0-1.77,0-2.65l1.63,1.36Z"/><path class="cls-186" d="M642.73,133.76c-2.09-1.07-2.24-3.13-2.58-5.09a3.8,3.8,0,0,1,.17-2.16c.77-1.15,1.42-1.14,1.93.2Z"/><path class="cls-101" d="M642.25,126.71c-.64-.09-1.29-.16-1.93-.2.17-1.06.34-2.11.52-3.28C643.09,123.94,642.3,125.46,642.25,126.71Z"/><path class="cls-121" d="M723,281.94c.17-1.08.34-2.16.54-3.47,2.47,1.84.74,2.6-.55,3.46Z"/><path class="cls-186" d="M691.45,549.47c.24-.53.48-1.06.38-.85l-.55.71Z"/><path class="cls-186" d="M608.79,114.47a5.07,5.07,0,0,0-2.08-1Z"/><path class="cls-186" d="M125,578.34a1.13,1.13,0,0,0,1.55.28c1,.19,1.47.59,1.39,1.19s-.26,1.07-.52,1.07C126.59,580,125.78,579.18,125,578.34Z"/><path class="cls-134" d="M127.39,580.88a15.07,15.07,0,0,0-.87-2.26h3.12c.31.72.59,1.46.83,2.21Z"/><path class="cls-21" d="M120.13,194.48l-.53.72.67-.58Z"/><path class="cls-156" d="M655,605.22l-2.64,2.49c0-.83.07-1.66.1-2.49Z"/><polygon class="cls-14" points="298.74 687.07 294.25 696.64 299.58 705.76 289.09 704.45 282.06 712.34 280.07 701.96 270.39 697.71 279.65 692.61 280.7 682.09 288.41 689.32 298.74 687.07"/><polygon class="cls-14" points="355.44 700.43 350.95 710 356.28 719.13 345.79 717.81 338.76 725.7 336.77 715.32 327.1 711.07 336.36 705.97 337.4 695.46 345.12 702.69 355.44 700.43"/><polygon class="cls-14" points="412.26 704.28 409.63 714.52 416.58 722.49 406.03 723.15 400.59 732.22 396.7 722.39 386.4 720.02 394.54 713.29 393.61 702.76 402.54 708.42 412.26 704.28"/><polygon class="cls-14" points="467.21 696.13 467.64 706.69 476.59 712.32 466.68 716 464.08 726.24 457.53 717.95 446.98 718.65 452.84 709.86 448.91 700.04 459.09 702.89 467.21 696.13"/><polygon class="cls-14" points="522.94 680.74 524.43 691.2 533.9 695.9 524.41 700.56 522.86 711.02 515.5 703.43 505.08 705.19 510.02 695.85 505.13 686.48 515.54 688.29 522.94 680.74"/><path d="M208.08,278.92a10.5,10.5,0,0,1,19.8,4.82v19.9h34.36V273.79h8.41v70.48h-8.41V311.64H227.88v32.63h-8.52V283.74a1.89,1.89,0,0,0-1.94-1.95c-.93,0-1.34.31-2.16,1.95Z"/><path d="M339.21,339.65a9.65,9.65,0,0,1-8.82,5.54,10.66,10.66,0,0,1-9.44-6.26c-3.48,4.31-8.82,6.26-14.56,6.26-14.87,0-22.47-12.83-22.47-26.68,0-15.69,9.75-27.28,25.45-27.28a106.27,106.27,0,0,1,12.1.92H328V335a2.37,2.37,0,0,0,2.26,2.36c1.13,0,1.74-.51,2.46-2.15Zm-19.07-40c-3.29-.2-8.31-.82-11.29-.82-11.08,0-16.82,8.51-16.82,19.49,0,9.95,4.72,19.29,14.46,19.29a13.25,13.25,0,0,0,12.41-7.49,12.38,12.38,0,0,0,1.24-5.75Z"/><path d="M388.59,338.21a33.52,33.52,0,0,1-19.9,6.56c-15.59,0-23.7-10.46-23.7-25.43,0-15.6,8.72-28.42,22.88-28.42,10.15,0,19.9,6.77,19.08,17.44h-8.1c.71-6.77-4.52-10.26-10.57-10.26-10.67,0-15.29,11.29-15.29,21.34,0,11.28,5.75,17.85,15.7,17.85,5.95,0,10.87-2.36,16.1-5.23Z"/><path d="M408.93,298.21a19,19,0,0,1,15-7.18c9.65,0,16.52,6.87,16.52,16.41,0,7.59-4.2,11.69-8.72,14.46l8.52,13.54c.3.51.81.62,1.64.62a1.85,1.85,0,0,0,2.05-2.06,8,8,0,0,0-.21-1.22l8.11.41c.41,5.43-4.31,11-10.06,11a10.31,10.31,0,0,1-8.51-4.82L424,324.26H408.93v19.9h-7.8V269.48h7.8Zm10.56,18.46a17.8,17.8,0,0,0,7.39-1.23c3.9-1.64,5.95-4.41,5.95-8.41,0-4.93-3.38-8.62-9.13-8.62-6.26,0-11.29,4.51-13.44,12.21a25,25,0,0,0-1,6.05Z"/><path d="M501.48,338.62a34.38,34.38,0,0,1-20.1,6.57c-16,0-23.49-11.19-23.49-25,0-13.13,6.67-28.93,23.08-28.93,10.15,0,18.87,6.46,18.87,16.51,0,10.67-9.44,16.62-23.08,16.62H466.4c1.44,8.62,6.16,13.24,15,13.24,6.25,0,11-2.26,16.31-5.13Zm-24.72-21.85c9,0,15.18-2.46,15.18-9,0-6.25-5.12-9.23-10.67-9.23-10.35,0-14.87,10.67-15.28,18.26Z"/><path d="M516.29,291.23a14.63,14.63,0,0,1,6,7.49,17.9,17.9,0,0,1,5-5,16.84,16.84,0,0,1,9.23-2.46c1.43,0,2.36.21,7,1V300a25.15,25.15,0,0,0-6.77-1c-3.59,0-5.74.72-7.69,2.36a21.3,21.3,0,0,0-5.33,6.57v36.42h-7.9V307.85c0-5.54-1.44-9.24-4.52-11.8Z"/><path d="M550.26,332.36a25.12,25.12,0,0,0,15.08,5.24c5.64,0,10.56-2.16,10.56-7.8,0-3.8-1.84-5.74-6.25-7.79-8.31-4-20.21-5.34-20.21-17,0-8.72,7.39-13.74,15.8-13.74,4.51,0,10.87,1.44,14,3.8l-1.64,7.49a24.36,24.36,0,0,0-12.52-3.7c-5,0-7.59,2.36-7.59,5.64,0,6.77,11.29,7.8,19.08,12.52,4.62,2.87,7.39,7,7.39,12.72,0,11-9.75,15.49-19.18,15.49a28.5,28.5,0,0,1-18.57-6.67Z"/><path class="cls-192" d="M591.85,527.45c.34-.81.69-1.62,1.24-2.9,1.39,2.75.09,2.81-1.46,2.69Z"/><path d="M234.08,431c12.93,0,20.21,9.85,20.21,22.26,0,15.49-11.18,22.57-23.18,22.57a74.85,74.85,0,0,1-8.72-.61v-7.8c3.69.21,6.57.41,8.31.41,9.23,0,15.39-3.8,15.39-14.46,0-9.95-5.44-14.16-13.44-14.47h-11.9v62.58h-8.52V438.87c-2.36.11-2.56.21-3.38,1.13-1,.93-1.34,1.74-1.13,3.8h-7.9c0-.41-.1-.82-.1-1.34A11.56,11.56,0,0,1,211.11,431Z"/><path d="M315,475.49c0,15.7-11,26.88-26.06,26.88-15.28,0-25.85-11.59-25.85-26.77s10.57-27.19,26-27.19C304.18,448.41,315,460,315,475.49Zm-43.8,0c0,11.49,6.87,19.29,17.85,19.29,11.38,0,17.84-8.41,17.84-19.7,0-11.59-7-19.08-17.84-19.08C277.4,456,271.15,464.62,271.15,475.49Z"/><path d="M328.52,447.9c4.1,3.08,9.44,6.87,9.44,13.64V483.9c0,7.49,3.18,10.78,10,10.78s10.46-3.08,15.18-9.23V449.23h7.8v43.09a2.45,2.45,0,0,0,2.36,2.36c1,0,1.64-.51,2.36-2.06l6.66,4.52a10.29,10.29,0,0,1-8.92,5.33,10.41,10.41,0,0,1-10-7.28,20.21,20.21,0,0,1-16,7c-10.25,0-16.61-5.13-17.23-15.59v-25c0-3.38-4.72-6-6-7.07Z"/><path d="M400,492.11a2.38,2.38,0,0,0,2.36,2.36c1,0,1.64-.51,2.36-2.05l6.57,4.31a10.6,10.6,0,0,1-9.13,5.54,10.27,10.27,0,0,1-9.95-10.16V426.77H400Z"/><path d="M460.49,495.81a34.45,34.45,0,0,1-20.11,6.56c-16,0-23.49-11.18-23.49-25,0-13.13,6.67-28.93,23.08-28.93,10.16,0,18.88,6.47,18.88,16.52,0,10.67-9.44,16.61-23.08,16.61H425.41c1.43,8.62,6.15,13.24,15,13.24,6.26,0,11-2.26,16.31-5.13ZM435.77,474c9,0,15.18-2.47,15.18-9,0-6.26-5.13-9.23-10.67-9.23-10.36,0-14.87,10.66-15.28,18.26Z"/><path d="M496.63,449.44v7.9h-15.8V486c0,5.74,1.23,8.82,5.85,8.82,3.9,0,7.08-1.85,8.92-6.46l6.16,4.51c-3.08,5.95-8.11,9.54-15.08,9.54-9.85,0-13.65-7-13.65-16.41v-49h7.8v12.51Z"/><path d="M536,449.44v7.9h-15.8V486c0,5.74,1.23,8.82,5.85,8.82,3.9,0,7.08-1.85,8.92-6.46l6.16,4.51c-3.08,5.95-8.11,9.54-15.08,9.54-9.85,0-13.64-7-13.64-16.41v-49h7.79v12.51Z"/><path d="M592.27,495.81a34.4,34.4,0,0,1-20.1,6.56c-16,0-23.49-11.18-23.49-25,0-13.13,6.67-28.93,23.08-28.93,10.15,0,18.87,6.47,18.87,16.52,0,10.67-9.44,16.61-23.07,16.61H557.19c1.44,8.62,6.16,13.24,15,13.24,6.26,0,11-2.26,16.31-5.13ZM567.56,474c9,0,15.18-2.47,15.18-9,0-6.26-5.13-9.23-10.67-9.23-10.36,0-14.88,10.66-15.29,18.26Z"/><path d="M345.16,590a11.89,11.89,0,0,1-6.94,2.26c-5.52,0-8.11-3.86-8.11-8.64,0-4.53,2.3-10,8-10,3.51,0,6.52,2.23,6.52,5.7,0,3.69-3.26,5.74-8,5.74h-3.58c.5,3,2.13,4.57,5.17,4.57a11.35,11.35,0,0,0,5.63-1.77Zm-8.53-7.55c3.11,0,5.24-.85,5.24-3.12s-1.77-3.18-3.68-3.18c-3.58,0-5.14,3.68-5.28,6.3Z"/><path d="M350,587.8a8.72,8.72,0,0,0,5.21,1.8c1.94,0,3.64-.74,3.64-2.69,0-1.31-.63-2-2.16-2.69-2.87-1.38-7-1.84-7-5.88,0-3,2.56-4.75,5.46-4.75a9.46,9.46,0,0,1,4.85,1.31l-.56,2.59a8.45,8.45,0,0,0-4.33-1.28c-1.73,0-2.62.82-2.62,1.95,0,2.34,3.9,2.69,6.59,4.32a4.92,4.92,0,0,1,2.55,4.4c0,3.79-3.36,5.34-6.62,5.34a9.79,9.79,0,0,1-6.41-2.3Z"/><path d="M374,574v2.72h-5.45v9.89c0,2,.42,3,2,3a3.14,3.14,0,0,0,3.08-2.23l2.12,1.56a5.6,5.6,0,0,1-5.2,3.29c-3.4,0-4.71-2.41-4.71-5.66V569.62h2.69V574Z"/><path d="M383,590.17a2,2,0,0,1-1.91,1.84,1.86,1.86,0,0,1,0-3.72A2,2,0,0,1,383,590.17Z"/><path d="M398.3,573.91c1.2-3.68,3.79-5.7,7.72-5.7,4.43,0,7,2.55,7,6.44,0,5.21-4.29,7.16-8.15,10.35a9.53,9.53,0,0,0-3.37,4.11h12.65v2.8h-15.8V591c0-3.9,2.66-6.66,6.09-9.25,2.62-2,5.85-3.93,5.85-7.15,0-2.3-1.67-3.86-4.32-3.86a5.15,5.15,0,0,0-5.28,4.39Z"/><path d="M436.57,580.36c0,6.3-3.58,11.86-9.71,11.86-6.3,0-9.74-5.81-9.74-12s3.51-12,9.74-12S436.57,574.12,436.57,580.36Zm-16.44-.11c0,4.82,2.34,9.28,6.8,9.28s6.7-4.64,6.7-9.31c0-4.93-2.34-9.21-6.73-9.21S420.13,575.43,420.13,580.25Z"/><path d="M446,591.91V572.64a7.76,7.76,0,0,1-5.17,1.77l-.67-2.66c1.94.39,3.79-.89,7.93-3.68h.81v23.84Z"/><path d="M459,591.91H456l8.22-20.37H452.77v-2.73l15.16-.18v.75Z"/></svg>